<?xml version="1.0" encoding="UTF-8" standalone="no"?>
<svg
   xmlns="http://www.w3.org/2000/svg"
   id="svg8"
   version="1.1"
   viewBox="0 0 76.653587 76.653557"
   height="100%"
   width="100%">
  <defs
     id="defs2" />
  <g
     transform="translate(-126.65978,-104.83691)"
     id="layer1">
    <g
       transform="translate(80.697917)"
       id="g32">
      <path
         id="path44"
         d="m 45.961895,143.16369 v -38.32678 h 38.326779 38.326776 v 38.32678 38.32678 H 84.288674 45.961895 Z"
         style="fill:#fdfdfd;stroke-width:0.07485699" />
      <path
         id="path42"
         d="m 45.961895,143.16369 v -38.32678 h 38.326779 38.326776 v 38.32678 38.32678 h -4.86428 -4.86427 l -0.0332,-0.16843 c -0.0183,-0.0926 -0.0706,-0.57266 -0.11615,-1.06671 -0.40755,-4.41477 -1.26852,-7.77015 -3.13086,-12.20169 -0.26093,-0.62089 -1.16394,-2.38872 -1.62509,-3.18142 -0.17963,-0.30879 -0.38359,-0.66249 -0.45325,-0.786 -0.18826,-0.33382 -1.49644,-2.26928 -1.79617,-2.65743 -0.14306,-0.18527 -0.32058,-0.42749 -0.3945,-0.53827 -0.1922,-0.28808 -0.5374,-0.67812 -2.50908,-2.83497 -0.17171,-0.18785 -0.36807,-0.37312 -0.43635,-0.41171 -0.0683,-0.0386 -0.42955,-0.35651 -0.80283,-0.70647 -0.7483,-0.70153 -1.20193,-1.09233 -1.49822,-1.29069 -0.107144,-0.0717 -0.34639,-0.24752 -0.531661,-0.39064 -0.346308,-0.26753 -1.779348,-1.2395 -2.245709,-1.52316 -1.020845,-0.62094 -4.535634,-2.26007 -4.846261,-2.26007 -0.123176,0 -0.17633,-0.22101 -0.09135,-0.3798 0.0425,-0.0794 0.252917,-0.23231 0.467589,-0.33976 0.61262,-0.30665 1.807767,-1.13524 2.525206,-1.75072 0.394225,-0.3382 1.60661,-1.55058 1.944811,-1.94481 0.584288,-0.68108 1.414562,-1.8691 1.753592,-2.50918 0.109036,-0.20585 0.267019,-0.48299 0.351072,-0.61585 0.376736,-0.59551 1.274251,-3.00901 1.510821,-4.06271 0.33123,-1.47538 0.37819,-1.94945 0.37819,-3.81771 0,-1.86825 -0.047,-2.34232 -0.37819,-3.8177 -0.23657,-1.0537 -1.134085,-3.4672 -1.510821,-4.06271 -0.08405,-0.13286 -0.242036,-0.41 -0.351072,-0.61585 -0.33903,-0.64008 -1.169304,-1.82811 -1.753592,-2.50918 -0.338201,-0.39423 -1.550586,-1.60661 -1.944811,-1.94481 -0.681079,-0.58429 -1.869102,-1.41457 -2.50918,-1.7536 -0.205857,-0.10903 -0.482992,-0.26702 -0.615855,-0.35107 -0.59551,-0.37673 -3.009004,-1.27425 -4.062707,-1.51081 -1.475384,-0.33123 -1.949456,-0.3782 -3.817707,-0.3782 -1.86825,0 -2.342322,0.047 -3.817706,0.3782 -1.053703,0.23656 -3.467197,1.13408 -4.062707,1.51081 -0.132863,0.0841 -0.409998,0.24204 -0.615855,0.35107 -0.640078,0.33903 -1.828101,1.16931 -2.50918,1.7536 -0.394225,0.3382 -1.606611,1.55058 -1.944811,1.94481 -0.584288,0.68107 -1.414562,1.8691 -1.753592,2.50918 -0.109036,0.20585 -0.267019,0.48299 -0.351072,0.61585 -0.376736,0.59551 -1.274249,3.00901 -1.510811,4.06271 -0.331233,1.47538 -0.378196,1.94945 -0.378196,3.8177 0,1.86826 0.04696,2.34233 0.378196,3.81771 0.236562,1.0537 1.134075,3.4672 1.510811,4.06271 0.08405,0.13286 0.242036,0.41 0.351072,0.61585 0.33903,0.64008 1.169304,1.8281 1.753592,2.50918 0.3382,0.39423 1.550586,1.60661 1.944811,1.94481 0.728765,0.6252 1.737842,1.32849 2.470296,1.72171 0.391673,0.21028 0.488026,0.29734 0.488026,0.44099 0,0.21442 0.0088,0.20934 -1.122855,0.65057 -0.810513,0.31603 -3.271229,1.51638 -3.929992,1.91708 -0.466361,0.28366 -1.899401,1.25563 -2.245709,1.52316 -0.185271,0.14312 -0.424517,0.31891 -0.531658,0.39064 -0.296293,0.19836 -0.749927,0.58916 -1.498225,1.29069 -0.373282,0.34996 -0.734556,0.66787 -0.802832,0.70647 -0.06827,0.0386 -0.264632,0.22386 -0.436351,0.41171 -1.971673,2.15685 -2.316878,2.54689 -2.509079,2.83497 -0.07391,0.11078 -0.251438,0.353 -0.394501,0.53827 -0.299721,0.38815 -1.60791,2.32361 -1.796168,2.65743 -0.06966,0.12351 -0.273621,0.47721 -0.453252,0.786 -0.461147,0.7927 -1.36416,2.56053 -1.625087,3.18142 -1.862342,4.43154 -2.723305,7.78692 -3.130854,12.20169 -0.04561,0.49405 -0.09788,0.97407 -0.116157,1.06671 l -0.03323,0.16843 H 50.82621 45.961932 Z"
         style="fill:#f3f3f3;stroke-width:0.07485699" />
      <path
         id="path40"
         d="m 45.961895,143.16369 v -38.32678 h 38.326779 38.326776 v 38.32678 38.32678 h -4.8657 -4.86571 v -0.36239 c 0,-0.1993 -0.0335,-0.64564 -0.0744,-0.99185 -0.0409,-0.34621 -0.11005,-0.94949 -0.1536,-1.34061 -0.33071,-2.96963 -1.3074,-6.75867 -2.4795,-9.61913 -0.56949,-1.38982 -1.34453,-3.03256 -1.80118,-3.8177 -0.16762,-0.2882 -0.44145,-0.7598 -0.6085,-1.048 -2.26947,-3.91532 -5.82143,-7.678 -9.517348,-10.08196 -1.110593,-0.72237 -1.154704,-0.74712 -2.694852,-1.51212 -1.435711,-0.71312 -1.786873,-0.8706 -2.640018,-1.18389 -0.600596,-0.22055 -0.604483,-0.37607 -0.0174,-0.69629 2.171426,-1.18441 4.60183,-3.51299 5.900538,-5.65332 0.612538,-1.00949 0.993607,-1.69705 1.036315,-1.86981 0.02545,-0.10293 0.121691,-0.33873 0.213885,-0.524 0.3948,-0.79345 0.91551,-2.56456 1.16642,-3.96742 0.14322,-0.80077 0.16736,-1.20018 0.16736,-2.76971 0,-1.56952 -0.0241,-1.96893 -0.16736,-2.7697 -0.25091,-1.40286 -0.77162,-3.17397 -1.16642,-3.96742 -0.09219,-0.18528 -0.188439,-0.42108 -0.213885,-0.524 -0.04291,-0.17359 -0.438302,-0.8864 -1.036315,-1.86828 -1.174276,-1.92805 -3.388645,-4.14306 -5.303303,-5.30483 -1.009491,-0.61254 -1.697047,-0.99361 -1.869804,-1.03631 -0.102928,-0.0254 -0.338727,-0.1217 -0.523998,-0.21388 -0.793453,-0.39481 -2.564566,-0.91551 -3.967421,-1.16642 -0.800777,-0.14323 -1.200184,-0.16736 -2.769709,-0.16736 -1.569524,0 -1.968931,0.0241 -2.769708,0.16736 -1.402855,0.25091 -3.173968,0.77161 -3.967421,1.16642 -0.185271,0.0922 -0.42107,0.18843 -0.523998,0.21388 -0.173584,0.0429 -0.886394,0.4383 -1.868275,1.03631 -1.928051,1.17428 -4.143058,3.38864 -5.304832,5.3033 -0.612538,1.00949 -0.993607,1.69705 -1.036315,1.86981 -0.02545,0.10292 -0.121691,0.33872 -0.213877,0.524 -0.394804,0.79345 -0.915511,2.56456 -1.166421,3.96742 -0.143224,0.80077 -0.167358,1.20018 -0.167358,2.7697 0,1.56953 0.02413,1.96894 0.167358,2.76971 0.25091,1.40286 0.771617,3.17397 1.166421,3.96742 0.09219,0.18527 0.188431,0.42107 0.213877,0.524 0.04271,0.17276 0.423777,0.86032 1.036315,1.86981 0.357755,0.58959 1.116678,1.5863 1.768177,2.32218 1.07322,1.21222 2.974013,2.74416 4.134626,3.33229 0.604544,0.30634 0.576147,0.41145 -0.189408,0.70106 -0.917907,0.34724 -1.23005,0.48758 -2.619994,1.17797 -1.540148,0.765 -1.584259,0.78975 -2.694852,1.51212 -2.736227,1.77974 -5.316106,4.20719 -7.435921,6.99657 -0.673802,0.88663 -1.621588,2.29246 -2.092736,3.1041 -0.173271,0.29849 -0.447093,0.77009 -0.608495,1.048 -0.447114,0.76985 -1.22649,2.42407 -1.789876,3.79899 -1.1721,2.86046 -2.148791,6.6495 -2.479496,9.61913 -0.04356,0.39112 -0.112679,0.9944 -0.153606,1.34061 -0.04093,0.34621 -0.07441,0.79255 -0.07441,0.99185 v 0.36239 h -4.865705 -4.865704 z"
         style="fill:#e8e8e8;stroke-width:0.07485699" />
      <path
         id="path38"
         d="m 45.961895,143.16369 v -38.32678 h 38.326779 38.326776 v 38.32678 38.32678 h -4.78942 -4.78942 l -0.0332,-0.16843 c -0.0183,-0.0926 -0.0706,-0.57266 -0.11616,-1.06671 -0.36377,-3.94052 -1.26774,-7.74006 -2.63583,-11.07884 -0.55543,-1.35549 -1.52476,-3.35788 -2.11989,-4.37913 -0.17995,-0.30879 -0.39538,-0.68339 -0.47874,-0.83245 -0.25185,-0.45033 -1.23237,-1.87979 -1.85203,-2.70001 -2.25144,-2.98012 -5.32448,-5.81383 -8.102547,-7.47152 -0.172495,-0.10293 -0.477039,-0.2882 -0.676767,-0.41171 -0.396561,-0.24524 -2.662929,-1.35412 -3.263333,-1.59668 -0.205857,-0.0832 -0.567978,-0.22731 -0.804713,-0.32032 -0.236735,-0.093 -0.430428,-0.21296 -0.430428,-0.26655 0,-0.0536 0.193693,-0.20064 0.430428,-0.32678 1.304009,-0.69481 2.894116,-1.96402 4.01177,-3.20216 0.616214,-0.68265 1.582826,-1.91515 1.801632,-2.29721 0.07074,-0.12351 0.259589,-0.44353 0.419673,-0.71114 1.013205,-1.69379 1.750135,-3.78066 2.141135,-6.06342 0.19087,-1.1143 0.19087,-3.97597 0,-5.09027 -0.391,-2.28276 -1.12793,-4.36963 -2.141135,-6.06342 -0.160084,-0.26761 -0.348826,-0.58763 -0.419426,-0.71114 -0.440151,-0.77004 -1.864166,-2.44639 -2.7879,-3.28192 -0.679542,-0.61465 -1.911957,-1.58175 -2.295893,-1.80163 -0.123514,-0.0707 -0.443528,-0.25959 -0.711142,-0.41967 -1.693784,-1.01321 -3.780658,-1.75013 -6.063416,-2.14114 -1.114306,-0.19087 -3.975969,-0.19087 -5.090275,0 -2.282758,0.39101 -4.369632,1.12793 -6.063416,2.14114 -0.267614,0.16008 -0.587628,0.34894 -0.711142,0.41967 -0.383936,0.21988 -1.616351,1.18698 -2.295893,1.80163 -0.923734,0.83553 -2.347749,2.51188 -2.7879,3.28192 -0.0706,0.12351 -0.259342,0.44353 -0.419426,0.71114 -1.013207,1.69379 -1.750133,3.78066 -2.14114,6.06342 -0.190866,1.1143 -0.190866,3.97597 0,5.09027 0.391007,2.28276 1.127933,4.36963 2.14114,6.06342 0.160084,0.26761 0.348937,0.58763 0.419673,0.71114 0.218806,0.38206 1.185418,1.61456 1.801632,2.29721 1.119773,1.24049 2.708555,2.50806 4.016802,3.2047 0.239503,0.12754 0.423985,0.26631 0.40996,0.30838 -0.01402,0.0421 -0.243667,0.16045 -0.510316,0.26304 -0.26665,0.1026 -0.653246,0.25502 -0.859103,0.33872 -0.60972,0.2479 -2.870565,1.35475 -3.263333,1.59765 -0.199728,0.12351 -0.504272,0.30878 -0.676767,0.41171 -2.778071,1.65769 -5.851109,4.4914 -8.102545,7.47152 -0.619667,0.82022 -1.600178,2.24968 -1.852031,2.70001 -0.08336,0.14906 -0.298795,0.52366 -0.478738,0.83245 -0.595132,1.02125 -1.564467,3.02364 -2.11989,4.37913 -1.368092,3.33878 -2.272064,7.13832 -2.635833,11.07884 -0.04561,0.49405 -0.09788,0.97407 -0.116157,1.06671 l -0.03323,0.16843 h -4.789422 -4.789421 z"
         style="fill:#d7d7d7;stroke-width:0.07485699" />
      <path
         id="path36"
         d="m 45.961895,143.16369 v -38.32678 h 38.326779 38.326776 v 38.32678 38.32678 h -4.79085 -4.79084 l -2.3e-4,-0.35557 c -1.5e-4,-0.19557 -0.0338,-0.65875 -0.0748,-1.02929 -0.24976,-2.25518 -0.27509,-2.42735 -0.61142,-4.15456 -0.52716,-2.70728 -1.2011,-4.84273 -2.51604,-7.97227 -0.27237,-0.64825 -1.07276,-2.25392 -1.39929,-2.80714 -0.13365,-0.22644 -0.38948,-0.66435 -0.5685,-0.97314 -2.47782,-4.27386 -6.29995,-8.1751 -10.474813,-10.69163 -0.591344,-0.35645 -3.096998,-1.59454 -3.71867,-1.83746 -1.232278,-0.48153 -1.213508,-0.45881 -0.625301,-0.75688 1.492526,-0.75632 3.814894,-2.80089 5.020241,-4.41972 1.39961,-1.87975 2.281593,-3.67401 2.921383,-5.94317 0.43388,-1.53886 0.54684,-2.46787 0.54684,-4.49737 0,-2.02949 -0.11296,-2.95851 -0.54684,-4.49736 -0.51863,-1.83942 -1.02468,-2.98417 -2.114323,-4.78288 -0.849027,-1.40152 -2.669056,-3.37959 -4.067915,-4.42114 -1.879742,-1.39961 -3.674011,-2.28159 -5.943166,-2.92138 -1.538856,-0.43388 -2.467868,-0.54684 -4.497366,-0.54684 -2.029497,0 -2.958509,0.11296 -4.497366,0.54684 -1.839415,0.51862 -2.984172,1.02468 -4.782882,2.11432 -1.401518,0.84903 -3.379582,2.66905 -4.421138,4.06791 -1.399611,1.87974 -2.281588,3.67401 -2.921379,5.94317 -0.433882,1.53885 -0.546842,2.46787 -0.546842,4.49736 0,2.0295 0.11296,2.95851 0.546842,4.49737 0.518626,1.83942 1.024676,2.98417 2.114319,4.78288 1.23924,2.04566 3.924338,4.61571 5.832599,5.5827 0.201696,0.10221 0.366722,0.21076 0.366722,0.24123 0,0.0305 -0.378964,0.20469 -0.842141,0.38717 -0.769075,0.303 -3.39452,1.58405 -4.023564,1.96324 -4.175221,2.51689 -7.996976,6.41775 -10.474827,10.69164 -0.179023,0.30879 -0.434849,0.7467 -0.568502,0.97314 -0.326527,0.55322 -1.126913,2.15889 -1.399288,2.80714 -1.314937,3.12954 -1.988884,5.26499 -2.516044,7.97227 -0.336322,1.72721 -0.361659,1.89938 -0.611416,4.15456 -0.04104,0.37054 -0.07471,0.83372 -0.07482,1.02929 l -2.11e-4,0.35557 h -4.790848 -4.790847 z"
         style="fill:#cacaca;stroke-width:0.07485699" />
      <path
         id="path34"
         d="m 45.961895,143.16369 v -38.32678 h 38.326779 38.326776 v 38.32678 38.32678 h -4.78897 -4.78898 l 0.0451,-0.22567 c 0.0549,-0.27432 -0.14832,-2.36268 -0.35677,-3.6669 -0.48042,-3.00591 -1.2952,-5.98368 -2.32476,-8.49626 -0.55711,-1.35962 -1.34088,-3.0255 -1.77857,-3.78028 -0.15518,-0.26762 -0.429,-0.73922 -0.60849,-1.048 -0.47931,-0.82457 -1.42151,-2.22419 -2.10923,-3.1332 -1.79378,-2.37099 -3.48375,-4.07679 -5.947268,-6.00299 -0.394507,-0.30846 -1.998322,-1.38158 -2.807805,-1.87872 -0.387221,-0.2378 -2.789072,-1.41178 -3.316797,-1.62119 -0.804436,-0.31919 -1.01057,-0.41368 -1.01057,-0.46323 0,-0.0283 0.09264,-0.0933 0.205857,-0.14445 0.742019,-0.33517 2.530101,-1.71317 3.56548,-2.74779 0.852486,-0.85185 1.90123,-2.15806 2.428629,-3.02485 0.601736,-0.98897 0.993454,-1.69532 1.036314,-1.86868 0.0255,-0.10293 0.12062,-0.33873 0.21149,-0.524 0.40103,-0.81761 0.93315,-2.64644 1.1744,-4.03633 0.23737,-1.36749 0.23737,-4.18382 0,-5.55131 -0.24125,-1.38989 -0.77337,-3.21872 -1.1744,-4.03633 -0.0909,-0.18527 -0.18604,-0.42107 -0.21149,-0.524 -0.0429,-0.17336 -0.434578,-0.87971 -1.036314,-1.86868 -1.194747,-1.96359 -3.490554,-4.25939 -5.454144,-5.45414 -0.988965,-0.60174 -1.695315,-0.99346 -1.868677,-1.03632 -0.102928,-0.0254 -0.338727,-0.12061 -0.523998,-0.21149 -0.817607,-0.40103 -2.646438,-0.93314 -4.036331,-1.1744 -1.367494,-0.23737 -4.183817,-0.23737 -5.551311,0 -1.389893,0.24126 -3.218724,0.77337 -4.036331,1.1744 -0.185271,0.0909 -0.42107,0.18605 -0.523998,0.21149 -0.173363,0.0429 -0.879712,0.43458 -1.868677,1.03632 -1.96359,1.19475 -4.259397,3.49055 -5.454144,5.45414 -0.601736,0.98897 -0.993457,1.69532 -1.036315,1.86868 -0.02545,0.10293 -0.120617,0.33873 -0.211491,0.524 -0.401031,0.81761 -0.933143,2.64644 -1.174401,4.03633 -0.237369,1.36749 -0.237369,4.18382 0,5.55131 0.241258,1.38989 0.77337,3.21872 1.174401,4.03633 0.09087,0.18527 0.186045,0.42107 0.211491,0.524 0.04286,0.17336 0.434579,0.87971 1.036315,1.86868 0.527399,0.86679 1.576143,2.173 2.428629,3.02485 1.026496,1.02574 2.685734,2.30681 3.569336,2.75582 l 0.209713,0.10657 -0.359427,0.15555 c -0.197685,0.0856 -0.544698,0.22992 -0.77114,0.3208 -0.569257,0.22848 -2.960855,1.39634 -3.354226,1.63792 -1.807267,1.10992 -2.980479,1.96072 -4.518499,3.27676 -0.760452,0.6507 -2.380828,2.30726 -3.102598,3.17187 -1.135039,1.35968 -2.479407,3.25015 -3.220589,4.52885 -0.167051,0.2882 -0.440874,0.7598 -0.608495,1.048 -0.456652,0.78515 -1.23169,2.42788 -1.801183,3.81771 -1.029555,2.51258 -1.844337,5.49035 -2.32476,8.49626 -0.208448,1.30422 -0.411637,3.39258 -0.356773,3.6669 l 0.04513,0.22567 h -4.788976 -4.788976 z"
         style="fill:#c4c4c4;stroke-width:0.07485699" />
    </g>
  </g>
</svg>
