<?xml version="1.0" encoding="UTF-8" standalone="no"?>
<!-- Created with Inkscape (http://www.inkscape.org/) -->

<svg width="201.92mm"
     height="201.92mm"
     viewBox="0 0 763.16222 763.16222"
     version="1.1"
     xml:space="preserve"
     xmlns="http://www.w3.org/2000/svg"
     xmlns:svg="http://www.w3.org/2000/svg">
	<g transform="translate(-49.631088,-61.207044)">
		<path d="m 619.59978,715.15317 c -1.3856,-1.58852 -2.3262,-6.75291 -2.9467,-16.17876 -1.0047,-15.26335 -2.6153,-20.42591 -11.6955,-37.48791 -7.2334,-13.59184 -15.1289,-20 -24.6419,-20 -3.0818,0 -5.974,0.6 -6.4273,1.33333 -1.3811,2.23463 -5.8408,1.49254 -8.7971,-1.46384 -5.6021,-5.60206 -9.1338,-5.44472 -23.3947,1.04234 -7.2278,3.28782 -22.1415,9.53866 -33.1415,13.89077 -11,4.35209 -20.9,8.51056 -22,9.24104 -1.1,0.73048 -3.61628,2.40245 -5.59174,3.71549 -1.97545,1.31304 -12.77545,4.32835 -24,6.70068 -11.22454,2.37234 -23.90653,5.23396 -28.18218,6.35918 -4.54312,1.1956 -9.81519,1.70096 -12.68563,1.216 -3.48216,-0.58831 -6.69364,-0.0416 -11.0341,1.87838 -3.69842,1.636 -10.72936,3.06235 -17.75873,3.60267 -10.49975,0.80707 -11.74993,1.19317 -12.79915,3.9528 -0.63953,1.68209 -2.74024,4.09195 -4.66824,5.35523 -2.96736,1.94428 -4.18338,2.05172 -7.92181,0.69989 -3.27688,-1.18493 -6.05825,-1.22901 -10.78007,-0.17084 -10.10685,2.265 -18.61445,-0.64893 -21.70618,-7.43456 -3.66588,-8.04572 -0.49732,-16.07237 8.40388,-21.28881 7.79022,-4.56539 30.91029,-12.59923 36.3076,-12.61631 3.0161,-0.009 7.95054,-2.52219 16.99293,-8.65293 7.00844,-4.75172 14.14561,-8.99162 15.8604,-9.422 3.07741,-0.77239 8.89635,-10.35968 8.89635,-14.65766 0,-1.11838 -3.18023,-3.3876 -7.30271,-5.21074 -6.86469,-3.03589 -7.55144,-3.10553 -11.44949,-1.16092 -9.73391,4.8559 -19.39334,-1.52252 -29.67814,-19.5974 -5.38025,-9.45545 -5.79638,-9.83925 -12.23633,-11.28539 -8.11768,-1.82289 -24.65772,-8.57821 -37.58185,-15.34925 l -9.58186,-5.02 -6.89012,3.40988 c -5.98768,2.96327 -7.56171,3.23061 -12.01783,2.04121 l -5.12773,-1.36866 1.76715,4.13021 c 4.43009,10.35416 5.41194,12.2964 7.48014,14.79688 1.21312,1.46667 4.19242,7.68207 6.62067,13.812 5.2966,13.37088 16.99416,27.81565 25.92508,32.01368 11.42904,5.37228 16.37318,16.46854 9.93662,22.301 -2.50779,2.27241 -5.42231,2.58242 -27.66667,2.94285 -27.47794,0.44523 -29.65848,-0.0808 -30.01863,-7.24199 -0.11947,-2.37445 -3.4984,-9.10765 -8.32025,-16.57952 -4.46554,-6.91974 -11.722,-19.18135 -16.12547,-27.24802 -4.40348,-8.06667 -9.21041,-16.63677 -10.68209,-19.04468 l -2.67579,-4.378 -0.84507,6.16549 c -1.94713,14.20582 -3.71469,16.18635 -30.07366,33.69687 -19.04637,12.65269 -23.58722,16.21722 -21.50215,16.879 4.38057,1.39033 8.31392,7.42736 7.35604,11.29028 -2.47403,9.97716 -11.25338,12.41853 -42.48547,11.81438 -26.50715,-0.51274 -27.49107,-0.98553 -27.49107,-13.20986 0,-4.2386 0.69078,-9.39562 1.53507,-11.46002 0.84428,-2.06441 1.40931,-5.04274 1.25559,-6.61853 -0.37339,-3.82795 6.23374,-11.13697 15.60089,-17.25822 15.61415,-10.20355 40.27445,-27.59339 40.25591,-28.38748 -0.0107,-0.45242 -8.10534,-9.22256 -17.98839,-19.48923 -19.96168,-20.73653 -22.90996,-25.85668 -24.27683,-42.16059 -0.68021,-8.11361 -0.13461,-10.7118 6.7201,-32.00165 6.37998,-19.81542 11.46646,-41.48221 14.83001,-63.17109 1.54836,-9.98416 6.22688,-20.53023 10.94585,-24.67353 2.50136,-2.19623 5.35358,-3.99314 6.33827,-3.99314 3.80532,0 4.73344,-3.24008 2.65564,-9.27093 -3.23823,-9.39903 0.40572,-22.28729 8.34219,-29.50548 8.76561,-7.97228 30.38395,-9.20227 36.30677,-2.06568 0.95966,1.15631 4.12983,6.7688 7.04483,12.47223 2.915,5.70342 6.15519,11.3171 7.20039,12.47485 2.25328,2.49588 2.49801,8.09739 0.44353,10.15187 -1.05359,1.05358 -1.0282,2.25781 0.0917,4.35037 0.85171,1.59143 1.3573,4.75539 1.12352,7.031 -0.36793,3.58155 0.1124,4.30979 3.57496,5.41977 2.2,0.70526 5.88859,2.68942 8.19687,4.40924 2.30828,1.71984 7.06761,3.77031 10.57628,4.55663 5.89565,1.32124 6.61479,1.19427 9.48355,-1.67449 l 3.10413,-3.10415 -4.83935,-6.91296 c -8.39916,-11.99811 -7.94148,-23.88941 1.35891,-35.30661 4.66409,-5.72566 7.16991,-7.54103 12.95129,-9.38271 3.94258,-1.25592 8.73763,-3.33937 10.65568,-4.62988 1.91804,-1.29052 5.9565,-3.99664 8.97435,-6.0136 6.3178,-4.22247 13.43722,-7.10504 20.40663,-8.26242 4.85888,-0.80691 4.86689,-0.8194 4.12663,-6.43943 -0.40795,-3.09701 -1.61488,-6.97665 -2.6821,-8.6214 -1.15977,-1.7874 -2.01529,-6.69451 -2.12662,-12.19783 -0.17019,-8.41386 0.16461,-9.64189 3.88481,-14.24904 5.51796,-6.83353 11.52773,-9.65481 22.46901,-10.54805 11.97692,-0.9778 16.80871,0.74713 23.5625,8.41173 7.24944,8.22711 9.30708,12.44614 10.17598,20.86511 0.82296,7.97364 -1.09848,15.07707 -5.52053,20.40907 -2.17551,2.62317 -2.97741,5.24045 -2.88541,9.41741 0.12146,5.51768 0.37352,5.8689 5.46073,7.61082 6.48364,2.22008 12.03609,8.10808 13.85369,14.6909 0.74339,2.69232 2.6584,6.80228 4.2556,9.13324 2.69371,3.9312 3.78456,4.36957 15.06402,6.0536 23.39889,3.49348 24.16811,3.46384 29.76171,-1.14688 2.75324,-2.26947 6.0692,-4.1263 7.36877,-4.1263 1.68169,0 2.37132,-1.05704 2.39216,-3.66666 0.0461,-5.78523 4.63199,-14.43783 11.67068,-22.02067 4.92169,-5.30216 6.53903,-8.10076 6.73035,-11.646 0.13852,-2.56666 0.57894,-6.23886 0.97874,-8.16045 0.71284,-3.42625 -3.74574,-9.92987 -18.94845,-27.63953 l -3.83436,-4.46666 0.49028,6.16444 c 0.66187,8.32192 -0.48389,12.15407 -5.13883,17.18743 -2.1608,2.33645 -5.21884,5.94329 -6.79565,8.0152 -2.16233,2.84129 -3.61688,3.57887 -5.91851,3.0012 -1.74761,-0.43863 -4.73506,0.20028 -6.9913,1.49519 -3.70906,2.1287 -4.14462,2.12682 -7.43931,-0.0319 -3.04966,-1.99827 -3.49962,-3.20297 -3.49962,-9.36971 0,-4.88618 1.02227,-9.09586 3.30262,-13.60012 2.79355,-5.51797 3.00159,-6.69196 1.34968,-7.61641 -3.3114,-1.85315 -4.76399,-5.84465 -3.41666,-9.38841 0.86075,-2.26396 0.62352,-5.02295 -0.78134,-9.08731 -1.32479,-3.83264 -1.86351,-9.30627 -1.56918,-15.9436 l 0.44822,-10.10728 -7.97776,-9.75473 c -6.42918,-7.86122 -9.53499,-10.45483 -16,-13.36138 -11.20419,-5.03718 -26.1062,-14.29194 -29.75888,-18.48147 -5.94324,-6.81678 -9.56974,-16.28616 -9.58367,-25.0246 -0.008,-5.37699 0.62303,-8.69795 1.84749,-9.71416 1.0233,-0.84926 2.26506,-3.77272 2.75947,-6.4966 1.24732,-6.87187 6.41111,-13.91689 12.85539,-17.53879 10.33249,-5.80718 24.43265,-1.97697 31.68489,8.60699 5.91449,8.63164 5.03217,22.91789 -1.92613,31.18737 l -3.20336,3.80699 7.99944,0.57862 c 6.91158,0.49994 8.64402,1.20155 12.73924,5.15914 2.60689,2.51929 5.94915,6.53052 7.42725,8.91385 2.77675,4.47732 5.13663,5.65608 5.13663,2.56575 0,-3.17246 5.99987,-7.56575 10.33247,-7.56575 2.28833,0 5.79549,-0.62159 7.79369,-1.38129 4.69093,-1.7835 16.58868,0.76169 22.58612,4.83166 2.38399,1.61782 6.15541,3.34142 8.38096,3.83023 2.74793,0.60355 5.78672,3.14445 9.46948,7.918 7.20367,9.33729 8.86337,14.19177 6.51819,19.06506 -1.66182,3.45327 -1.54359,3.9465 1.56052,6.5103 1.84721,1.52569 8.02145,5.08856 13.72047,7.9175 16.4977,8.18926 24.2477,17.68976 23.4494,28.74612 -0.3494,4.839 0.1643,5.57039 10.2438,14.58478 6.6365,5.93529 14.1078,11.11961 19.9449,13.83982 5.1333,2.39224 11.7342,5.8653 14.6687,7.7179 8.4553,5.33812 21.1607,9.47949 26.9299,8.77788 6.8542,-0.83358 13.4411,1.67969 23.828,9.09162 8.2501,5.88715 8.6929,6.47501 8.3106,11.03413 -0.3412,4.06792 -1.235,5.27278 -5.7568,7.75946 l -5.3528,2.94377 -5.9805,-2.71009 c -4.9257,-2.23216 -6.7026,-2.4544 -10.0751,-1.26015 -5.9394,2.10319 -11.1288,1.74379 -17.6676,-1.22361 -3.1693,-1.43826 -9.7693,-3.31124 -14.6667,-4.16218 -4.8974,-0.85094 -15.1228,-3.56101 -22.723,-6.02237 -7.6003,-2.46137 -14.5298,-4.47521 -15.3988,-4.47521 -2.5922,0 -4.4839,6.83478 -10.1105,36.52948 -1.5142,7.9912 -3.582,16.0912 -4.5952,18 -6.8639,12.93142 -19.92899,44.13718 -18.47919,44.13718 0.3639,0 3.45329,-3.1209 6.86529,-6.93536 3.412,-3.81445 8.4462,-9.36445 11.1871,-12.33333 2.7408,-2.96888 4.9908,-6.02685 5,-6.79549 0.033,-2.79796 16.3305,-17.1073 21.8922,-19.22187 1.9973,-0.75933 6.6111,-1.38061 10.253,-1.38061 5.1529,0 6.7759,-0.5176 7.3165,-2.33334 0.3821,-1.28333 1.8649,-4.73333 3.2952,-7.66666 1.4302,-2.93334 2.5988,-6.0373 2.5967,-6.8977 -0.01,-2.76092 7.0658,-10.07336 11.5579,-11.95026 18.1771,-7.5949 34.5905,10.34112 30.1259,32.92069 -0.9614,4.86256 -0.8977,6.59393 0.2428,6.59393 1.943,0 9.1831,7.57163 11.4746,12 0.9487,1.83334 2.0707,5.00391 2.4933,7.04572 l 0.7685,3.71239 16.6667,-8.25469 c 21.3889,-10.59355 24.3743,-12.64598 22.7659,-15.65134 -0.7457,-1.39336 -0.764,-7.53925 -0.046,-15.57673 0.6519,-7.30144 1.2067,-14.54353 1.2329,-16.09353 0.075,-4.47047 6.2248,-9.46822 15.4116,-12.52539 15.3647,-5.11304 24.586,-3.14505 33.3749,7.12276 6.3283,7.39315 7.9216,13.25847 6.2451,22.98929 -0.7856,4.55943 -0.8524,8.62095 -0.1618,9.83307 0.6471,1.13581 1.8026,3.56512 2.5677,5.39845 0.7652,1.83334 2.2566,4.83334 3.3143,6.66667 1.1907,2.06393 1.9306,7.05641 1.9427,13.10985 0.016,8.05162 -0.7116,11.44268 -4.1252,19.22015 -12.0256,27.39933 -19.8558,48.52041 -19.8648,53.58348 -0.011,5.86804 -6.2738,25.4709 -11.2824,35.31161 -3.7312,7.33087 -11.2878,15.13052 -17.5279,18.09161 -6.2503,2.96603 -25.5899,23.34996 -22.1536,23.34996 0.6878,0 6.5755,3.6 13.0838,8 6.5083,4.4 12.5565,8 13.4403,8 0.8839,0 5.8564,3.19676 11.0501,7.10391 9.2156,6.93271 16.0661,14.4698 16.0661,17.6762 0,0.87744 1.1868,4.21086 2.6374,7.40762 3.605,7.94475 3.4173,13.41699 -0.6249,18.2209 -4.7889,5.69136 -28.6999,11.64508 -42.2171,10.51185 -16.4007,-1.37499 -23.8436,-7.56157 -19.6413,-16.32593 1.0152,-2.11742 3.2065,-4.52803 4.8695,-5.35692 1.663,-0.8289 3.3321,-1.81554 3.7091,-2.19252 1.2396,-1.23968 -36.4206,-21.04511 -40.0175,-21.04511 -4.3125,0 -10.6188,-3.13673 -12.9676,-6.45005 -0.9612,-1.35591 -3.4286,-2.78205 -5.4832,-3.16923 -3.2873,-0.61948 -2.4785,0.59518 6.7424,10.12433 14.0098,14.47835 15.1298,16.28634 21.5754,34.82828 8.2305,23.6768 8.001,23.23132 17.0418,33.08291 4.856,5.29145 8.3837,10.34379 8.3942,12.02213 0.011,1.59223 0.3498,4.12939 0.755,5.63815 2.1145,7.87213 -13.349,12.99387 -22.6545,7.50352 -4.1889,-2.47153 -4.3716,-2.47296 -7.3549,-0.0573 -3.845,3.11348 -8.4103,3.17292 -11.0524,0.14389 z m 8.2417,-6.91235 c 0.7592,-1.41845 1.3803,-3.89164 1.3803,-5.49596 0,-3.22936 -0.9806,-3.65463 10.6208,4.60637 6.2331,4.4384 8.6616,3.71522 4.0409,-1.20332 -4.0586,-4.32013 -2.2777,-4.3162 2.3828,0.005 3.1752,2.94421 8.2888,4.56293 8.2888,2.62384 0,-3.28652 -5.3139,-11.83588 -10.8516,-17.45886 -6.1773,-6.2724 -7.3211,-8.50709 -13.8953,-27.149 -3.9402,-11.1727 -8.7868,-22.44169 -10.7703,-25.0422 -1.9835,-2.6005 -9.9536,-11.1502 -17.7112,-18.99931 -36.5962,-37.02739 -42.7864,-43.69999 -45.5388,-49.08702 -2.8904,-5.65722 -2.9025,-5.88236 -0.5726,-10.66666 5.02,-10.3081 5.9301,-15.52344 4.3899,-25.15532 -1.7234,-10.77711 -2.5248,-11.96739 -10.3646,-15.3935 -7.3591,-3.21606 -26.0012,-3.37122 -29.4555,-0.24516 -1.1586,1.04859 -2.8094,1.90652 -3.6683,1.90652 -1.9656,0 -2.0511,5.64392 -0.115,7.58014 1.0402,1.04017 0.8301,2.63945 -0.7476,5.69038 -1.207,2.33398 -1.9413,4.95292 -1.6319,5.81987 0.3094,0.86696 -0.5942,3.88085 -2.008,6.69756 -2.41791,4.81721 -2.43468,5.22063 -0.28251,6.79433 1.87631,1.37198 2.12561,2.89775 1.38521,8.47864 -0.8032,6.05522 -0.5932,6.97127 1.9052,8.30834 1.5443,0.82652 3.6922,1.16342 4.7729,0.74869 3.63,-1.39296 0.3748,1.92028 -9.66239,9.83447 -8.63853,6.8114 -11.07765,8.02581 -18.94249,9.43133 -9.61607,1.71849 -9.5504,1.73635 -23.41598,-6.36409 -1.55056,-0.90586 -4.99592,-1.65586 -7.65637,-1.66667 -2.66044,-0.0107 -6.99116,-0.91965 -9.62384,-2.01965 -2.63267,-1.1 -7.05595,-2.00775 -9.82949,-2.0172 -2.77356,-0.009 -8.7098,-1.16699 -13.19166,-2.57227 -4.48186,-1.40529 -13.49341,-3.15179 -20.02568,-3.88109 -10.20025,-1.13883 -14.32004,-2.45643 -29.18449,-9.33386 -12.65623,-5.85572 -20.53267,-8.59448 -29.30767,-10.1907 -6.6,-1.20058 -14.4,-2.70242 -17.33333,-3.33742 -2.93334,-0.635 -9.67282,-1.57144 -14.97663,-2.08098 -8.28291,-0.79575 -9.76267,-0.61534 -10.48955,1.27888 -0.46544,1.21293 -3.62133,3.83162 -7.01309,5.81933 -11.72718,6.87259 -29.38478,3.06171 -35.75124,-7.71587 -3.95298,-6.69184 -7.60952,-2.29664 -4.44507,5.34302 1.36927,3.30569 5.351,5.93037 8.34224,5.49902 0.55,-0.0793 1,0.47647 1,1.23506 0,0.87878 2.35061,1.06744 6.47801,0.51992 5.55899,-0.73743 6.85699,-0.45255 9.14939,2.00805 4.06652,4.36491 11.67064,5.11325 16.40323,1.61429 2.12376,-1.57017 5.3295,-2.85485 7.12388,-2.85485 1.79436,0 10.36867,3.51828 19.05399,7.8184 18.18781,9.00483 24.66312,11.46359 35.7915,13.59051 5.73274,1.09568 11.02302,3.4915 18.66667,8.45365 5.86667,3.80855 13.53565,8.69751 17.04219,10.86437 3.50653,2.16686 6.70446,5.22158 7.10652,6.78826 0.50556,1.97001 3.623,4.12589 10.10804,6.99026 l 9.37701,4.14175 -0.91756,5.00973 c -0.50465,2.75535 -2.43277,8.41201 -4.28469,12.57035 -2.55812,5.74398 -4.37603,7.96646 -7.566,9.24972 -5.6718,2.28164 -20.53712,11.51057 -25.82683,16.03422 -3.44235,2.94384 -5.55921,3.65388 -10.66667,3.57787 -7.50221,-0.1116 -32.14793,8.98295 -37.1968,13.72612 -6.18388,5.80945 -2.58088,13.18479 6.44102,13.18479 2.8616,0 7.90757,-0.68104 11.21325,-1.51343 4.48369,-1.129 6.39476,-1.129 7.52376,0 2.66697,2.66697 4.73323,1.63481 6.31363,-3.15384 1.77884,-5.38996 2.60784,-5.66929 18.85765,-6.35409 8.38516,-0.35338 12.56,-1.16415 15.32569,-2.9763 2.80264,-1.83636 6.60516,-2.55428 14.47547,-2.733 9.48198,-0.2153 21.06808,-2.33269 49.836,-9.10766 4.67226,-1.10034 9.80087,-3.2274 11.39692,-4.72683 1.59606,-1.49941 6.17331,-3.85904 10.17166,-5.2436 9.22202,-3.19344 49.7149,-20.35393 58.332,-24.72055 6.3008,-3.19288 6.7148,-3.2336 12.3948,-1.21894 3.232,1.14636 10.3763,2.37281 15.8763,2.72545 8.1591,0.52315 11.5284,1.48285 18.3026,5.21337 7.134,3.92868 9.0317,5.83218 13.4831,13.52415 12.6704,21.89441 16.1901,32.88768 16.2066,50.6186 0.01,8.41719 1.4299,10.48329 3.9608,5.75432 z m -442.9858,-51.01719 c 5.52641,-2.64873 4.52759,-5.19436 -3.00112,-7.6487 -3.68528,-1.20139 -8.05336,-3.13191 -9.70684,-4.29006 l -3.00632,-2.1057 3.38173,-2.2158 c 1.85995,-1.21868 4.72803,-2.72902 6.3735,-3.3563 4.30378,-1.64065 46.57276,-29.94259 49.19259,-32.93777 2.4183,-2.76478 5.11342,-11.37253 5.12508,-16.36866 0.004,-1.75223 -1.81659,-6.1503 -4.04595,-9.77347 -4.62879,-7.52273 -4.43124,-7.55668 8.77939,-1.50867 6.91361,3.16516 7.4563,3.81571 15.55212,18.64294 4.6137,8.44984 13.46786,23.56722 19.67592,33.59419 6.20806,10.02698 11.35994,19.73087 11.44861,21.5642 l 0.16124,3.33334 21.88472,0.33074 c 12.0366,0.18191 22.7506,-0.22512 23.80891,-0.90452 2.96501,-1.90342 -0.34695,-7.84844 -5.59384,-10.04105 -10.98559,-4.59073 -25.70103,-21.46111 -30.99728,-35.53649 -2.0382,-5.41677 -4.469,-10.74868 -5.40176,-11.84868 -0.93278,-1.1 -4.8453,-8.75 -8.69448,-17 -5.62482,-12.05569 -7.54536,-15.00431 -9.78435,-15.02193 -4.19937,-0.0331 -13.18091,-5.59783 -15.07419,-9.33963 -0.91977,-1.81781 -1.68762,-4.80511 -1.70634,-6.63844 -0.0285,-2.79639 -1.6941,-4.19244 -10.3397,-8.66667 -13.11864,-6.78909 -17.66558,-11.52113 -17.66558,-18.38469 0,-4.76689 1.09112,-6.21029 15.66666,-20.72475 18.52632,-18.44866 34.05526,-31.29329 44.73244,-37.00005 7.1886,-3.84216 8.2592,-4.05024 15.22174,-2.95841 8.23668,1.29164 9.65518,0.46469 9.69208,-5.65017 0.0107,-1.86162 1.17325,-5.64596 2.58226,-8.40967 l 2.56186,-5.02493 -3.04371,-1.3868 c -2.30433,-1.04994 -4.04419,-0.86944 -7.16231,0.743 -4.87217,2.5195 -9.51656,2.71104 -14.18286,0.58493 -2.74326,-1.24991 -3.83722,-1.15273 -5.72942,0.50896 -3.75244,3.29532 -7.49813,3.85403 -13.02053,1.94212 -6.43603,-2.22821 -8.58892,-5.23195 -6.33579,-8.83977 1.8599,-2.97819 1.44559,-3.37444 -4.96909,-4.75252 -2.55935,-0.54983 -6.45935,-2.34451 -8.66667,-3.98818 -2.20733,-1.64366 -8.21333,-4.35133 -13.34666,-6.01702 -9.82276,-3.18738 -14.93691,-5.92552 -13.09792,-7.01271 0.60385,-0.35699 3.04104,-1.0658 5.41596,-1.57512 5.52618,-1.18515 5.88916,-1.89913 4.03566,-7.93837 -1.18681,-3.867 -1.15648,-5.59171 0.13474,-7.65927 1.41792,-2.27044 1.19897,-3.29896 -1.4679,-6.89584 -1.7239,-2.32507 -5.08544,-8.25521 -7.47006,-13.17811 -3.90935,-8.07052 -4.80839,-9.03937 -9.14246,-9.85245 -2.77045,-0.51973 -8.23493,-0.10973 -12.89911,0.96776 -6.70602,1.54925 -8.61392,2.64347 -11.13681,6.38717 -5.32736,7.9053 -6.14077,13.60724 -3.08748,21.64287 l 2.67361,7.03637 -3.64578,3.82703 c -2.00519,2.10488 -5.51011,4.61148 -7.78874,5.57025 -5.31038,2.23443 -9.13102,10.00152 -11.82977,24.04912 -1.12593,5.86076 -3.33345,17.25592 -4.90559,25.32259 -1.57214,8.06667 -6.06766,24.65309 -9.99006,36.85872 -3.9224,12.20562 -7.13163,24.29242 -7.13163,26.85954 0,2.56714 1.24879,8.78071 2.77508,13.80795 2.58255,8.50631 3.76948,10.15799 17.10833,23.80712 15.48216,15.84231 25.44992,27.09768 25.44992,28.73748 0,1.06937 -22.8608,18.00639 -33.33333,24.69585 -3.3,2.10791 -10.38164,7.02544 -15.73699,10.92783 -7.96161,5.80154 -9.58169,7.58453 -8.88526,9.77876 0.46912,1.47806 -0.1335,4.75966 -1.34151,7.30536 -1.20627,2.54202 -2.00789,6.85674 -1.78139,9.58829 0.38623,4.65793 0.74311,5.02272 5.74515,5.87267 8.76537,1.48941 42.80549,0.15892 46.96728,-1.83578 z M 221.9177,511.07136 c -2.04986,-2.04986 2.21308,-32.90543 6.85068,-49.58596 l 2.2716,-8.17049 12.09088,0.55273 c 12.19112,0.55732 39.6137,3.36392 40.38282,4.13303 0.2282,0.22821 -2.74412,2.51322 -6.60517,5.07781 -10.47204,6.95571 -30.91684,24.59692 -43.32415,37.38312 -6.03388,6.21814 -11.28388,10.99253 -11.66666,10.60976 z m 32.30569,-39.37261 9.66832,-8.13392 -7.66832,-1.62023 c -4.21757,-0.89112 -10.4952,-1.65873 -13.95027,-1.70583 -6.16129,-0.084 -6.307,0.0107 -7.58716,4.9144 -0.71788,2.75 -1.96069,8.9 -2.76181,13.66667 -0.80112,4.76667 -1.81241,10.44341 -2.24731,12.615 -0.74601,3.72513 -0.34782,3.50878 7.04376,-3.82692 4.30896,-4.27639 12.18522,-11.43551 17.50279,-15.90917 z m 441.29419,185.6445 c 14.0635,-3.03106 19.0375,-5.32578 19.0375,-8.78287 0,-1.20889 -1.5291,-6.14507 -3.398,-10.96927 -3.8682,-9.98525 -12.7915,-19.35314 -23.0099,-24.15635 -3.3161,-1.55874 -11.1809,-6.28079 -17.4773,-10.49346 -6.2965,-4.21268 -13.4027,-8.847 -15.7916,-10.2985 l -4.3434,-2.63911 12.7118,-14.16673 c 8.4902,-9.46204 14.1667,-14.64695 17.0931,-15.61274 4.9335,-1.62821 12.9267,-9.379 15.8861,-15.40438 4.1339,-8.41666 10.412,-29.84495 10.1983,-34.80886 -0.2171,-5.04465 3.4724,-14.79802 20.3295,-53.74173 6.1153,-14.12776 6.4383,-21.22784 1.2829,-28.20086 -1.5482,-2.09398 -2.8148,-4.68799 -2.8148,-5.76446 0,-1.07646 -1.5344,-3.16413 -3.4097,-4.63925 -3.2825,-2.58199 -3.3322,-2.83184 -1.3333,-6.69723 1.1647,-2.25237 2.0763,-7.34089 2.0763,-11.59017 0,-7.14748 -0.3235,-7.89847 -5.7319,-13.30684 -7.2875,-7.28749 -10.9483,-8.18409 -21.6206,-5.29525 -13.6701,3.70034 -13.5067,3.4446 -14.5122,22.71132 -0.2297,4.4 -0.882,9.08578 -1.4496,10.41288 -0.7827,1.82996 -0.3278,2.59704 1.8832,3.17522 1.8529,0.48455 2.6448,1.46706 2.1732,2.69618 -0.4082,1.0636 -0.7421,2.80408 -0.7421,3.86773 0,1.06365 -1.05,2.36867 -2.3333,2.90001 -1.2834,0.53136 -5.7545,3.21202 -9.936,5.95704 -4.1814,2.74502 -8.1343,4.99094 -8.7841,4.99094 -2.0621,0 -25.6133,12.16764 -25.6133,13.23302 0,4.37388 21.2775,11.6845 36.3949,12.50471 12.4681,0.67648 17.8548,3.51867 21.9385,11.57529 9.6077,18.95501 -7.4921,38.87467 -26.9819,31.43143 -6.0148,-2.29707 -12.6848,-8.7017 -12.6848,-12.1801 0,-1.04373 -0.5349,-1.89769 -1.1886,-1.89769 -0.6538,0 -1.9808,3.98535 -2.949,8.85633 -2.0755,10.44198 -7.4231,18.71252 -12.8501,19.87416 -2.0235,0.4331 -5.7269,1.50106 -8.23,2.37323 l -4.5511,1.58577 -0.4878,12.65526 c -0.4547,11.79378 -1.7448,20.29937 -3.9509,26.0484 -0.7175,1.87001 -0.4271,2.21317 1.3093,1.54684 2.7323,-1.04846 2.8448,0.25774 0.3314,3.84618 -1.2104,1.72799 -1.4725,3.40484 -0.7222,4.61894 0.6479,1.04834 0.8503,3.21176 0.4498,4.8076 -0.5103,2.03337 0.078,3.33281 1.9652,4.34298 1.4814,0.79282 3.0325,2.49211 3.4469,3.77623 0.4145,1.28411 2.5426,3.34965 4.7292,4.59009 8.23,4.6689 12.2938,18.29788 7.1505,23.98118 -1.2177,1.34557 -1.9677,2.67694 -1.6667,2.9586 0.3011,0.28165 9.394,5.4297 20.2065,11.44011 10.8124,6.0104 19.964,11.42151 20.3368,12.02468 0.3727,0.60316 -3.2238,3.56072 -7.9924,6.57235 -4.7686,3.01163 -8.6701,6.04231 -8.6701,6.73485 0,1.33895 7.3625,3.70052 14,4.49055 2.2,0.26187 4.7331,0.56601 5.6291,0.67589 0.896,0.10987 7.496,-1.06469 14.6667,-2.61014 z m -59.0113,-45.59516 c 1.5267,-2.33003 1.7086,-4.13197 0.7534,-7.46256 -1.6403,-5.71945 -3.4463,-7.77635 -9.5717,-10.90128 -3.1847,-1.62472 -4.7856,-3.25125 -4.3409,-4.41032 0.4535,-1.18185 -0.8067,-2.36315 -3.5361,-3.31464 -4.287,-1.49443 -4.4757,-2.32548 -1.9312,-8.50612 0.6372,-1.54783 0.3515,-2.33331 -0.8487,-2.33324 -2.4154,1.2e-4 -2.0914,-8.25621 0.6109,-15.56697 1.2728,-3.44326 2.2153,-11.32708 2.4707,-20.66667 0.4123,-15.07515 0.4059,-15.11055 -3.9057,-21.69416 -2.3752,-3.62691 -4.3186,-7.40892 -4.3186,-8.40447 0,-0.99554 -3.2114,-5.82808 -7.1365,-10.73896 -3.9252,-4.91088 -9.6141,-12.70467 -12.6422,-17.31955 -6.4352,-9.80754 -6.1162,-11.21896 4.0096,-17.74192 3.4269,-2.20762 6.9504,-4.8809 7.8299,-5.94062 2.4041,-2.89673 3.6406,-2.37816 6.2407,2.61732 1.3009,2.49924 6.1379,7.89924 10.7489,12 6.9668,6.19578 9.2203,7.45787 13.3334,7.4675 2.7222,0.007 8.0869,0.38845 11.9214,0.84905 6.062,0.72817 7.0883,0.50916 7.8639,-1.67825 0.4906,-1.38364 2.3638,-4.50514 4.1628,-6.93663 1.7989,-2.43149 3.0602,-4.57569 2.8028,-4.76487 -1.113,-0.81808 -21.1056,-6.14756 -23.0614,-6.14756 -1.1863,0 -2.5378,-1.05 -3.0033,-2.33333 -0.4655,-1.28333 -2.5467,-4.51968 -4.6248,-7.19187 -2.2027,-2.83225 -3.7785,-6.50354 -3.7785,-8.80282 0,-5.01216 -4.8967,-12.3373 -10.0078,-14.97103 -5.2351,-2.69761 -7.3423,-5.51148 -6.0025,-8.01533 2.6316,-4.91762 2.9347,-14.55474 0.6722,-21.36675 -2.8458,-8.56776 -8.1442,-12.43329 -15.7654,-11.50189 -6.2471,0.76346 -9.6328,3.65669 -11.7151,10.01092 -0.8722,2.66132 -2.4478,6.16438 -3.5014,7.78458 -1.2036,1.85079 -1.5988,4.38883 -1.0631,6.82779 l 0.8527,3.88197 -10.1226,1.50555 c -5.5674,0.82805 -11.2246,1.50555 -12.5715,1.50555 -1.347,0 -3.2636,0.9816 -4.2593,2.18134 -0.9957,1.19974 -4.0646,3.60435 -6.8197,5.34359 -2.7551,1.73923 -6.6098,5.70763 -8.5659,8.81865 -1.9561,3.11103 -7.9448,10.38906 -13.3082,16.17339 -8.5165,9.18489 -10.1076,11.71812 -12.5617,20 -1.54553,5.21567 -4.5983,13.15385 -6.78394,17.64042 -4.15655,8.53235 -5.00835,15.31518 -3.49651,27.8426 0.44251,3.66667 1.39333,8.19887 2.11296,10.07156 1.20025,3.12348 0.90055,17.90807 -0.50319,24.82223 -0.3825,1.88401 -1.93356,3.18943 -4.44498,3.74103 -2.1216,0.46597 -6.77218,2.73954 -10.33459,5.05236 -8.60184,5.58454 -16.08523,8.97949 -19.79323,8.97949 -4.4537,0 -12.2356,3.57525 -13.18884,6.05937 -1.47952,3.85554 -0.9323,4.28706 6.63568,5.2326 4.70876,0.58832 9.72703,2.36771 13.59438,4.82031 3.37166,2.13824 7.13937,3.88772 8.37268,3.88772 2.92752,0 6.57622,-4.20671 4.31045,-4.96964 -2.51869,-0.84809 -0.41459,-4.36369 2.61169,-4.36369 1.50404,0 6.09383,-1.62356 10.19954,-3.60792 l 7.4649,-3.60794 -0.06,-6.7254 c -0.0329,-3.69897 -0.58189,-7.85544 -1.21974,-9.23658 -0.75255,-1.62948 -0.26967,-5.84279 1.37529,-12 1.39428,-5.21886 2.53919,-12.71842 2.54423,-16.6657 0.008,-5.75186 0.53252,-7.47268 2.64512,-8.66666 1.4498,-0.81939 3.2534,-2.25582 4.0081,-3.19204 0.917,-1.13759 5.5712,-1.76587 14.0307,-1.89406 14.4421,-0.21884 22.6813,2.47648 27.9056,9.1289 2.7649,3.52065 13.5319,8.33474 18.8539,8.42985 1.1555,0.0207 3.4798,-1.43021 5.1651,-3.22413 l 3.0642,-3.26168 5.6544,4.72645 c 5.2537,4.39157 5.7343,5.35483 6.7824,13.59501 1.8586,14.61188 1.3325,27.81194 -1.2209,30.63343 -1.2202,1.34835 -1.9394,2.73075 -1.5981,3.072 0.3412,0.34127 -0.119,3.59257 -1.0226,7.22513 -0.9037,3.63258 -1.4497,8.17306 -1.2132,10.08996 0.6339,5.13882 7.026,10.59923 13.4103,11.45554 3.9097,0.5244 6.561,1.98076 9.5144,5.22641 3.5977,3.95356 4.8956,4.49943 10.698,4.49943 5.4226,0 6.9636,-0.54938 8.6163,-3.07175 z M 396.88841,610.4934 c 3.07132,-2.4572 1.67377,-4.30826 -7.27754,-9.63903 -4.89369,-2.91433 -10.95354,-6.69399 -13.46636,-8.39923 -2.51281,-1.70524 -4.86601,-2.80317 -5.22933,-2.43985 -1.23476,1.23476 11.42681,18.79316 15.20939,21.09159 3.69958,2.24798 7.4547,2.03397 10.76384,-0.61348 z m 192.01947,-24.93266 c 2.3726,-5.09249 4.3139,-10.1003 4.3139,-11.12848 0,-1.02816 0.9685,-3.81089 2.1523,-6.18384 1.5656,-3.13844 1.9492,-6.37429 1.4071,-11.8715 -1.0417,-10.56454 -2.488,-20.22375 -3.0282,-20.22375 -1.5388,0 -15.0014,6.60343 -15.6709,7.6866 -0.4479,0.72471 0.1252,4.48152 1.2736,8.34849 2.1562,7.2608 1.6538,15.11466 -1.0747,16.80099 -0.8273,0.51131 -4.8466,1.17488 -8.9318,1.47463 -4.0852,0.29973 -7.7035,0.82088 -8.0407,1.15808 -0.6379,0.63788 21.3115,23.19788 22.57,23.19788 0.3936,0 2.6569,-4.16659 5.0294,-9.2591 z M 443.88841,574.08696 c 0,-3.95926 -13.49424,-20.60046 -16.70477,-20.60046 -0.93418,0 -2.91852,-2.06778 -4.40966,-4.59508 -2.57889,-4.37089 -11.26805,-10.07158 -15.35141,-10.07158 -1.04798,0 -3.18922,1.05 -4.75834,2.33333 -2.62114,2.14377 -2.7589,3.01393 -1.69564,10.71105 0.84056,6.08507 0.69951,9.26006 -0.51544,11.60188 -1.63536,3.15216 -1.53384,3.2412 4.54795,3.98823 3.42135,0.42025 11.92064,2.17865 18.88731,3.90756 12.57231,3.12004 20,4.13209 20,2.72507 z m 12.92527,-10.04464 c 3.27936,-1.4057 7.33946,-2.55582 9.02244,-2.55582 4.18758,0 11.82805,-3.3379 18.1908,-7.94705 6.17088,-4.47016 5.84418,-4.70819 -9.02486,-6.57521 -7.42806,-0.9327 -11.37974,-2.3543 -18.52696,-6.66499 -6.15598,-3.71284 -10.62849,-5.47941 -13.8725,-5.47941 -2.63312,0 -5.97102,-0.81351 -7.41751,-1.8078 -3.14976,-2.16508 -18.18542,-3.70306 -20.74383,-2.12186 -2.12275,1.31192 -2.33744,1.09952 5.85441,5.79191 3.52401,2.01857 7.00511,4.98224 7.73579,6.58592 0.73068,1.60367 3.04159,3.89893 5.13535,5.10059 4.33776,2.48953 15.99928,16.76722 16.15936,19.78457 0.0805,1.51868 0.27684,1.57223 0.81556,0.22248 0.39021,-0.97763 3.39259,-2.92763 6.67195,-4.33333 z M 400.75075,535.4809 c 2.92946,-1.91945 3.33179,-2.9482 2.69286,-6.88545 -0.71904,-4.43092 -0.59019,-4.61196 3.01346,-4.23396 2.07054,0.21719 4.63394,-0.32659 5.69643,-1.20837 1.4254,-1.18299 4.003,-1.26618 9.83275,-0.31736 4.34551,0.70725 8.9942,0.93892 10.33043,0.51481 1.352,-0.42911 3.49481,0.193 4.83152,1.40271 1.3211,1.19558 5.44694,2.65513 9.16852,3.24344 4.29572,0.67905 9.34782,2.83294 13.83576,5.89866 5.8682,4.00858 9.22133,5.17087 19.73593,6.84103 6.96667,1.1066 14.22783,2.38104 16.13592,2.83208 3.34433,0.79055 3.50007,0.55803 4.32456,-6.45717 1.19389,-10.15814 -0.90511,-15.00982 -10.36072,-23.94812 -6.26276,-5.92014 -10.06533,-8.30284 -16.76643,-10.50588 -4.76666,-1.56708 -12.23528,-5.2572 -16.59692,-8.20024 -4.36164,-2.94306 -10.9015,-6.1348 -14.53302,-7.09279 -6.94603,-1.83232 -13.67683,-7.26202 -18.35755,-14.80894 -1.45471,-2.34547 -3.77419,-4.62292 -5.15442,-5.06099 -1.38022,-0.43807 -4.07834,-3.47349 -5.9958,-6.74539 -1.91745,-3.27189 -4.95838,-6.91346 -6.75762,-8.09236 -1.79923,-1.1789 -3.27134,-2.99286 -3.27134,-4.03101 0,-1.03816 -2.4,-6.12287 -5.33333,-11.29937 -6.19913,-10.9397 -7.09141,-16.73476 -2.33333,-15.15416 1.65,0.54813 8.66498,0.86202 15.58886,0.69756 9.90812,-0.23536 14.87562,-1.10826 23.32753,-4.09915 l 10.73865,-3.80011 2.98289,2.8023 c 1.6406,1.54125 3.33364,3.90738 3.76234,5.25806 1.29598,4.08328 3.5618,2.83602 2.6219,-1.44328 -1.96104,-8.92852 6.78318,-22.57904 15.935,-24.876 1.84675,-0.4635 3.02647,-1.37873 2.62159,-2.03384 -0.94417,-1.52772 -8.1954,-1.55674 -9.13492,-0.0365 -0.39244,0.63499 -2.16252,0.87753 -3.93351,0.53899 -2.34905,-0.44906 -4.65534,0.68122 -8.52676,4.17881 -6.11234,5.52213 -10.23436,6.00197 -25.22973,2.93696 -4.99795,-1.02157 -12.47406,-2.25685 -16.61358,-2.74509 -7.35429,-0.86739 -7.63632,-1.05706 -12.33333,-8.29382 -2.64381,-4.07337 -4.80693,-8.59808 -4.80693,-10.05492 0,-1.45682 -2.04,-4.68878 -4.53334,-7.18212 -3.47654,-3.47654 -5.65229,-4.53333 -9.33333,-4.53333 -3.86247,0 -4.8,-0.50548 -4.8,-2.58797 0,-1.42339 -0.57553,-2.94368 -1.27896,-3.37842 -0.74741,-0.46193 -0.93604,-4.51214 -0.45387,-9.74536 0.60207,-6.53458 1.49036,-9.42726 3.28656,-10.70251 9.79179,-6.95196 7.74358,-23.28506 -4.28249,-34.14988 -4.90148,-4.42819 -5.77843,-4.72148 -13.58876,-4.54468 -10.011,0.22661 -13.82201,1.47294 -18.68248,6.10977 -3.15037,3.00543 -3.66667,4.55341 -3.66667,10.99367 0,4.52658 0.77543,8.5209 1.9576,10.08388 1.07667,1.42349 1.97667,4.04557 2,5.82684 0.0233,1.78126 0.73295,5.14836 1.57696,7.48242 2.16954,5.99973 -1.57194,11.15287 -8.20122,11.29553 -6.56543,0.14128 -13.3372,2.8097 -22.99837,9.0625 -4.58422,2.96696 -12.38497,7.0444 -17.33497,9.06098 -4.95,2.01659 -9,4.07752 -9,4.57987 0,0.50235 -1.8,3.17835 -4,5.94669 -5.86419,7.37912 -5.51217,13.71538 1.33333,24 2.92867,4.4 5.32676,9.08206 5.3291,10.40458 0.005,3.24864 -6.34051,11.10309 -11.66243,14.43405 -4.65519,2.91365 -5.84937,5.86884 -1.96063,4.85192 1.30499,-0.34127 3.12864,0.18876 4.05256,1.17781 2.54318,2.72247 4.09378,2.22208 8.48531,-2.73824 l 4.01635,-4.53653 2.73941,2.73941 c 2.64596,2.64596 2.80072,2.65558 4.53655,0.28171 0.98841,-1.3518 1.79712,-3.24309 1.79712,-4.20293 0,-0.95984 0.82653,-1.74516 1.83674,-1.74516 1.0102,0 2.51402,-0.81607 3.3418,-1.81348 0.85772,-1.03351 2.93838,-1.5395 4.83759,-1.17644 3.51783,0.67248 7.79527,-1.82452 6.55716,-3.82783 -0.40187,-0.65024 -2.34527,-1.18635 -4.31865,-1.19136 -3.83238,-0.01 -9.58798,-6.68215 -9.58798,-11.11524 0,-1.26097 -0.9,-2.63804 -2,-3.06015 -1.3721,-0.52653 -2,-2.67124 -2,-6.83148 0,-5.79024 0.11014,-5.96437 2.43832,-3.85734 1.34108,1.21366 4.19108,2.21584 6.33334,2.22706 6.40308,0.0336 9.34734,3.57975 10.32301,12.43343 0.29228,2.65232 1.29812,5.74621 2.2352,6.87532 1.85463,2.23469 4.22814,11.35251 4.33968,16.67084 0.0384,1.83333 -1.46606,6.63333 -3.34336,10.66667 -3.98397,8.55953 -7.99607,31.0035 -7.40439,41.42086 l 0.41154,7.2458 7.15447,0.40837 c 3.93494,0.2246 9.7346,-0.14192 12.88812,-0.8145 7.99976,-1.70619 9.0387,-0.72698 7.328,6.90654 -1.05146,4.69184 -0.99688,7.01811 0.21633,9.2206 0.89241,1.62011 1.46572,6.10116 1.27401,9.9579 -0.26565,5.34442 0.14548,7.20182 1.72859,7.80932 1.22783,0.47116 2.07715,2.3973 2.07715,4.7107 0,2.15248 0.63194,4.6383 1.40432,5.52402 0.77237,0.8857 2.42237,3.64709 3.66666,6.13638 2.00872,4.01862 3.41234,4.85279 12.52032,7.44087 5.64188,1.60317 11.11614,3.62707 12.165,4.49756 1.04888,0.87048 6.63279,3.63884 12.4087,6.15189 l 10.50166,4.5692 0.37583,-14.46725 c 0.36097,-13.89561 0.51192,-14.55643 3.81985,-16.72387 z m 160.47103,28.67227 c 0,-1.46667 -0.6,-2.66667 -1.3334,-2.66667 -0.7333,0 -1.3333,0.25094 -1.3333,0.55762 0,0.30669 -0.3642,1.50669 -0.8093,2.66666 -0.5311,1.38399 -0.073,2.10906 1.3333,2.10906 1.2538,0 2.1427,-1.10628 2.1427,-2.66667 z m 7.5173,-1.66667 -0.816,-4.33333 2.2915,3.66667 c 2.775,4.44036 6.2865,5.03081 4.9542,0.83302 -0.6052,-1.90685 -0.4166,-2.53524 0.5768,-1.9213 2.0708,1.27984 1.8168,-1.36123 -0.998,-10.37856 -1.6998,-5.44522 -3.7067,-8.79542 -6.6471,-11.09664 l -4.2121,-3.29647 v 6.67651 c 0,3.67208 -0.5776,8.19581 -1.2836,10.05273 -1.7527,4.60988 2.0693,14.13071 5.6725,14.13071 0.7201,0 0.9217,-1.8913 0.4618,-4.33334 z M 298.12956,549.64146 c 9.15987,-6.63537 12.67224,-17.37637 9.14998,-27.98096 -4.04587,-12.18093 -16.49672,-19.59557 -27.41324,-16.3249 -7.8343,2.34721 -14.09084,8.46237 -16.70236,16.3249 -3.52227,10.60459 -0.009,21.34559 9.14997,27.98096 4.37233,3.1673 6.64752,3.84504 12.90783,3.84504 6.2603,0 8.53549,-0.67774 12.90782,-3.84504 z m 46.14759,-5.15496 c -1.19653,-3.24301 -3.45613,-4.5002 -4.66646,-2.59628 -1.91791,3.01694 -1.05039,4.92962 2.23588,4.92962 2.57381,0 3.10377,-0.50875 2.43058,-2.33334 z m -10.65336,-7.2709 c 1.40188,-2.89458 1.67039,-5.01472 0.8332,-6.57902 -0.67938,-1.26945 -1.23525,-3.79988 -1.23525,-5.62314 0,-2.59258 -0.86391,-3.5048 -3.96396,-4.18568 -2.18017,-0.47886 -5.54299,-2.74722 -7.47292,-5.0408 -2.85136,-3.38866 -3.38176,-5.11854 -2.8302,-9.23068 l 0.67876,-5.06051 -4.87251,0.77599 c -9.55552,1.52182 -12.98297,-6.52742 -10.97671,-25.77828 l 0.86775,-8.32636 -4.55596,-0.85471 c -3.29571,-0.61828 -6.2086,-0.0517 -10.53052,2.04798 -13.32964,6.47604 -57.18283,45.99122 -57.27311,51.60758 -0.0223,1.3852 0.54895,3.26581 1.26936,4.17916 1.22806,1.55693 19.86412,12.33937 21.32704,12.33937 0.36964,0 0.37576,-2.62885 0.0136,-5.84189 -1.27085,-11.27493 5.2789,-23.86541 15.55912,-29.90908 8.41986,-4.94996 20.76568,-5.05028 29.3669,-0.23861 10.60568,5.93298 17.14611,19.28876 15.64649,31.95065 l -0.77756,6.56531 6.26222,0.49648 c 3.44421,0.27306 7.23725,0.60464 8.429,0.73681 1.25642,0.13936 3.03585,-1.55408 4.23525,-4.03057 z m 298.50459,-21.97046 c 5.7214,-1.1549 9.0715,-5.9998 11.8575,-17.14849 1.4248,-5.70161 2.4357,-10.50324 2.2465,-10.67025 -0.3213,-0.28371 -15.4801,-2.6766 -26.5912,-4.19757 -4.8385,-0.66235 -14.4194,1.58714 -14.4194,3.38551 0,0.50658 2.4012,3.8269 5.3361,7.3785 2.9348,3.55158 7.1866,10.3349 9.4484,15.07402 3.2088,6.72342 4.5997,8.42798 6.3306,7.75808 1.22,-0.47218 3.8262,-1.18309 5.7915,-1.5798 z M 334.11063,505.4865 c 0,-4.4 -0.45093,-8 -1.00206,-8 -3.03847,0 -5.2602,2.08128 -6.62,6.20151 -1.30052,3.94063 -1.17975,5.01808 0.80882,7.21543 1.28571,1.42068 3.34466,2.58306 4.57544,2.58306 1.8462,0 2.2378,-1.39996 2.2378,-8 z m 165.96683,-22.86171 c 3.35283,-5.2341 3.93554,-7.80495 1.76911,-7.80495 -1.07699,0 -1.95816,0.75749 -1.95816,1.68333 0,0.92583 -3,6.10892 -6.66667,11.51799 -3.66666,5.40906 -6.66666,10.4054 -6.66666,11.10294 0,0.69756 1.33016,2.34539 2.9559,3.66184 l 2.95592,2.39355 2.80014,-9.70821 c 1.54008,-5.33951 3.70477,-11.12044 4.81042,-12.84649 z m 185.60862,18.04334 c 13.3646,-9.74956 7.5091,-31.64322 -8.9595,-33.49948 -7.1165,-0.80213 -14.3823,2.94614 -17.5372,9.04703 -4.6445,8.98164 -0.6319,22.24266 7.8997,26.10669 5.2605,2.38255 14.1469,1.59208 18.597,-1.65424 z M 480.69336,494.4865 c 1.21372,-2.38333 4.1364,-7.03333 6.49485,-10.33333 4.12509,-5.77194 10.49612,-19.88312 15.40027,-34.11004 1.28478,-3.72718 5.43585,-13.62718 9.2246,-22 3.7887,-8.37281 7.6679,-17.02329 8.6204,-19.22329 1.9123,-4.41687 5.4775,-19.33576 6.8506,-28.66667 0.4856,-3.3 1.8128,-9.3 2.9493,-13.33333 1.1365,-4.03333 2.4239,-11.39149 2.8607,-16.35147 l 0.7943,-9.01814 3.4828,3.68481 c 3.6035,3.8125 24.4253,11.13729 44.5172,15.66049 5.1334,1.15564 11.8515,3.05324 14.9293,4.21687 3.7014,1.39944 7.3126,1.81317 10.6667,1.22211 8.4501,-1.48916 11.5227,-1.31051 16.5596,0.96281 3.8786,1.75055 5.2605,1.85599 7.0618,0.53887 1.9754,-1.44443 1.2532,-2.33315 -6.1223,-7.5345 -7.5049,-5.2926 -9.2066,-5.92369 -16.6057,-6.15812 -10.9023,-0.34542 -19.1907,-3.23314 -38.7158,-13.48885 -17.3557,-9.11617 -22.0845,-12.43844 -34.1069,-23.9618 l -7.6667,-7.34845 v -8.05488 c 0,-7.39728 -0.3612,-8.39428 -4.4241,-12.21231 -4.1734,-3.92173 -26.70428,-16.85474 -32.65143,-18.74229 -3.79377,-1.20409 -5.11208,-7.91272 -2.37561,-12.08909 2.78382,-4.24867 2.67162,-6.2288 -0.54883,-9.68556 -1.46667,-1.57428 -2.66667,-3.52283 -2.66667,-4.33009 0,-0.80728 -0.64038,-1.072 -1.42308,-0.58827 -0.7836,0.48429 -1.7522,-0.37907 -2.1555,-1.92131 -0.40284,-1.54045 -1.72318,-2.80082 -2.93408,-2.80082 -1.21091,0 -4.38672,-1.4848 -7.05738,-3.29955 -2.67065,-1.81476 -7.37222,-3.86497 -10.44794,-4.55605 -6.37042,-1.43134 -19.64763,-0.4308 -20.88664,1.57396 -0.52088,0.8428 0.47954,1.00944 2.70576,0.45069 4.82396,-1.21073 4.47529,0.30757 -0.46622,2.03019 -2.19913,0.76662 -3.71857,1.84666 -3.37653,2.4001 0.34204,0.55343 -0.53609,3.27756 -1.9514,6.05363 l -2.57331,5.04737 -4.3835,-4.58158 c -2.41094,-2.51988 -7.56888,-8.30246 -11.46213,-12.85018 l -7.07861,-8.26858 h -11.65472 c -11.53401,0 -15.31327,-1.2536 -14.01091,-4.64752 0.42832,-1.11616 -1.33774,-1.87831 -5.41829,-2.33824 -7.19176,-0.81062 -12.19989,-3.81164 -15.21985,-9.1202 -1.21312,-2.13244 -2.53519,-3.88098 -2.93794,-3.88562 -1.46766,-0.0169 0.34119,10.13455 2.75683,15.47167 3.39856,7.50873 8.59241,11.50459 25.83416,19.87529 14.43183,7.00652 15.00996,7.46204 25.60617,20.17543 l 10.84098,13.00705 -1.88445,4.51011 c -1.26426,3.02578 -1.59172,6.55748 -0.995,10.73106 1.01348,7.08863 4.35324,20.40616 4.48584,17.88763 0.14718,-2.7956 2.23712,-1.86256 3.87372,1.7294 2.48077,5.44468 1.82221,9.72399 -2.45264,15.93727 -5.14986,7.48504 -5.08566,9.33562 0.1156,3.33333 3.6507,-4.21293 3.95502,-4.34257 3.12986,-1.33333 -0.50272,1.83333 -2.66678,5.95516 -4.80904,9.15961 -2.14226,3.20445 -3.63396,6.08733 -3.31489,6.40641 0.8474,0.84739 9.4866,-10.1262 12.24777,-15.5572 2.13482,-4.19901 2.4703,-4.39604 3.40566,-2 0.88057,2.25567 1.05174,2.30478 1.13128,0.32451 0.0516,-1.28333 0.7579,-2.33333 1.5697,-2.33333 0.81179,0 1.19414,0.75 0.84964,1.66666 -0.34449,0.91667 -1.0404,3.16667 -1.54646,5 l -0.92011,3.33334 2.88389,-3.32896 c 3.80138,-4.388 2.94126,-12.20816 -2.64017,-24.00438 -4.96127,-10.48552 -5.38601,-14.84982 -0.68125,-7 1.86796,3.11667 3.95346,5.66667 4.63445,5.66667 0.68099,0 0.0492,-1.95 -1.40392,-4.33333 -1.45315,-2.38334 -2.64433,-6.08792 -2.64707,-8.23242 l -0.005,-3.89909 3.48185,3.23243 c 1.91503,1.77782 5.73912,6.53241 8.498,10.56574 2.75888,4.03334 9.65108,12.73334 15.31599,19.33334 14.91776,17.38018 14.72251,16.77342 12.79623,39.76565 -0.0507,0.60444 -3.3807,4.54676 -7.40012,8.7607 -9.30723,9.75766 -15.0146,24.14704 -8.7946,22.1729 3.86322,-1.22615 20.92925,8.31614 25.77302,14.41072 11.518,14.49229 3.67295,35.86389 -13.89161,37.84366 -5.62692,0.63424 -11.93617,-1.23381 -17.18232,-5.08738 -1.66605,-1.2238 -2.86333,-0.72756 -6.13271,2.54181 -2.55666,2.55667 -5.9902,4.36196 -9.26312,4.8704 -8.45026,1.31275 -29.01663,6.23788 -31.45319,7.53227 -2.04662,1.08724 -1.94262,1.67005 1.13752,6.37458 1.86455,2.84786 4.6782,5.87039 6.25258,6.71672 1.57436,0.84634 4.24309,3.65288 5.93051,6.23678 l 3.06802,4.698 9.59864,-0.28027 c 5.27926,-0.15415 9.74864,0.1076 9.93198,0.58159 1.16281,3.00654 -0.0597,6.43914 -2.66667,7.48698 -2.54919,1.02464 -2.6232,1.21855 -0.49257,1.29036 1.37908,0.0465 5.54113,2.26403 9.249,4.92785 7.48469,5.37723 16.35724,9.74924 19.876,9.79406 1.26994,0.0161 3.2869,-1.91047 4.50585,-4.30406 z m 125.06712,-16.33333 c 4.1455,-1.83333 8.6812,-3.33333 10.0794,-3.33333 1.9714,0 1.0748,-1.50639 -3.9945,-6.71087 l -6.5366,-6.71086 -5.0631,3.1962 c -8.2817,5.228 -8.8805,6.51957 -5.6005,12.07889 1.562,2.64732 3.006,4.81331 3.209,4.81331 0.203,0 3.7608,-1.5 7.9063,-3.33334 z m -96.8443,-12.41666 c 0.33134,-0.994 -1.00242,-1.58334 -3.58333,-1.58334 -4.41532,0 -5.62004,2.08218 -1.77777,3.0726 3.18188,0.8202 4.7351,0.38874 5.3611,-1.48926 z M 436.20949,437.4952 c 4.59007,-0.79555 9.89717,-2.05497 11.79356,-2.79873 l 3.44796,-1.35231 -4.39475,-4.79795 -4.39473,-4.79793 -9.71989,3.14924 c -6.33642,2.053 -12.47122,3.07959 -17.62374,2.94913 -4.34712,-0.11 -8.98791,0.38007 -10.31287,1.08918 -2.26669,1.21308 -2.20034,1.66302 1.12271,7.61492 l 3.53175,6.32565 9.1022,-2.96739 c 5.00621,-1.63206 12.85772,-3.61828 17.4478,-4.41381 z m 46.293,-2.14323 c 7.79807,-3.12016 11.20803,-9.28676 10.41609,-18.83652 -0.5223,-6.29833 -1.28126,-8.0677 -4.81482,-11.22494 -5.05874,-4.51998 -9.2885,-5.73306 -15.75807,-4.51936 -6.15167,1.15406 -11.74693,6.70172 -13.85469,13.7368 -1.48458,4.95506 -1.33974,6.06014 1.54637,11.79825 2.08163,4.13864 4.79324,7.17075 7.83024,8.75571 5.69744,2.9734 7.82328,3.01553 14.63488,0.29006 z M 308.26091,409.43363 c -0.39115,-1.49576 -1.00911,-2.42164 -1.37323,-2.05751 -0.72133,0.72132 0.55279,4.77705 1.50072,4.77705 0.32103,0 0.26366,-1.2238 -0.12746,-2.71954 z m 132.96083,-81.94712 c 0,-1.1 -0.23581,-2 -0.52401,-2 -0.28821,0 -0.86937,0.9 -1.29149,2 -0.42211,1.1 -0.1863,2 0.52401,2 0.71032,0 1.29149,-0.9 1.29149,-2 z m -49.3314,-117.54657 c 4.85652,-2.86881 9.3314,-10.91143 9.3314,-16.77112 0,-10.05355 -11.22737,-19.5411 -20.96313,-17.71465 -9.59647,1.80031 -16.8438,13.31812 -14.43047,22.93358 0.49493,1.97199 3.19039,5.87594 5.98988,8.67543 4.28703,4.28703 5.97624,5.09 10.7078,5.09 3.0898,0 7.30383,-0.99596 9.36452,-2.21324 z"
              style="fill:#ffffff;stroke-width:1.33333" />
	</g>
</svg>
