<?xml version="1.0" encoding="UTF-8" standalone="no"?>
<svg width="150" height="150" viewBox="0 0 150 150" version="1.1" id="svg37189" xmlns="http://www.w3.org/2000/svg" xmlns:svg="http://www.w3.org/2000/svg">
    <defs id="defs37193"/>
    <g id="svgGroup" stroke-linecap="round" fill-rule="evenodd" font-size="12px" stroke="#ffffff" stroke-width="0.25mm" fill="#ffffff" style="fill:#ffffff;stroke:#ffffff;stroke-width:0.25mm" transform="translate(46.663559,40.35)">
        <path d="M 56.3,69.3 H 41.4 A 114.961,114.961 0 0 0 38.222,64.673 144.56,144.56 0 0 0 35.4,60.9 Q 32,56.5 28.25,52.4 24.5,48.3 20.5,44.6 A 78.524,78.524 0 0 0 15.662,40.462 63.755,63.755 0 0 0 12.6,38.2 V 69.3 H 0 V 0 h 12.6 v 28.6 q 3.3,-3.3 6.9,-7.05 3.6,-3.75 7.15,-7.6 Q 30.2,10.1 33.4,6.5 36.6,2.9 39.2,0 H 54.3 A 535.455,535.455 0 0 1 49.125,5.869 614.698,614.698 0 0 1 47.3,7.9 q -3.7,4.1 -7.6,8.25 -3.9,4.15 -7.85,8.25 -3.95,4.1 -7.75,7.8 4.2,3.2 8.55,7.45 a 149.86,149.86 0 0 1 8.517,9.062 160.238,160.238 0 0 1 0.033,0.038 q 4.2,4.85 8.05,10.1 a 157.426,157.426 0 0 1 6.24,9.149 143.054,143.054 0 0 1 0.81,1.301 z" vector-effect="non-scaling-stroke" id="path37186"/>
    </g>
</svg>
