<?xml version="1.0" encoding="UTF-8" standalone="no"?>
<svg
   xmlns="http://www.w3.org/2000/svg"
   id="svg6"
   version="1.1"
   viewBox="0 0 40.675419 35.334812"
   height="100%"
   width="100%">
  <defs
     id="defs3" />
  <g
     transform="translate(-9.1146344,-7.99108)"
     id="layer1">
    <g
       transform="translate(-78.925348,-101.2098)"
       id="g119">
      <path
         id="path141"
         d="m 104.23206,137.52536 c -0.39953,-0.42363 -0.35496,-0.51615 0.117,-0.24287 0.59393,0.3439 0.70342,0.42742 0.64152,0.48932 -0.1479,0.1479 -0.49205,0.0361 -0.75852,-0.24645 z m 2.88984,-2.24468 c -0.2794,-0.0885 -0.7366,-0.18981 -1.016,-0.22511 l -0.508,-0.0642 -0.0244,-0.68819 c -0.0269,-0.75699 0.0109,-0.81594 0.44776,-0.69836 0.29027,0.0781 1.82033,1.52832 1.82033,1.72531 0,0.15771 -0.0839,0.15195 -0.71966,-0.0495 z m -2.413,-0.52894 c -0.11642,-0.0483 -0.54457,-0.24885 -0.95145,-0.44564 -0.40687,-0.19679 -0.89112,-0.38338 -1.0761,-0.41463 -0.28758,-0.0486 -0.36749,-0.11259 -0.55139,-0.44162 -0.11828,-0.21164 -0.21506,-0.46763 -0.21506,-0.56886 0,-0.10124 -0.0476,-0.2319 -0.10584,-0.29036 -0.0582,-0.0585 -0.1146,-0.28516 -0.12531,-0.50377 -0.0107,-0.21861 -0.0325,-0.6745 -0.0483,-1.01308 -0.0159,-0.33858 -0.0681,-0.65485 -0.11606,-0.70281 -0.0975,-0.0976 -0.14182,-0.0991 -1.06495,-0.0373 l -0.65617,0.0439 v -0.37102 c 0,-0.64452 0.31527,-2.19257 0.54985,-2.69988 l 0.22567,-0.48805 -0.14084,-0.56161 c -0.0775,-0.30889 -0.17288,-0.62267 -0.21202,-0.69729 -0.0391,-0.0746 -0.11751,-0.31809 -0.17415,-0.54105 -0.10363,-0.40793 -0.39688,-0.73762 -0.656084,-0.73762 -0.07191,0 -0.259348,-0.0465 -0.416539,-0.10335 -0.238763,-0.0863 -0.298764,-0.0829 -0.364549,0.0212 -0.189331,0.29937 -0.0072,0.87797 0.501029,1.59172 l 0.177983,0.24995 -0.294365,0.13969 c -0.161901,0.0768 -0.334114,0.21395 -0.382696,0.30473 -0.07428,0.1388 -0.114405,0.14876 -0.252283,0.0627 -0.139631,-0.0872 -0.199605,-0.0682 -0.404279,0.12786 -0.132179,0.12664 -0.333491,0.22888 -0.44736,0.2272 l -0.207034,-0.003 0.230079,-0.18844 c 0.348345,-0.2853 0.658921,-0.74505 0.658921,-0.97541 0,-0.11314 -0.1524,-0.43393 -0.338667,-0.71287 -0.350258,-0.52451 -0.417514,-0.85352 -0.243654,-1.19192 0.183831,-0.35782 0.533352,-0.65179 0.968529,-0.81462 0.241814,-0.0905 0.730942,-0.35464 1.086953,-0.58705 0.509986,-0.33292 0.750156,-0.435 1.132236,-0.48119 0.5379,-0.065 0.65233,-0.12987 0.82764,-0.46889 0.0961,-0.18588 0.10191,-0.32898 0.0292,-0.7223 -0.0499,-0.26977 -0.14442,-0.56723 -0.21012,-0.66103 -0.0657,-0.0938 -0.11945,-0.34543 -0.11945,-0.55919 0,-0.58917 0.27583,-0.81128 1.10067,-0.88629 0.57437,-0.0522 0.65749,-0.04 0.87064,0.12779 0.277,0.21811 0.65336,0.92019 0.65336,1.21884 0,0.30604 -0.14613,0.63972 -0.35379,0.80787 -0.25731,0.20836 -0.35532,1.06672 -0.18041,1.58004 0.11147,0.32714 0.157,0.37208 0.37703,0.37208 0.41686,0 0.73346,0.21809 0.83045,0.57207 0.0478,0.17431 0.22871,0.5358 0.40211,0.8033 0.25008,0.38581 0.36845,0.49348 0.57244,0.52075 0.14144,0.0189 0.65722,0.0956 1.14617,0.17038 1.30084,0.19902 1.44623,0.18642 1.86266,-0.1615 0.19508,-0.16298 0.38919,-0.29633 0.43135,-0.29633 0.12743,0 0.0865,0.13416 -0.0895,0.29345 -0.0914,0.0827 -0.21029,0.28862 -0.26423,0.45762 -0.11755,0.36823 -0.20782,0.48141 -0.28473,0.35697 -0.0913,-0.14773 -0.45482,-0.10758 -1.12724,0.12451 -0.44165,0.15244 -0.7694,0.21042 -1.10703,0.19586 -0.26379,-0.0114 -0.56391,0.008 -0.66693,0.0421 -0.10343,0.0347 -0.26455,0.0215 -0.35983,-0.0295 -0.23722,-0.12695 -0.5112,0.0282 -0.5112,0.28947 0,0.1103 0.13014,0.4308 0.28921,0.71222 0.15906,0.28141 0.31635,0.5994 0.34953,0.70663 0.0332,0.10723 0.22222,0.36932 0.42008,0.58242 0.19787,0.21309 0.38543,0.46832 0.4168,0.56716 0.0314,0.0988 0.12582,0.20156 0.20989,0.22824 0.0841,0.0267 0.32548,0.27081 0.53647,0.5425 0.37191,0.47891 0.93692,0.85698 1.28073,0.85698 0.081,0 0.37564,0.15511 0.6548,0.34467 0.27915,0.18957 0.709,0.41399 0.95523,0.4987 0.65988,0.22703 0.90169,0.37253 1.29584,0.77968 0.43537,0.44973 0.54553,0.72514 0.48033,1.20084 l -0.0503,0.36672 -0.47716,-0.11231 c -0.26244,-0.0618 -0.61051,-0.11375 -0.77349,-0.1155 -0.29682,-0.003 -0.6853,-0.16515 -1.30451,-0.54388 -0.18196,-0.1113 -0.50265,-0.22812 -0.71263,-0.25961 -0.20998,-0.0315 -0.47272,-0.11683 -0.58386,-0.18965 -0.16691,-0.10937 -0.37274,-0.12326 -1.18283,-0.0799 -0.53942,0.0289 -1.00076,0.0726 -1.0252,0.097 -0.0244,0.0244 -0.0394,0.17784 -0.0333,0.34089 0.009,0.22787 -0.0366,0.32772 -0.19506,0.43157 -0.19196,0.12577 -0.20786,0.1922 -0.23025,0.96152 l -0.024,0.82641 z m 5.24933,-8.07059 c -0.5357,-0.17638 -0.762,-0.48222 -0.762,-1.02981 0,-0.59058 0.53968,-1.02339 1.13648,-0.91143 0.70618,0.13248 0.99754,1.14548 0.4787,1.66432 -0.13612,0.13612 -0.30445,0.24749 -0.37408,0.24749 -0.0696,0 -0.17733,0.016 -0.23934,0.0356 -0.062,0.0196 -0.16991,0.0168 -0.23976,-0.006 z"
         style="fill:#29c4fa;stroke-width:0.0846667" />
      <path
         id="path137"
         d="m 104.62423,137.9318 c -0.2913,-0.093 -1.02359,-0.97138 -0.90701,-1.08797 0.0737,-0.0737 1.37268,0.77117 1.37268,0.89276 0,0.13424 -0.28387,0.25324 -0.46567,0.19521 z m 0.36635,-0.15999 c 0.0619,-0.0619 -0.0476,-0.14542 -0.64152,-0.48932 -0.47196,-0.27328 -0.51653,-0.18076 -0.117,0.24287 0.26647,0.28253 0.61062,0.39435 0.75852,0.24645 z m 2.25187,-2.36126 c -0.2131,-0.0657 -0.68935,-0.17023 -1.05834,-0.23239 l -0.67088,-0.11301 -0.0556,-0.62955 c -0.0674,-0.76281 -0.0337,-0.91087 0.22144,-0.97491 0.29435,-0.0739 0.67623,0.16377 1.42126,0.88449 1.11086,1.07461 1.15109,1.37624 0.1421,1.06537 z m 0.59911,-0.0804 c 0,-0.19699 -1.53006,-1.64717 -1.82033,-1.72531 -0.43683,-0.11758 -0.47462,-0.0586 -0.44776,0.69836 l 0.0244,0.68819 0.508,0.0642 c 0.2794,0.0353 0.7366,0.1366 1.016,0.22511 0.63579,0.20141 0.71966,0.20717 0.71966,0.0495 z m -3.87218,-0.80156 c -0.47658,-0.22738 -1.06842,-0.47211 -1.31519,-0.54385 -0.40202,-0.11687 -0.46819,-0.17059 -0.63632,-0.51665 -0.1032,-0.21243 -0.18764,-0.45379 -0.18764,-0.53636 0,-0.0826 -0.0462,-0.19633 -0.10265,-0.25279 -0.10434,-0.10434 -0.22686,-0.94955 -0.26005,-1.79388 l -0.0183,-0.46567 -0.86783,0.0309 -0.867837,0.0309 v -0.50279 c 0,-0.75951 0.241966,-2.04201 0.482847,-2.55921 0.2393,-0.51383 0.23476,-0.93199 -0.0175,-1.61577 -0.077,-0.20862 -0.1707,-0.52629 -0.208262,-0.70593 -0.0836,-0.39981 -0.30848,-0.63727 -0.688754,-0.72729 -0.158371,-0.0375 -0.345098,-0.0824 -0.414948,-0.0998 -0.0917,-0.0228 -0.133708,0.0507 -0.151134,0.2647 -0.03512,0.43124 0.36933,1.19136 0.720802,1.35467 0.329703,0.15319 0.353964,0.254 0.06113,0.254 -0.286278,0 -0.688082,0.21397 -0.802192,0.42719 -0.07527,0.14063 -0.144162,0.1616 -0.38351,0.1167 -0.187365,-0.0352 -0.29176,-0.0218 -0.29176,0.0374 0,0.0507 -0.09011,0.15118 -0.200239,0.22334 -0.155161,0.10166 -0.25236,0.11138 -0.431772,0.0432 l -0.231532,-0.088 0.42562,-0.40105 c 0.598282,-0.56375 0.623004,-0.74313 0.193314,-1.40264 -0.457473,-0.70216 -0.469371,-1.05885 -0.05349,-1.60352 0.222243,-0.29106 0.397629,-0.42001 0.71432,-0.5252 0.230864,-0.0767 0.660283,-0.29532 0.954265,-0.48586 0.722832,-0.46849 1.153352,-0.65542 1.514582,-0.65764 0.21001,-0.001 0.36231,-0.0653 0.4972,-0.20885 0.17684,-0.18824 0.18915,-0.25654 0.1359,-0.75384 -0.0322,-0.30077 -0.11187,-0.6172 -0.17701,-0.70318 -0.0651,-0.086 -0.11965,-0.34787 -0.12113,-0.58199 -0.005,-0.74919 0.38184,-1.056 1.33058,-1.056 0.55934,0 0.59037,0.0111 0.88388,0.3175 0.45519,0.47512 0.60274,0.82253 0.55598,1.30914 -0.0293,0.30487 -0.10291,0.47925 -0.28067,0.66479 -0.20138,0.21019 -0.24657,0.3395 -0.27507,0.78713 -0.0442,0.69427 0.12705,1.0701 0.48761,1.0701 0.31785,0 0.73032,0.34913 0.79509,0.67298 0.0278,0.13913 0.18745,0.45909 0.35473,0.71103 l 0.30414,0.45807 0.65102,0.0891 c 0.35806,0.049 0.96498,0.13753 1.34872,0.19675 0.67445,0.1041 0.70549,0.10146 0.93133,-0.0792 0.44625,-0.35702 0.57429,-0.42047 0.93904,-0.46531 l 0.36674,-0.0451 -0.34779,0.29771 c -0.39031,0.33408 -0.59736,0.67764 -0.59736,0.99117 0,0.28478 -0.11501,0.33656 -0.29814,0.1342 -0.1953,-0.2158 -0.30935,-0.211 -1.03829,0.0437 -0.49174,0.17181 -0.78716,0.2142 -1.59009,0.2282 -0.75174,0.0131 -0.99688,0.0451 -1.0313,0.13486 -0.0433,0.11284 0.45469,1.17429 0.59023,1.25806 0.0361,0.0223 0.0656,0.1007 0.0656,0.17424 0,0.0735 0.15325,0.29995 0.34055,0.50315 0.1873,0.2032 0.38201,0.46045 0.43269,0.57167 0.0507,0.11122 0.18447,0.25163 0.29734,0.31204 0.11286,0.0604 0.28281,0.23538 0.37765,0.38884 0.26291,0.4254 0.80391,0.84754 1.15891,0.90431 0.17312,0.0277 0.57752,0.22291 0.89866,0.43384 0.32115,0.21093 0.74005,0.42552 0.93089,0.47686 0.19084,0.0513 0.44223,0.14401 0.55864,0.20594 0.34021,0.18097 1.08633,0.92159 1.18203,1.1733 0.11125,0.29258 0.11479,1.04045 0.005,1.10814 -0.0455,0.0281 -0.23304,0.0106 -0.41678,-0.0388 -0.18373,-0.0495 -0.60711,-0.12424 -0.94083,-0.16614 -0.47923,-0.0602 -0.70363,-0.14051 -1.06768,-0.38223 -0.26236,-0.17419 -0.64759,-0.34143 -0.89423,-0.38821 -0.23832,-0.0452 -0.47906,-0.12015 -0.53499,-0.16657 -0.14682,-0.12184 -1.00834,-0.18445 -1.67194,-0.1215 l -0.5715,0.0542 v 0.32034 c 0,0.24826 -0.0476,0.35154 -0.21167,0.45902 -0.20237,0.1326 -0.21167,0.17581 -0.21167,0.98341 0,0.6212 -0.028,0.84378 -0.10583,0.84119 -0.0582,-0.002 -0.49576,-0.18957 -0.97235,-0.41695 z m 1.20547,-1.47693 c 0.1585,-0.10385 0.20363,-0.2037 0.19506,-0.43157 -0.006,-0.16305 0.009,-0.31645 0.0333,-0.34089 0.0244,-0.0244 0.48578,-0.0681 1.0252,-0.097 0.81009,-0.0434 1.01592,-0.0295 1.18283,0.0799 0.11114,0.0728 0.37388,0.15816 0.58386,0.18965 0.20998,0.0315 0.53067,0.14831 0.71263,0.25961 0.61921,0.37873 1.00769,0.54069 1.30451,0.54388 0.16298,0.002 0.51105,0.0537 0.77349,0.1155 l 0.47716,0.11231 0.0503,-0.36672 c 0.0652,-0.4757 -0.045,-0.75111 -0.48033,-1.20084 -0.39415,-0.40715 -0.63596,-0.55265 -1.29584,-0.77968 -0.24623,-0.0847 -0.67608,-0.30913 -0.95523,-0.4987 -0.27916,-0.18956 -0.57381,-0.34467 -0.6548,-0.34467 -0.34381,0 -0.90882,-0.37807 -1.28073,-0.85698 -0.21099,-0.27169 -0.4524,-0.51581 -0.53647,-0.5425 -0.0841,-0.0267 -0.17852,-0.12939 -0.20989,-0.22824 -0.0314,-0.0988 -0.21893,-0.35407 -0.4168,-0.56716 -0.19786,-0.2131 -0.3869,-0.47519 -0.42008,-0.58242 -0.0332,-0.10723 -0.19047,-0.42522 -0.34953,-0.70663 -0.15907,-0.28142 -0.28921,-0.60192 -0.28921,-0.71222 0,-0.26128 0.27398,-0.41642 0.5112,-0.28947 0.0953,0.051 0.2564,0.0642 0.35983,0.0295 0.10302,-0.0346 0.40314,-0.0535 0.66693,-0.0421 0.33763,0.0146 0.66538,-0.0434 1.10703,-0.19586 0.67242,-0.23209 1.03593,-0.27224 1.12724,-0.12451 0.0769,0.12444 0.16718,0.0113 0.28473,-0.35697 0.0539,-0.169 0.17285,-0.37493 0.26423,-0.45762 0.17601,-0.15929 0.21692,-0.29345 0.0895,-0.29345 -0.0422,0 -0.23627,0.13335 -0.43135,0.29633 -0.41643,0.34792 -0.56182,0.36052 -1.86266,0.1615 -0.48895,-0.0748 -1.00473,-0.15148 -1.14617,-0.17038 -0.20399,-0.0273 -0.32236,-0.13494 -0.57244,-0.52075 -0.1734,-0.2675 -0.35435,-0.62899 -0.40211,-0.8033 -0.097,-0.35398 -0.41359,-0.57207 -0.83045,-0.57207 -0.22003,0 -0.26556,-0.0449 -0.37703,-0.37208 -0.17491,-0.51332 -0.0769,-1.37168 0.18041,-1.58004 0.20766,-0.16815 0.35379,-0.50183 0.35379,-0.80787 0,-0.29865 -0.37636,-1.00073 -0.65336,-1.21884 -0.21315,-0.16782 -0.29627,-0.18002 -0.87064,-0.12779 -0.82484,0.075 -1.10067,0.29712 -1.10067,0.88629 0,0.21376 0.0537,0.4654 0.11945,0.55919 0.0657,0.0938 0.16025,0.39126 0.21012,0.66103 0.0727,0.39332 0.0669,0.53642 -0.0292,0.7223 -0.17531,0.33902 -0.28974,0.40385 -0.82764,0.46889 -0.38208,0.0462 -0.62225,0.14827 -1.132236,0.48119 -0.356011,0.23241 -0.845139,0.49658 -1.086953,0.58705 -0.435177,0.16283 -0.784698,0.4568 -0.968529,0.81462 -0.17386,0.3384 -0.106604,0.66741 0.243654,1.19192 0.186267,0.27894 0.338667,0.59973 0.338667,0.71287 0,0.23036 -0.310576,0.69011 -0.658921,0.97541 l -0.230079,0.18844 0.207034,0.003 c 0.113869,0.002 0.315181,-0.10057 0.44736,-0.22721 0.204674,-0.19609 0.264648,-0.21505 0.404279,-0.12785 0.137878,0.0861 0.178001,0.0761 0.252283,-0.0627 0.04858,-0.0908 0.220795,-0.2279 0.382696,-0.30473 l 0.294365,-0.13969 -0.177983,-0.24995 c -0.508236,-0.71375 -0.69036,-1.29234 -0.501029,-1.59172 0.06579,-0.10402 0.125786,-0.1075 0.364549,-0.0212 0.157191,0.0568 0.344634,0.10334 0.416539,0.10334 0.259204,0 0.552454,0.3297 0.656084,0.73762 0.0566,0.22296 0.13501,0.46644 0.17415,0.54106 0.0391,0.0746 0.13455,0.3884 0.21202,0.69728 l 0.14084,0.56162 -0.22567,0.48804 c -0.23458,0.50731 -0.54985,2.05536 -0.54985,2.69988 v 0.37102 l 0.65617,-0.0439 c 0.92313,-0.0618 0.9674,-0.0602 1.06495,0.0373 0.048,0.048 0.10019,0.36423 0.11606,0.70281 0.0159,0.33858 0.0376,0.79447 0.0483,1.01308 0.0107,0.21861 0.0671,0.44531 0.12531,0.50377 0.0582,0.0585 0.10584,0.18912 0.10584,0.29036 0,0.10123 0.0968,0.35722 0.21506,0.56886 0.1839,0.32903 0.26381,0.39303 0.55139,0.44162 0.18498,0.0312 0.66923,0.21784 1.0761,0.41463 0.40688,0.19679 0.83503,0.39733 0.95145,0.44564 l 0.21166,0.0878 0.024,-0.82641 c 0.0224,-0.76932 0.0383,-0.83575 0.23025,-0.96152 z m 4.44471,-6.4155 c -0.5656,-0.38073 -0.71534,-1.02861 -0.36227,-1.56747 0.45923,-0.70087 1.60215,-0.53362 1.87102,0.2738 0.31526,0.94672 -0.7136,1.82891 -1.50875,1.29367 z m 0.81777,0.0156 c 0.0696,0 0.23796,-0.11137 0.37408,-0.24749 0.51884,-0.51884 0.22748,-1.53184 -0.4787,-1.66432 -0.82206,-0.15422 -1.41458,0.7051 -1.0167,1.47451 0.15053,0.2911 0.63509,0.55093 0.88198,0.47292 0.062,-0.0196 0.16972,-0.0356 0.23934,-0.0356 z"
         style="fill:#26aedf;stroke-width:0.0846667" />
      <path
         id="path135"
         d="m 101.32144,133.61287 c 0.0288,-0.0466 0.21679,-0.16685 0.28386,-0.16685 0.0671,0 0.2863,0.28683 0.2863,0.33343 0,0.0466 -0.38884,0.11209 -0.48467,0.11209 -0.0959,0 -0.11429,-0.23207 -0.0855,-0.27867 z m -0.73878,-2.28281 c -0.0677,-0.12651 -0.12247,-0.27606 0.0193,-0.40217 0.44751,-0.3981 0.61237,-0.16269 0.64139,0.28961 0.0202,0.31467 -0.18912,0.6121 -0.28997,0.6121 -0.0708,0 -0.26567,-0.20468 -0.31599,-0.29873 z m 8.92159,-0.71054 c 0,0 -1.16434,-0.68634 -1.11291,-0.94353 0.0658,-0.32911 0.0171,-0.32304 -0.58775,-0.32304 -0.5371,0 -0.60314,-0.10456 -0.99927,-0.53988 -0.53039,-0.58285 -0.80194,-0.90179 -0.70241,-0.99968 0.10726,-0.10549 1.41974,-0.46068 1.69983,-0.51543 0.29612,-0.0579 0.78106,-0.19434 1.01733,-0.4163 l 0.27271,-0.1873 0.31374,0.16654 c 0.99931,0.5356 2.04032,-0.0277 2.04422,-1.16589 0.002,-0.48768 -0.0896,-0.68004 -0.52178,-1.085 -0.33374,-0.31273 -1.32544,-0.7088 -1.47448,-0.81629 -0.30073,-0.21688 -0.17569,-0.63649 0.37545,-1.22495 0.54173,-0.57841 0.67478,-0.72463 0.69501,-1.48306 l -0.0486,-0.59913 -0.49345,-0.75238 c -0.28597,-0.43603 -0.76711,-0.96102 -0.98536,-1.25139 -0.72003,-0.95795 -0.74654,-1.11817 -0.86362,-1.00191 -0.0834,0.0828 -0.0689,0.0869 0.0549,0.67718 0.0857,0.40838 0.14715,0.93338 0.16698,1.17173 0.0327,0.3927 0.006,0.53704 -0.24185,0.81958 -0.28414,0.32361 -0.91734,0.64809 -1.14401,0.64809 -0.19349,0 -0.14395,-0.76264 0.0629,-1.07504 0.15585,-0.35798 0.23528,-0.92176 0.0178,-1.4844 -0.20905,-0.54085 -0.30626,-1.22347 -0.18247,-1.57859 0.11321,-0.32473 0.13524,-0.23559 -0.61046,-1.15047 -0.54147,-0.66431 -0.64875,-0.74089 -1.30919,-1.0958 -1.11415,-0.59874 -1.62942,-0.9084 -1.84906,-1.29672 -0.19102,-0.33771 -0.31908,-0.99665 -0.18645,-0.99665 0.0384,0 0.56748,0.1556 0.5301,0.37798 0.30196,-0.0281 0.37426,0.2127 0.56229,0.26333 0.18803,0.0506 0.49195,0.17943 0.62485,0.29126 0.21086,0.17743 0.1994,0.14544 0.78816,0.14544 0.75648,0 0.76348,0.0195 1.66825,1.05558 0.27065,0.30992 0.35055,0.3692 0.39483,0.3692 0.0443,0 0.0895,-0.0887 0.18633,-0.28807 0.24859,-0.51168 0.8244,-0.72105 1.35297,-0.64218 0.49358,0.0737 1.43858,0.59728 1.7778,0.98363 0.25531,0.29079 0.4206,0.7227 0.25584,0.82453 -0.098,0.0606 -0.13472,0.3996 -0.0433,0.53741 0.0342,0.0515 0.45357,0.32563 0.98909,0.61623 0.53552,0.2906 1.01053,0.60886 1.09845,0.68582 0.23394,0.20477 0.44894,0.6552 0.49571,1.09444 0,0.37386 -0.01,0.36882 0.75979,1.0435 1.20588,1.05702 3.22318,2.05755 4.12713,2.05755 0.49883,0 0.89119,0.25229 1.32023,0.59207 0.40461,0.32046 0.24958,0.46777 -0.32008,0.37947 -0.31469,-0.0488 -0.4573,-0.1154 -0.77714,-0.10195 -0.31629,0.0846 -0.41948,0.0738 -0.84393,-0.0529 -0.2711,-0.0809 -0.69276,-0.1493 -1.03196,-0.21998 -0.83174,-0.1733 -2.30961,-0.73704 -2.65269,-0.89856 -0.26024,-0.12252 -0.25052,-0.11131 -0.30586,-0.15114 -0.0492,0.0919 -0.045,0.277 -0.0372,0.43105 0.008,0.15406 -0.0969,0.57902 -0.19165,0.92827 -0.0947,0.34925 -0.20847,0.86364 -0.25989,1.16632 -0.1497,0.88124 -0.26895,1.3558 -0.35995,1.5191 -0.13268,0.23808 -0.98637,2.2068 -0.98637,2.26289 0,0.19855 -0.85011,2.16333 -1.07464,2.47844 -0.15366,0.21564 -0.34084,0.50214 -0.41595,0.6474 -0.16885,0.32653 -0.46855,0.40132 -1.0418,0.10354 z m -6.11157,-18.28623 c -0.80176,-0.58881 -0.35513,-2.20001 0.61485,-2.20001 0.3032,0 0.81117,0.18479 1.04947,0.39403 0.54871,0.48177 0.51965,1.30362 0.0129,1.83252 -0.19487,0.2034 -0.39412,0.28899 -0.81192,0.28899 -0.41429,0 -0.35668,0.058 -0.60075,-0.12122 z"
         style="fill:#d93d6a;stroke-width:0.0846667" />
      <path
         id="path133"
         d="m 118.99349,137.88873 c -0.17832,-0.16574 -0.37301,-0.26753 -0.48393,-0.26771 -0.33003,-5e-4 -0.75822,-0.37254 -0.89843,-0.65361 -0.12972,-0.26007 0.13029,-1.15878 0.2263,-1.49058 0.12214,-0.42214 0.23055,-0.90494 0.0823,-1.69139 -0.13362,-0.70845 -0.14254,-0.77264 -0.42143,-1.01949 -0.3671,-0.32495 -0.27306,-0.25468 -0.5228,-0.02 -0.18927,0.17781 -0.32204,0.10851 -0.81167,0.007 -0.32071,-0.0665 -0.58285,-0.27946 -0.77939,-0.47096 -0.47268,-0.46055 -0.79962,-0.54805 -1.68326,-0.52707 -0.66156,0.0157 -0.68363,0.0218 -0.957,0.20957 -0.36234,0.2489 -0.3898,0.36639 -0.31461,0.76718 0.06,0.31978 -0.0791,1.29943 -0.43757,1.2575 -0.45273,-0.053 -0.11234,-0.5152 -0.10234,-0.79482 0.01,-0.26776 -0.0843,-0.72918 -0.14548,-1.07843 -0.16412,-0.93665 -0.0811,-1.35795 0.20341,-2.00858 0.13982,-0.31973 0.29403,-0.83783 0.39272,-1.16562 0.15668,-0.5204 0.29403,-0.69259 0.82142,-1.36122 0.33935,-0.43024 0.74272,-0.82095 0.84441,-0.98548 0.10169,-0.16454 0.44771,-0.49947 0.70462,-0.67641 0.39299,-0.27066 0.54504,-0.33015 1.08215,-0.39038 0.35114,-0.0394 0.68451,-0.0713 0.73012,-0.0995 0.0456,-0.0282 0.0654,-0.0733 0.0654,-0.20376 0,-0.13051 0.15487,-0.52366 0.29412,-0.83078 0.22737,-0.50145 0.35168,-0.68265 0.6526,-0.77281 0.63026,-0.18883 1.23426,0.2682 1.33098,1.08481 0.0264,0.22287 0.0625,0.63477 0.0129,0.81529 -0.11026,0.39933 -0.0717,0.44225 0.32554,0.67659 0.31407,0.18531 0.50563,0.55801 0.60539,1.02083 0.0342,0.15861 0.17134,0.41736 0.33337,0.64289 0.25345,0.35279 0.27086,0.36435 0.68292,0.47897 0.83803,0.23312 0.84624,0.23138 1.06274,0.39948 0.1667,0.12943 -0.11481,0.3785 -0.19438,0.56899 l -0.16191,0.38763 -0.99307,-0.0974 -0.74672,-0.11654 -0.51203,-0.42689 c -0.29166,-0.24317 -0.4422,-0.46966 -0.57872,-0.61839 -0.24089,-0.26244 -0.29542,-0.3107 -0.8496,0.11046 -0.52712,0.40059 -0.5958,0.35449 -0.59978,0.51741 -0.003,0.13563 0.87341,1.32926 1.19294,1.69263 0.14776,0.16802 0.37499,0.61659 0.56532,1.0048 l 0.34748,0.70876 -0.0168,0.88426 c -0.009,0.47425 -0.0746,1.08645 -0.14536,1.31148 -0.0935,0.29742 -0.0915,0.55804 -0.0479,0.96555 0.0547,0.51045 0.0418,0.49236 0.36168,0.8082 0.19318,0.19077 0.40301,0.3772 0.52692,0.45473 0.1239,0.0775 0.3036,0.33592 0.35889,0.50348 0.0866,0.26225 0.1047,0.44735 -0.0231,0.58855 -0.2504,0.27669 -0.70133,0.53088 -1.08571,0.17361 z m -9.05111,-1.65839 c -0.18626,-0.11472 -0.64283,-0.23411 -0.78253,-0.23506 -0.50085,-0.095 -0.56076,-0.33574 -0.0747,-0.76567 0.6363,-0.13358 1.18279,-0.28093 1.6027,-0.56335 0.23283,-0.1566 0.65949,-0.2298 0.86094,-0.44626 0.38848,-0.41741 0.56471,-0.36667 0.66833,-0.22511 0.0636,0.087 0.0754,0.78902 0.0611,1.00786 -0.0239,0.36551 -0.0878,0.53844 -0.49836,0.7415 -0.23539,0.11641 -0.49633,0.25803 -0.61019,0.3046 -0.11582,0.0474 -0.18172,0.16858 -0.31261,0.40746 -0.39234,0.0604 -0.45158,0.0424 -0.9147,-0.22597 z m 5.66693,-1.40875 c -0.009,-0.24878 0.002,-1.4093 0.16975,-1.63792 0.55023,0.0557 0.87658,1.24242 0.76962,1.59419 -0.032,0.10518 -0.14028,0.20402 -0.2926,0.26334 -0.0912,0.0355 -0.14056,0.008 -0.30365,0.007 -0.15523,-9.5e-4 -0.2426,-0.0701 -0.34312,-0.22688 z m 6.77294,-3.70637 c -0.64569,-0.22579 -0.9997,-1.0669 -0.70832,-1.76428 0.19572,-0.46843 1.1617,-0.78303 1.65042,-0.53573 0.3347,0.16935 0.7185,0.81684 0.68291,1.23554 -0.0702,0.82537 -0.97187,1.29286 -1.62501,1.06447 z"
         style="fill:#b23993;stroke-width:0.0846667" />
      <path
         id="path131"
         d="m 120.39068,144.00513 c -0.40809,-0.30877 -0.40927,-0.27489 -0.53924,-0.0253 -0.0615,0.11803 -0.14809,0.22135 -0.2129,0.22135 -0.0899,0 -0.14041,-0.25163 -0.14041,-0.72451 0,-0.3408 -0.11778,-0.81642 -0.19273,-1.06878 -0.16049,-0.54041 -0.7962,-1.83448 -1.0931,-2.22936 -0.30706,-0.4084 -0.98992,-0.70135 -1.72124,-0.76682 -0.33473,-0.03 -0.73451,-0.13768 -0.85684,-0.18423 -0.40567,-0.15424 -0.60799,-0.0861 -1.88566,0.4775 -1.49075,0.6576 -2.6285,1.17 -2.76,1.17 -0.0515,0 -0.27625,0.0951 -0.46385,0.23095 -0.26482,0.19183 -0.63729,0.38395 -1.58196,0.59054 -0.66923,0.14635 -1.4135,0.32024 -1.68264,0.29605 -0.27106,0.13784 -0.63992,0.11876 -0.90099,0.0879 -0.35302,0.093 -0.53412,0.17047 -0.94064,0.25144 -0.26678,0.0531 -0.32177,0.11492 -0.81628,0.15275 -0.975,0.0746 -1.05671,0.0395 -1.17804,0.33246 -0.0923,0.2229 -0.15956,0.29872 -0.51876,0.28986 -0.21699,-0.005 -0.66121,-0.0423 -0.88117,-0.004 -0.70651,0.123 -1.22327,-0.48571 -0.76495,-0.91627 0.27528,-0.25862 1.76389,-0.84898 2.36846,-0.92756 0.42497,-0.0552 0.46127,-0.18312 1.06296,-0.59554 0.39559,-0.27115 0.99275,-0.49939 1.19314,-0.58529 0.30835,-0.13217 0.35299,-0.14887 0.54161,-0.56087 0.12259,-0.26777 0.27115,-0.60329 0.27436,-0.79024 0.006,-0.3288 -0.0785,-0.2204 -0.5431,-0.46611 -0.26426,-0.1397 -0.52501,-0.47095 -0.67985,-0.63012 -0.15484,-0.15916 -0.69481,-0.54748 -1.19995,-0.86292 -0.69986,-0.43704 -1.03738,-0.5855 -1.49884,-0.69044 -0.73679,-0.16755 -1.50526,-0.46298 -2.43692,-0.95031 -0.792301,-0.41444 -0.886187,-0.28688 -1.43191,-0.16105 l -0.391898,0.0904 -0.780569,-0.12122 c -0.940325,-0.14604 -1.387267,-0.52017 -1.488499,-0.78643 -0.08237,-0.21665 0.0078,-0.56563 0.133305,-0.56563 0.04019,0 0.263085,0.16214 0.364237,0.29896 0.101152,0.13681 0.359467,0.32402 0.574035,0.41601 0.860642,0.369 1.166959,0.0186 1.856373,-0.34051 0.492438,-0.25649 0.308119,-0.3148 2.909496,0.18769 0.5169,0.0998 1.16211,0.33924 1.47745,0.4962 1.0358,0.51557 1.47934,0.66259 2.23144,0.76732 0.4191,0.0584 1.06826,0.20066 1.4366,0.29933 0.36834,0.0987 0.79248,0.16003 0.91888,0.16003 0.1264,0 0.42407,0.0766 0.62205,0.14636 0.19798,0.0699 0.4444,0.0947 0.57917,0.0947 0.13477,0 0.45139,0.13059 0.64837,0.25864 0.30159,0.19607 0.38697,0.22539 0.8504,0.22005 0.61751,-0.007 0.57994,-0.0507 1.32364,-0.60558 0.62035,-0.46288 0.57209,-0.42968 0.40221,-0.57188 -0.15231,-0.12748 -0.18495,-0.17327 -0.18495,-0.55421 0,-0.23704 -0.0125,-0.46701 0.0237,-0.58254 -0.0592,-0.11069 -0.14064,-0.33103 -0.0461,-0.55715 0.0733,-0.1754 0.0873,-0.59397 0.10076,-0.8995 0.0217,-0.49045 0.11748,-0.57089 0.31911,-0.72137 0.33012,-0.24639 1.68369,-0.19799 2.18146,0.0658 0.42298,0.22414 0.52459,0.16849 0.5955,1.01874 0.0504,0.60467 0.0104,0.90885 -0.25664,1.35866 l -0.15203,0.48989 0.14268,0.35414 c 0.0879,0.21818 1.05735,1.24641 2.10556,2.33137 2.05793,2.13008 2.1976,2.33454 2.60683,3.6564 0.28723,0.92777 0.42954,1.21242 0.9125,1.72921 0.59288,0.63441 0.67034,1.18327 0.24869,1.09894 -0.14328,-0.0287 -0.2379,-0.005 -0.27982,0.0156 -0.21461,0.10299 -0.15464,0.0537 -0.50241,-0.20944 z m -23.069344,-9.83247 c -0.544716,-0.33831 -0.904739,-0.99816 -0.904739,-1.58468 0,-1.13946 1.463554,-1.8419 2.454114,-1.33655 1.304499,0.6655 0.612139,3.13057 -0.837126,3.1295 -0.272527,-1.7e-4 -0.551592,-0.1085 -0.712249,-0.20827 z"
         style="fill:#f05a1c;stroke-width:0.0846667" />
      <path
         id="path129"
         d="m 88.81273,140.81981 c -0.340291,-0.0364 -0.359805,-0.0532 -0.359312,-0.30879 2.54e-4,-0.14867 0.05744,-0.37943 0.127,-0.51281 0.06956,-0.13339 0.126479,-0.32677 0.126479,-0.42975 0,-0.24525 0.169503,-0.38996 1.481666,-1.26493 1.596384,-1.06448 2.027112,-1.41618 2.058225,-1.68057 0.02195,-0.18651 -0.169028,-0.4248 -1.171034,-1.46114 -1.308994,-1.35386 -1.500087,-1.65957 -1.573779,-2.51771 -0.04104,-0.47794 -0.0026,-0.66054 0.381994,-1.81531 0.475784,-1.4285 0.51132,-1.56954 0.849822,-3.37275 0.289377,-1.54152 0.402418,-1.83056 0.824135,-2.10729 0.682979,-0.44818 0.733094,-0.50995 0.667456,-0.82267 -0.154822,-0.73764 -0.148199,-1.15101 0.02384,-1.48824 0.14894,-0.29195 0.224328,-0.34592 0.606338,-0.4341 0.487991,-0.11264 0.766172,-0.12627 0.971214,-0.0476 0.226353,0.0869 0.8481,1.37832 0.850792,1.76722 0.0013,0.18627 0.03067,0.41836 0.06528,0.51576 0.05349,0.15051 0.01189,0.19714 -0.277174,0.31069 -0.187064,0.0735 -0.340116,0.172 -0.340116,0.21893 0,0.16062 0.432404,0.4255 0.999413,0.61222 0.311806,0.10268 0.673271,0.26122 0.803256,0.35231 0.129984,0.0911 0.339534,0.19298 0.465666,0.22643 0.17754,0.0471 0.235175,0.11971 0.255202,0.32155 0.03184,0.32088 0.210658,0.48784 0.650627,0.60749 0.285782,0.0777 0.388913,0.0666 0.669373,-0.0722 0.236196,-0.11686 0.37484,-0.14087 0.482103,-0.0835 0.224592,0.1202 0.543083,0.0978 0.877425,-0.0616 0.163978,-0.0782 0.319717,-0.1206 0.346087,-0.0942 0.02637,0.0264 -0.02368,0.26854 -0.111214,0.53816 l -0.159161,0.4902 -0.543888,0.008 c -0.299139,0.004 -0.610564,0.0396 -0.692056,0.0787 -0.106908,0.0514 -0.148166,0.0358 -0.148166,-0.0558 0,-0.0698 -0.06668,-0.15272 -0.148167,-0.18415 -0.152916,-0.059 -1.293856,-0.18965 -2.370416,-0.27148 -0.941427,-0.0716 -1.001771,-0.0399 -1.199266,0.62878 -0.245507,0.83127 -0.53724,2.69193 -0.47004,2.9979 0.03272,0.14896 0.123529,0.27773 0.212219,0.30092 0.12946,0.0339 0.141168,0.077 0.07099,0.26159 -0.194715,0.51214 0.114558,0.95709 1.013176,1.45766 0.63098,0.35148 0.686327,0.40452 0.770971,0.73892 0.06938,0.27408 0.176955,0.42243 0.449697,0.6201 0.197178,0.14291 0.459194,0.28001 0.582259,0.30467 0.186709,0.0374 0.296401,0.19408 0.662546,0.94624 0.241335,0.49577 0.492283,0.99665 0.557661,1.11306 0.06538,0.11642 0.247782,0.49742 0.405343,0.84667 0.332971,0.73806 1.029122,1.5476 1.734274,2.01675 0.25758,0.17137 0.46161,0.34968 0.45341,0.39625 -0.009,0.0508 -0.5233,0.094 -1.285118,0.10804 -1.017364,0.0187 -1.270203,7.6e-4 -1.270203,-0.0902 0,-0.0624 -0.252986,-0.51112 -0.562192,-0.99704 -0.309206,-0.48592 -0.864973,-1.43594 -1.235038,-2.11115 -0.370065,-0.67522 -0.736204,-1.29879 -0.813641,-1.38573 -0.07744,-0.0869 -0.345561,-0.24885 -0.595831,-0.35983 -0.799157,-0.35437 -0.996635,-0.24275 -0.641782,0.36276 0.19246,0.32841 0.22097,0.4549 0.180171,0.79938 -0.02666,0.22508 -0.08847,0.48399 -0.137367,0.57535 -0.08656,0.16174 -2.957128,2.12473 -3.107095,2.12473 -0.150654,0 -0.707225,0.4327 -0.707225,0.54982 0,0.13883 0.600475,0.50301 0.972471,0.58979 0.211973,0.0495 0.22989,0.0718 0.110937,0.13837 -0.156787,0.0877 -2.271817,0.16627 -2.840241,0.10545 z m 33.82789,-0.02 c -0.21923,-0.0319 -0.42,-0.0795 -0.44614,-0.10563 -0.0262,-0.0261 0.15322,-0.17697 0.3986,-0.33516 0.71171,-0.45884 0.6636,-0.54562 -0.73918,-1.3334 -0.94244,-0.52925 -1.17977,-0.69851 -1.15819,-0.82595 0.0149,-0.0882 0.0481,-0.26667 0.0736,-0.3967 0.0699,-0.35532 -0.19771,-0.96465 -0.51996,-1.18406 -0.15202,-0.1035 -0.38166,-0.31345 -0.51032,-0.46654 -0.22715,-0.2703 -0.23244,-0.29969 -0.18278,-1.016 0.0476,-0.68609 0.20587,-2.58442 0.21792,-2.61304 0.003,-0.007 0.19621,-0.0585 0.42948,-0.11447 0.48592,-0.11657 0.96834,-0.59334 1.05931,-1.0469 0.11981,-0.59733 0.10705,-0.59033 0.48566,-0.26625 0.53117,0.45466 1.02786,0.56102 1.5673,0.33563 0.41838,-0.17481 0.68641,-0.43275 0.87558,-0.84262 0.19197,-0.41595 0.20109,-0.79615 0.029,-1.20807 -0.29211,-0.69912 -0.7074,-0.94316 -1.76601,-1.03775 -0.85395,-0.0763 -1.91612,-0.37171 -1.90717,-0.53042 0.003,-0.0563 0.29845,-0.24171 0.65616,-0.41194 1.09668,-0.52189 1.14303,-0.546 1.6664,-0.86667 0.56127,-0.34389 0.68744,-0.58084 0.50082,-0.94056 -0.14784,-0.28496 -0.0964,-1.71306 0.0674,-1.86956 0.14309,-0.13677 0.86137,-0.37403 1.13231,-0.37403 0.28745,0 0.65957,0.20232 0.87436,0.47539 0.13685,0.17397 0.17681,0.34545 0.17681,0.7587 0,0.29365 -0.0381,0.55746 -0.0847,0.58624 -0.12962,0.0801 -0.10062,0.46486 0.0391,0.51847 0.19275,0.074 0.63825,1.06456 0.63825,1.41917 0,0.19361 -0.16684,0.69828 -0.43163,1.30564 -0.8405,1.92787 -1.17704,2.82985 -1.17704,3.15462 0,0.37771 -0.35605,1.55787 -0.63889,2.11766 -0.19513,0.38618 -0.52719,0.69611 -1.01485,0.94721 -0.2915,0.15009 -1.81759,1.80267 -1.81759,1.96823 0,0.0596 0.20002,0.23143 0.4445,0.38186 0.24447,0.15044 0.6731,0.42914 0.9525,0.61935 0.2794,0.1902 0.68049,0.42904 0.89131,0.53074 0.47606,0.22967 1.26167,0.84326 1.32394,1.03406 0.0255,0.0783 0.12652,0.34457 0.22439,0.59175 0.23058,0.58239 0.1608,0.6885 -0.57482,0.87414 -0.75187,0.18975 -1.26417,0.23845 -1.75543,0.16686 z m -6.31961,-4.69486 -0.53266,-0.53744 0.45044,-0.0764 c 0.40836,-0.0693 0.46514,-0.1065 0.60784,-0.39862 0.14636,-0.29964 0.14854,-0.35735 0.0311,-0.82341 -0.0932,-0.37006 -0.10117,-0.52112 -0.0304,-0.57736 0.12349,-0.0981 0.64399,-0.36294 0.65324,-0.33234 0.0294,0.0973 0.0861,0.53504 0.12905,0.997 0.0408,0.43885 0.0314,0.66498 -0.11557,1.09901 -0.21338,0.63009 -0.50354,1.18699 -0.5962,1.18699 -0.0353,0 -0.30393,-0.24184 -0.59689,-0.53743 z m 1.47862,-6.78325 c -0.0752,-0.11478 -0.13673,-0.2286 -0.13673,-0.25294 0,-0.0243 0.15331,-0.14104 0.3407,-0.25933 l 0.34071,-0.21508 0.20695,0.23518 c 0.11382,0.12936 0.20816,0.25617 0.20963,0.28182 0.002,0.0408 -0.71448,0.41903 -0.79419,0.41903 -0.0167,0 -0.0919,-0.0939 -0.16707,-0.20868 z"
         style="fill:#80d803;stroke-width:0.0846667" />
      <path
         id="path127"
         d="m 88.87623,140.97251 -0.550333,-0.0545 -0.02578,-0.30917 c -0.01418,-0.17005 0.03345,-0.45093 0.105833,-0.62418 0.07239,-0.17325 0.131614,-0.40239 0.131614,-0.50921 0,-0.22162 0.241728,-0.42635 1.439334,-1.21902 1.08022,-0.71498 2.034428,-1.43723 2.089941,-1.5819 0.06706,-0.17475 -0.09544,-0.37902 -1.34257,-1.68763 -1.217745,-1.27777 -1.316269,-1.4472 -1.400568,-2.40856 -0.03525,-0.40199 0.02393,-0.66006 0.432808,-1.88745 0.322566,-0.96828 0.5667,-1.91952 0.765397,-2.98226 0.347357,-1.85786 0.497875,-2.25081 0.950693,-2.48192 0.482655,-0.24633 0.654219,-0.46847 0.580982,-0.75223 -0.207749,-0.80495 -0.120567,-1.45246 0.241339,-1.79245 0.248918,-0.23384 1.117816,-0.40738 1.495796,-0.29874 0.219291,0.063 0.326376,0.18731 0.577365,0.67005 0.169476,0.32597 0.37745,0.69489 0.462162,0.81983 0.124271,0.18327 0.13531,0.26212 0.05715,0.40816 -0.07046,0.13166 -0.0721,0.25209 -0.006,0.44165 0.130094,0.37319 0.123641,0.38873 -0.22132,0.53286 -0.268529,0.1122 -0.295164,0.14669 -0.1905,0.24665 0.06692,0.0639 0.398104,0.21453 0.735958,0.33471 0.337853,0.12017 0.716726,0.28591 0.841938,0.36832 0.125211,0.0824 0.364757,0.12591 0.507057,0.17248 0.200514,0.0656 0.339591,0.15835 0.361801,0.3552 0.0378,0.33503 0.04475,0.49126 0.408027,0.59157 0.250106,0.0691 0.355292,0.0533 0.614342,-0.0923 0.249533,-0.14024 0.347909,-0.15675 0.487827,-0.0819 0.250402,0.13401 0.625277,0.11582 0.849489,-0.0412 0.276253,-0.19349 0.719763,-0.20846 0.658451,0.0443 -0.140566,0.57966 -0.374379,1.17682 -0.436185,1.24521 -0.03852,0.0426 -0.257356,0.0166 -0.526728,0.008 -0.393059,-0.0129 -0.449628,0.0684 -0.802302,0.25692 -1.036533,0.55401 -3.457499,2.79548 -3.754435,3.34469 -0.131664,0.24352 -0.171626,0.34308 -0.03265,0.58232 0.08748,0.15061 0.350325,0.37801 0.604306,0.52555 0.90322,0.5247 0.944727,0.59679 1.066858,0.96656 0.133474,0.4041 0.520807,0.75073 0.93043,0.83266 0.238845,0.0478 0.313447,0.15689 0.854273,1.24953 0.325916,0.65846 0.70384,1.44485 0.839832,1.74753 0.341856,0.76089 0.941513,1.45992 1.657928,1.93267 0.65424,0.43172 0.84062,0.73085 0.48758,0.82541 -0.24714,0.0662 -2.501299,0.0591 -2.745911,-0.006 -0.10083,-0.0271 -0.06502,-0.14657 -0.09209,-0.25443 -0.02707,-0.10785 -0.310614,-0.60908 -0.630095,-1.11383 -0.319482,-0.50475 -0.834726,-1.35071 -1.126039,-1.88622 -0.291313,-0.53552 -0.592121,-1.0885 -0.687408,-1.22254 -0.166887,-0.23475 -1.0407,-0.7104 -1.133881,-0.61722 -0.025,0.025 0.04019,0.19785 0.144877,0.38411 0.152777,0.27183 0.247947,0.44911 0.208808,0.77958 -0.08521,0.71949 -0.196802,0.80786 -1.735527,1.83515 -0.796278,0.53161 -1.644782,1.01544 -1.84269,1.11447 -0.197908,0.099 -0.359833,0.22991 -0.359833,0.29086 0,0.097 0.520037,0.37626 0.9525,0.51145 0.202044,0.0632 0.186009,0.1924 -0.04233,0.34121 -0.221156,0.14413 -1.971968,0.23351 -2.8575,0.14588 z m 2.776741,-0.25815 c 0.118953,-0.0666 0.101036,-0.0889 -0.110937,-0.13837 -0.371996,-0.0868 -0.972471,-0.45096 -0.972471,-0.58979 0,-0.11712 0.556571,-0.54982 0.707225,-0.54982 0.149967,0 3.02053,-1.96299 3.107095,-2.12473 0.04889,-0.0914 0.11071,-0.35027 0.137367,-0.57535 0.0408,-0.34448 0.01229,-0.47097 -0.180171,-0.79938 -0.354853,-0.60551 -0.157375,-0.71713 0.641782,-0.36276 0.25027,0.11098 0.518393,0.2729 0.595831,0.35983 0.07744,0.0869 0.443576,0.71051 0.813641,1.38573 0.370065,0.67521 0.925832,1.62523 1.235038,2.11115 0.309206,0.48592 0.562192,0.93459 0.562192,0.99704 0,0.0909 0.252839,0.1089 1.270203,0.0902 0.761814,-0.014 1.276174,-0.0573 1.285114,-0.10804 0.008,-0.0466 -0.19583,-0.22488 -0.45341,-0.39625 -0.705148,-0.46915 -1.401299,-1.27869 -1.73427,-2.01675 -0.157561,-0.34925 -0.339965,-0.73025 -0.405343,-0.84667 -0.06538,-0.11641 -0.316326,-0.61729 -0.557661,-1.11306 -0.366145,-0.75216 -0.475837,-0.90883 -0.662546,-0.94624 -0.123065,-0.0247 -0.385081,-0.16176 -0.582259,-0.30467 -0.272742,-0.19767 -0.380321,-0.34602 -0.449697,-0.6201 -0.08464,-0.3344 -0.139991,-0.38744 -0.770971,-0.73892 -0.898618,-0.50057 -1.207891,-0.94552 -1.013176,-1.45766 0.07018,-0.18459 0.05847,-0.22773 -0.07099,-0.26159 -0.08869,-0.0232 -0.179501,-0.15196 -0.212219,-0.30092 -0.0672,-0.30597 0.224533,-2.16663 0.47004,-2.9979 0.197495,-0.6687 0.257839,-0.70034 1.199266,-0.62878 1.07656,0.0818 2.2175,0.2125 2.370416,0.27148 0.08149,0.0314 0.148167,0.1143 0.148167,0.18415 0,0.0916 0.04126,0.10717 0.148166,0.0558 0.08149,-0.0392 0.392917,-0.0746 0.692056,-0.0787 l 0.543888,-0.008 0.159161,-0.4902 c 0.08754,-0.26962 0.137584,-0.51179 0.111214,-0.53816 -0.02637,-0.0264 -0.182109,0.016 -0.346087,0.0942 -0.334342,0.15944 -0.652833,0.1818 -0.877425,0.0616 -0.107263,-0.0574 -0.245907,-0.0334 -0.482103,0.0835 -0.28046,0.13876 -0.383591,0.14987 -0.669373,0.0722 -0.439969,-0.11965 -0.618788,-0.28661 -0.650627,-0.60749 -0.02003,-0.20184 -0.07766,-0.27446 -0.255202,-0.32155 -0.126132,-0.0335 -0.335682,-0.13534 -0.465666,-0.22643 -0.129985,-0.0911 -0.49145,-0.24963 -0.803256,-0.35231 -0.567009,-0.18672 -0.999413,-0.4516 -0.999413,-0.61222 0,-0.0469 0.153052,-0.14545 0.340116,-0.21893 0.289068,-0.11355 0.330669,-0.16018 0.277174,-0.31069 -0.03462,-0.0974 -0.06399,-0.32949 -0.06528,-0.51576 -0.0027,-0.3889 -0.624439,-1.68036 -0.850792,-1.76722 -0.205042,-0.0787 -0.483223,-0.065 -0.971214,0.0476 -0.38201,0.0882 -0.457398,0.14215 -0.606338,0.4341 -0.172043,0.33723 -0.178666,0.7506 -0.02384,1.48824 0.06564,0.31272 0.01552,0.37449 -0.667456,0.82267 -0.421717,0.27673 -0.534758,0.56577 -0.824135,2.10729 -0.338502,1.80321 -0.374038,1.94425 -0.849822,3.37275 -0.384613,1.15477 -0.423037,1.33737 -0.381994,1.81531 0.07369,0.85814 0.264785,1.16385 1.573779,2.51771 1.002006,1.03634 1.192982,1.27463 1.171034,1.46114 -0.03111,0.26439 -0.461841,0.61609 -2.058225,1.68057 -1.312163,0.87497 -1.481666,1.01968 -1.481666,1.26493 0,0.10298 -0.05692,0.29636 -0.126479,0.42975 -0.06956,0.13338 -0.126713,0.36414 -0.127,0.51281 -5.08e-4,0.25561 0.01902,0.27238 0.359312,0.30879 0.568424,0.0608 2.683454,-0.0177 2.840241,-0.10545 z m 3.522057,-10.23294 c 0.563677,-0.54797 1.378057,-1.25968 1.809732,-1.58157 0.557101,-0.41543 0.758616,-0.61156 0.694415,-0.67587 -0.08649,-0.0866 -0.603555,-0.14931 -2.21164,-0.26807 -0.70601,-0.0521 -0.724515,0.0275 -0.846572,0.22077 -0.156174,0.24725 -0.279643,0.94312 -0.468986,2.13077 -0.133248,0.8358 -0.17844,1.14104 -0.03426,1.14104 0.03151,0 0.493631,-0.41911 1.057309,-0.96707 z m 27.421782,10.48912 c -0.70337,-0.0903 -0.81521,-0.36983 -0.26044,-0.65094 0.31305,-0.15862 0.57586,-0.36996 0.57586,-0.46306 0,-0.0339 -0.53168,-0.35268 -1.18151,-0.70844 -0.64983,-0.35576 -1.20466,-0.68431 -1.23297,-0.73011 -0.0283,-0.0458 -0.006,-0.21017 0.0505,-0.36529 0.14892,-0.41182 0.0345,-0.8784 -0.2881,-1.17519 -0.14792,-0.13607 -0.4147,-0.38751 -0.59285,-0.55876 l -0.32391,-0.31137 0.0414,-0.762 c 0.0657,-1.20953 0.20602,-2.73647 0.25935,-2.82275 0.0269,-0.0435 0.19215,-0.10591 0.36729,-0.13875 0.66053,-0.12383 1.04195,-0.54926 1.16451,-1.29889 0.0329,-0.20115 -0.0129,-0.4293 0.14034,-0.5185 0.13966,-0.0813 0.29871,0.2451 0.51536,0.45269 0.46655,0.44703 0.94645,0.56964 1.42546,0.3642 0.99458,-0.42657 1.22624,-1.55081 0.47916,-2.32532 -0.30946,-0.32083 -0.67786,-0.44254 -1.34145,-0.4432 -0.26878,-2.6e-4 -0.77682,-0.0615 -1.14713,-0.17898 -1.44332,-0.58264 -1.18408,-0.56168 0.0776,-1.1678 1.29025,-0.61985 1.92558,-1.055 1.92558,-1.31885 0,-0.11194 -0.039,-0.22762 -0.0867,-0.25707 -0.0547,-0.0338 -0.071,-0.38634 -0.0442,-0.9575 0.0487,-1.03703 0.0926,-1.10692 0.83194,-1.32649 0.58067,-0.17244 0.87638,-0.16086 1.21354,0.0475 0.46678,0.28848 0.62535,0.58447 0.62535,1.16728 0,0.28166 -0.0461,0.61333 -0.10249,0.73704 -0.0868,0.19039 -0.0805,0.241 0.0407,0.32961 0.0787,0.0576 0.26317,0.36112 0.40984,0.67456 0.325,0.69451 0.30551,1.09027 -0.0968,1.96565 -0.14684,0.31949 -0.3178,0.71424 -0.37991,0.87722 -0.0621,0.16298 -0.28716,0.71229 -0.50012,1.22068 -0.24887,0.59412 -0.38719,1.04972 -0.38719,1.27529 0,0.33214 -0.36504,1.55656 -0.63409,2.12687 -0.13644,0.2892 -0.6868,0.80614 -1.20783,1.13449 -0.18473,0.11642 -0.5793,0.49211 -0.87681,0.83486 -0.7627,0.87867 -0.74532,0.84255 -0.49861,1.03612 0.40272,0.31596 1.5684,1.06413 2.0821,1.33635 0.69198,0.36669 1.23129,0.94383 1.4603,1.56271 0.23103,0.62433 0.22972,0.78502 -0.008,0.9323 -0.44532,0.27639 -1.79145,0.49422 -2.49559,0.40382 z m 1.79924,-0.33759 c 0.73562,-0.18564 0.8054,-0.29175 0.57482,-0.87414 -0.0979,-0.24718 -0.19884,-0.51347 -0.22439,-0.59175 -0.0623,-0.1908 -0.84788,-0.80439 -1.32394,-1.03406 -0.21082,-0.1017 -0.61191,-0.34054 -0.89131,-0.53074 -0.2794,-0.19021 -0.70803,-0.46891 -0.9525,-0.61935 -0.24448,-0.15043 -0.4445,-0.32227 -0.4445,-0.38186 0,-0.16556 1.52609,-1.81814 1.81759,-1.96823 0.48766,-0.2511 0.81972,-0.56103 1.01485,-0.94721 0.28284,-0.55979 0.63889,-1.73995 0.63889,-2.11766 0,-0.32477 0.33654,-1.22675 1.17704,-3.15462 0.26479,-0.60736 0.43163,-1.11203 0.43163,-1.30564 0,-0.35461 -0.4455,-1.34521 -0.63825,-1.41917 -0.1397,-0.0536 -0.1687,-0.43836 -0.0391,-0.51847 0.0466,-0.0288 0.0847,-0.29259 0.0847,-0.58624 0,-0.41325 -0.04,-0.58473 -0.17681,-0.7587 -0.21479,-0.27307 -0.58691,-0.47539 -0.87436,-0.47539 -0.27094,0 -0.98922,0.23726 -1.13231,0.37403 -0.16375,0.1565 -0.2152,1.5846 -0.0674,1.86956 0.18662,0.35972 0.0604,0.59667 -0.50082,0.94056 -0.52337,0.32067 -0.56972,0.34478 -1.6664,0.86667 -0.35771,0.17023 -0.65299,0.35561 -0.65616,0.41194 -0.009,0.15871 1.05322,0.45412 1.90717,0.53042 0.80665,0.0721 1.13825,0.19213 1.44851,0.52443 0.76936,0.824 0.47231,2.12138 -0.58706,2.56401 -0.53944,0.22539 -1.03613,0.11903 -1.5673,-0.33563 -0.37861,-0.32408 -0.36585,-0.33108 -0.48566,0.26625 -0.091,0.45356 -0.57339,0.93033 -1.05931,1.0469 -0.23327,0.056 -0.42654,0.10747 -0.42948,0.11447 -0.0121,0.0286 -0.17037,1.92695 -0.21792,2.61304 -0.0497,0.71631 -0.0444,0.7457 0.18278,1.016 0.12866,0.15309 0.3583,0.36304 0.51032,0.46654 0.32225,0.21941 0.58982,0.82874 0.51996,1.18406 -0.0256,0.13003 -0.0587,0.30854 -0.0736,0.3967 -0.0216,0.12744 0.21575,0.2967 1.15819,0.82595 1.40278,0.78778 1.45089,0.87456 0.73918,1.3334 -0.24538,0.15819 -0.42475,0.30902 -0.3986,0.33516 0.0883,0.0883 0.84206,0.16399 1.23484,0.12401 0.21454,-0.0218 0.64958,-0.10519 0.96673,-0.18524 z m -8.31132,-4.49406 c -0.77526,-0.82175 -0.63102,-0.82025 -0.07,-0.82025 0.64698,0 0.8903,-0.38301 0.65255,-1.24156 -0.0778,-0.28089 -0.1055,-0.38559 0.0432,-0.5241 0.22177,-0.20661 0.71133,-0.41024 0.85746,-0.35416 0.13062,0.0501 0.31807,0.9297 0.31807,1.45392 0,0.57711 -0.63586,2.19412 -0.86799,2.19412 -0.0579,0 -0.40075,-0.14351 -0.68408,-0.44383 z m 1.06245,0.17996 c 0.37737,-0.73971 0.53617,-1.3856 0.48249,-1.96246 -0.043,-0.46196 -0.0997,-0.89974 -0.12905,-0.997 -0.009,-0.0306 -0.52975,0.2342 -0.65324,0.33234 -0.0708,0.0562 -0.0628,0.2073 0.0304,0.57736 0.1174,0.46606 0.11522,0.52377 -0.0311,0.82341 -0.1427,0.29212 -0.19948,0.32936 -0.60784,0.39862 l -0.45049,0.0764 0.53271,0.53745 c 0.29297,0.29558 0.56156,0.53743 0.59689,0.53743 0.0353,0 0.1385,-0.14559 0.22928,-0.32354 z m 0.51479,-6.89429 c -0.0923,-0.15134 -0.16792,-0.2971 -0.16809,-0.32391 -4.2e-4,-0.069 0.33743,-0.36701 0.61975,-0.54654 l 0.23906,-0.15202 0.39106,0.39105 0.39105,0.39106 -0.57451,0.25776 c -0.31598,0.14177 -0.60962,0.25777 -0.65253,0.25777 -0.0429,0 -0.15352,-0.12383 -0.24579,-0.27517 z m 0.71833,-0.0804 c 0.21079,-0.10241 0.38206,-0.20719 0.38059,-0.23283 -0.001,-0.0256 -0.0958,-0.15246 -0.20963,-0.28182 l -0.20695,-0.23518 -0.34071,0.21508 c -0.18739,0.11829 -0.3407,0.23499 -0.3407,0.25933 0,0.0589 0.26507,0.46162 0.3038,0.46162 0.0167,0 0.2028,-0.0838 0.4136,-0.1862 z m -6.57548,-0.66484 c 0,-0.0466 0.0923,-0.0803 0.18541,-0.0803 0.0931,0 0.16933,0.0381 0.16933,0.0847 0,0.0466 -0.11128,0.18409 -0.20441,0.18409 -0.0931,0 -0.15033,-0.14187 -0.15033,-0.18847 z"
         style="fill:#6cb903;stroke-width:0.0846667" />
      <path
         id="path123"
         d="m 104.17429,137.78397 c -0.40197,-0.39039 -0.78457,-1.04161 -0.67584,-1.15034 0.0532,-0.0532 0.35378,0.0848 0.85096,0.39062 0.95348,0.58645 1.02665,0.66548 0.82372,0.88972 -0.24433,0.26998 -0.64002,0.21848 -0.99884,-0.13 z m 0.91561,-0.0474 c 0,-0.12159 -1.299,-0.96643 -1.37268,-0.89276 -0.11658,0.11659 0.61571,0.99498 0.90701,1.08797 0.1818,0.058 0.46567,-0.061 0.46567,-0.19521 z m 2.11793,-2.19982 c -0.2787,-0.0874 -0.79925,-0.17092 -1.143,-0.2546 -0.34995,-0.0527 -0.68113,-0.0729 -0.73344,-0.11569 -0.0833,-0.0139 -0.16456,-0.0212 -0.23934,-0.0318 -0.079,0.0303 -0.53179,-0.19481 -1.09446,-0.46538 -0.53287,-0.25623 -1.10149,-0.44467 -1.25645,-0.47593 -0.15497,-0.0312 -0.38466,-0.0984 -0.46398,-0.12068 -0.15634,-0.0439 -0.66011,-0.90649 -0.66011,-1.13033 0,-0.0755 0.01,-0.19695 -0.0316,-0.24119 -0.081,-0.0864 -0.22383,-0.88735 -0.24554,-1.60344 -0.0165,-0.54433 -0.0629,-0.65976 -0.42603,-0.55562 -0.37897,0.10869 -1.204169,0.0497 -1.294293,-0.0925 -0.189396,-0.2989 0.125068,-2.37487 0.475763,-3.14079 l 0.22251,-0.48597 -0.14485,-0.59598 c -0.0797,-0.32778 -0.177535,-0.61617 -0.217479,-0.64086 -0.03994,-0.0247 -0.07277,-0.14741 -0.07294,-0.27272 -3.86e-4,-0.27802 -0.291878,-0.77817 -0.453522,-0.77817 -0.06471,0 -0.236724,-0.0238 -0.382245,-0.0529 -0.224923,-0.045 -0.264583,-0.0278 -0.264583,0.11439 0,0.15623 0.342386,0.87827 0.518049,1.09249 0.04313,0.0526 0.194727,0.1189 0.336887,0.14733 0.395153,0.079 0.294743,0.32738 -0.178356,0.44115 -0.234372,0.0564 -0.483915,0.19719 -0.650478,0.36711 -0.204552,0.20866 -0.314336,0.26166 -0.451703,0.21806 -0.127201,-0.0404 -0.241619,-0.001 -0.382595,0.13135 -0.161506,0.15173 -0.262882,0.17893 -0.514657,0.13807 -0.530584,-0.0861 -0.531329,-0.18119 -0.0054,-0.69464 0.546838,-0.5339 0.60037,-0.7565 0.282505,-1.17473 -0.307939,-0.40517 -0.478217,-0.77995 -0.478217,-1.05255 0,-0.34384 0.485197,-1.04045 0.846666,-1.21559 0.162984,-0.079 0.467784,-0.22498 0.677334,-0.32447 0.20955,-0.0995 0.613715,-0.33113 0.898146,-0.51475 0.353028,-0.2279 0.683618,-0.36318 1.041668,-0.42625 0.66986,-0.11799 0.79719,-0.28044 0.68973,-0.87997 -0.0414,-0.23123 -0.13912,-0.59186 -0.21707,-0.80141 -0.20903,-0.56194 -0.12754,-0.99425 0.24917,-1.32188 0.26095,-0.22696 0.39198,-0.27161 0.94368,-0.32161 0.75559,-0.0685 1.03099,0.0467 1.40847,0.58906 0.48762,0.70059 0.51206,1.33803 0.0706,1.84083 -0.44919,0.5116 -0.41918,1.66893 0.0433,1.66893 0.29481,0 0.77647,0.33437 0.87779,0.60937 0.34692,0.9416 0.6699,1.33743 1.09291,1.33943 0.17048,8.5e-4 0.58543,0.0375 0.91138,0.10654 0.95428,0.20214 1.35621,0.19167 1.69753,-0.10801 0.15911,-0.1397 0.36742,-0.25266 0.47204,-0.292 0.10883,-0.0409 0.29476,-0.0633 0.43426,-0.0794 0.24042,-0.0914 0.47789,-10e-4 0.47753,0.1476 -8e-5,0.0532 -0.14182,0.17297 -0.31487,0.26611 -0.35162,0.18923 -0.70187,0.65153 -0.69904,0.92269 0.001,0.12229 0.0512,0.0694 0.15947,-0.16907 0.22485,-0.49511 0.62491,-0.75689 1.13204,-0.74075 0.2224,0.007 0.50044,0.0758 0.61787,0.15276 0.74352,0.48717 0.7115,1.65791 -0.0578,2.11233 -0.31795,0.18781 -0.88592,0.17123 -1.22064,-0.0356 -0.24956,-0.15424 -0.54817,-0.60744 -0.54817,-0.83196 0,-0.0484 -0.0422,-0.11412 -0.0937,-0.14598 -0.0625,-0.0386 -0.0755,-3.4e-4 -0.0389,0.11488 0.0951,0.29959 -0.13024,0.31793 -0.36701,0.0299 -0.26483,-0.32218 -0.36569,-0.32598 -1.23603,-0.0465 -0.50993,0.16377 -0.77474,0.2049 -1.07145,0.1664 -0.22689,-0.0294 -0.47258,0.0112 -0.5929,0.066 -0.15546,0.0708 -0.26567,0.0763 -0.40053,0.004 -0.25895,-0.13859 -0.31378,0.077 -0.11545,0.41275 0.0841,0.14236 0.25611,0.44347 0.3769,0.68164 0.23542,0.46419 0.60752,0.95974 1.15095,1.53281 0.18627,0.19642 0.42261,0.50949 0.55559,0.68141 0.28904,0.37369 0.69506,0.63673 0.98589,0.63868 0.11642,7.7e-4 0.49237,0.18939 0.83546,0.41911 0.34308,0.22973 0.74313,0.44343 0.889,0.47489 0.44998,0.0971 0.90361,0.37128 1.3685,0.82724 0.50062,0.491 0.61666,0.79558 0.56461,1.48197 l -0.0343,0.45234 -0.35113,-0.0418 c -1.44931,-0.17241 -1.70982,-0.23867 -2.27378,-0.57832 -0.32107,-0.19337 -0.72593,-0.36288 -0.93133,-0.38995 -0.19985,-0.0263 -0.43956,-0.0965 -0.53269,-0.15587 -0.18783,-0.11979 -1.28536,-0.16799 -1.7145,-0.0753 -0.23118,0.0499 -0.27517,0.0975 -0.27517,0.29768 0,0.15329 -0.0755,0.29762 -0.21167,0.40474 -0.11641,0.0916 -0.21166,0.2336 -0.21166,0.3156 0,0.13909 0.0104,0.13969 0.15483,0.009 0.31162,-0.28201 1.00615,-0.11672 1.35085,0.32149 0.0913,0.11605 0.33071,0.34863 0.53206,0.51686 0.70781,0.59136 1.03635,1.21442 0.707,1.34081 -0.16728,0.0642 -0.14579,0.0677 -0.75381,-0.12289 z m 0.74324,-0.0481 c 0.10534,-0.10533 -0.19533,-0.50947 -0.85072,-1.14347 -0.74503,-0.72072 -1.12691,-0.95837 -1.42126,-0.88449 -0.25516,0.064 -0.28879,0.2121 -0.22144,0.97491 l 0.0556,0.62955 0.67088,0.11301 c 0.36899,0.0622 0.84524,0.16673 1.05834,0.23239 0.43606,0.13435 0.6309,0.15582 0.70862,0.0781 z m -2.90351,-1.38431 c 0,-0.8076 0.009,-0.85081 0.21167,-0.98341 0.16404,-0.10748 0.21167,-0.21076 0.21167,-0.45902 v -0.32034 l 0.5715,-0.0542 c 0.66359,-0.063 1.52512,-3.4e-4 1.67194,0.1215 0.0559,0.0464 0.29667,0.12138 0.53499,0.16657 0.24664,0.0468 0.63187,0.21402 0.89423,0.38821 0.36404,0.24172 0.58845,0.32205 1.06768,0.38223 0.33372,0.0419 0.75709,0.11666 0.94083,0.16614 0.18374,0.0495 0.37129,0.0669 0.41678,0.0388 0.10953,-0.0677 0.10599,-0.81556 -0.005,-1.10814 -0.0957,-0.25171 -0.84183,-0.99233 -1.18203,-1.1733 -0.11642,-0.0619 -0.36781,-0.1546 -0.55864,-0.20594 -0.19084,-0.0513 -0.60974,-0.26593 -0.93089,-0.47686 -0.32115,-0.21093 -0.72554,-0.40616 -0.89866,-0.43384 -0.355,-0.0568 -0.896,-0.47891 -1.15891,-0.90431 -0.0948,-0.15346 -0.26479,-0.32844 -0.37765,-0.38884 -0.11287,-0.0604 -0.24667,-0.20082 -0.29735,-0.31204 -0.0507,-0.11122 -0.24538,-0.36847 -0.43268,-0.57167 -0.1873,-0.2032 -0.34055,-0.42962 -0.34055,-0.50315 0,-0.0735 -0.0295,-0.15195 -0.0656,-0.17424 -0.13554,-0.0838 -0.63353,-1.14522 -0.59024,-1.25806 0.0344,-0.0897 0.27957,-0.12176 1.03131,-0.13486 0.80293,-0.014 1.09835,-0.0564 1.59009,-0.2282 0.72894,-0.25467 0.84299,-0.25947 1.03829,-0.0437 0.18313,0.20236 0.29814,0.15058 0.29814,-0.1342 0,-0.31353 0.20705,-0.65709 0.59735,-0.99117 l 0.3478,-0.29771 -0.36674,0.0451 c -0.36475,0.0448 -0.49279,0.10829 -0.93904,0.46531 -0.22584,0.18069 -0.25688,0.18333 -0.93133,0.0792 -0.38374,-0.0592 -0.99066,-0.14776 -1.34872,-0.19675 l -0.65102,-0.0891 -0.30414,-0.45807 c -0.16728,-0.25194 -0.32691,-0.5719 -0.35473,-0.71103 -0.0648,-0.32385 -0.47724,-0.67298 -0.79509,-0.67298 -0.36056,0 -0.53182,-0.37583 -0.48761,-1.0701 0.0285,-0.44763 0.0737,-0.57694 0.27507,-0.78713 0.17776,-0.18554 0.25138,-0.35992 0.28067,-0.66479 0.0468,-0.48661 -0.10079,-0.83402 -0.55598,-1.30914 -0.29351,-0.30636 -0.32454,-0.3175 -0.88388,-0.3175 -0.94874,0 -1.33532,0.30681 -1.33058,1.056 0.001,0.23412 0.056,0.49601 0.12113,0.58199 0.0651,0.086 0.1448,0.40241 0.17701,0.70318 0.0533,0.4973 0.0409,0.5656 -0.1359,0.75384 -0.13489,0.14358 -0.28719,0.20756 -0.4972,0.20885 -0.36123,0.002 -0.79175,0.18915 -1.514583,0.65764 -0.293982,0.19054 -0.723401,0.40918 -0.954265,0.48586 -0.316691,0.10519 -0.492077,0.23414 -0.71432,0.5252 -0.415882,0.54467 -0.403984,0.90136 0.05349,1.60352 0.42969,0.65951 0.404968,0.83889 -0.193314,1.40264 l -0.42562,0.40105 0.231532,0.088 c 0.179412,0.0682 0.276611,0.0585 0.431772,-0.0432 0.110131,-0.0722 0.200239,-0.17266 0.200239,-0.22334 0,-0.0592 0.104395,-0.0725 0.29176,-0.0374 0.239348,0.0449 0.308243,0.0239 0.38351,-0.1167 0.11411,-0.21322 0.515914,-0.42719 0.802192,-0.42719 0.292836,0 0.268575,-0.10081 -0.06113,-0.254 -0.351472,-0.16331 -0.755922,-0.92343 -0.720802,-1.35467 0.01743,-0.21397 0.05943,-0.28754 0.151134,-0.2647 0.06985,0.0174 0.256577,0.0623 0.414948,0.0998 0.380274,0.09 0.605152,0.32748 0.688754,0.72729 0.03756,0.17964 0.131283,0.49731 0.208263,0.70593 0.25231,0.68378 0.25685,1.10194 0.0175,1.61577 -0.240882,0.5172 -0.482848,1.7997 -0.482848,2.55921 v 0.50279 l 0.867838,-0.0309 0.86783,-0.0309 0.0183,0.46567 c 0.0332,0.84433 0.15571,1.68954 0.26005,1.79388 0.0565,0.0565 0.10265,0.17021 0.10265,0.25279 0,0.0826 0.0844,0.32393 0.18764,0.53636 0.16813,0.34606 0.2343,0.39978 0.63632,0.51665 0.24677,0.0717 0.83861,0.31647 1.31519,0.54385 0.47658,0.22738 0.91414,0.41501 0.97235,0.41695 0.0778,0.003 0.10583,-0.21999 0.10583,-0.84119 z m 0.2307,0.0631 c -0.0189,-0.15218 -0.0346,-0.0481 -0.0351,0.23132 -5.1e-4,0.2794 0.0149,0.4039 0.0343,0.27668 0.0193,-0.12722 0.0197,-0.35582 8.7e-4,-0.508 z m 5.53797,-7.65354 c 0.52815,-0.506 0.48663,-1.31429 -0.0874,-1.70055 -0.90019,-0.60576 -2.04658,0.37277 -1.55666,1.32872 0.35252,0.68783 1.13051,0.86379 1.64401,0.37183 z m 17.89917,-16.61923 c -33.193368,23.09402 -16.59668,11.54701 0,0 z"
         style="fill:#196e92;stroke-width:0.0846667" />
      <path
         id="path121"
         d="m 120.57836,144.41791 c -0.35445,-0.18997 -0.57394,-0.19745 -0.71752,-0.0244 -0.13032,0.15702 -0.4194,0.1307 -0.50981,-0.0464 -0.0357,-0.0699 -0.0998,-0.53993 -0.14249,-1.04462 -0.076,-0.89799 -0.0893,-0.94053 -0.62116,-1.98966 -0.51585,-1.01754 -0.56697,-1.08604 -1.00541,-1.34722 -0.48584,-0.28942 -0.9622,-0.35723 -1.2873,-0.18325 -0.13936,0.0746 -0.20916,0.0568 -0.37016,-0.0945 -0.11805,-0.1109 -0.34627,-0.20219 -0.56351,-0.22541 -0.31402,-0.0336 -0.54873,0.0431 -1.67744,0.54759 -0.72178,0.32263 -1.65523,0.71427 -2.07433,0.8703 -0.4191,0.15604 -0.9144,0.38634 -1.10067,0.51179 -0.18626,0.12544 -0.60536,0.2874 -0.93133,0.3599 -2.42454,0.53926 -2.99927,0.64476 -3.24483,0.59565 -0.1852,-0.037 -0.40225,0.004 -0.70053,0.13226 -0.2862,0.12312 -0.68903,0.20256 -1.19261,0.23518 -0.66988,0.0434 -0.76852,0.0704 -0.82835,0.22678 -0.0374,0.0976 -0.14751,0.24921 -0.2448,0.33685 -0.15288,0.1377 -0.21077,0.1453 -0.42647,0.0559 -0.19618,-0.0813 -0.34794,-0.0814 -0.70936,-5.1e-4 -0.61951,0.13865 -1.03426,0.008 -1.22115,-0.38353 -0.16905,-0.35451 -0.0939,-0.67316 0.23013,-0.97585 0.30222,-0.2823 2.00019,-0.92973 2.43838,-0.92973 0.24419,0 0.46326,-0.10086 0.94951,-0.43716 0.34764,-0.24043 0.81035,-0.52683 1.02823,-0.63643 0.43669,-0.21967 0.72882,-0.61236 0.80506,-1.0822 l 0.0487,-0.30008 -0.56283,-0.2552 c -0.5414,-0.24548 -0.57283,-0.25002 -0.82574,-0.11923 -0.59058,0.3054 -1.16993,-0.0865 -1.76103,-1.19137 -0.31309,-0.58519 -0.3234,-0.59441 -0.81737,-0.73101 -0.65682,-0.18163 -1.26291,-0.42717 -2.18329,-0.88451 -0.414127,-0.20578 -0.815935,-0.37414 -0.892903,-0.37414 -0.07697,0 -0.289405,0.0762 -0.472081,0.16933 -0.382701,0.19511 -0.541557,0.20828 -0.844979,0.07 -0.167218,-0.0762 -0.241315,-0.0759 -0.318343,0.001 -0.07742,0.0774 -0.0292,0.24065 0.210658,0.71314 0.17108,0.33701 0.368369,0.70799 0.438421,0.82441 0.07005,0.11641 0.243383,0.49935 0.385182,0.85096 0.310947,0.77104 1.165225,1.76749 1.751625,2.04313 0.43098,0.20258 0.6211,0.43541 0.6211,0.76061 0,0.43567 -0.21633,0.49396 -1.833122,0.49396 -1.578635,0 -1.722875,-0.0392 -1.722875,-0.4688 0,-0.11149 -0.213637,-0.53045 -0.474749,-0.93103 -0.261112,-0.40058 -0.730808,-1.19247 -1.043769,-1.75975 -0.824861,-1.49516 -0.880581,-1.58062 -1.030889,-1.58121 -0.105231,-4.3e-4 -0.146926,0.11546 -0.182428,0.50698 -0.02531,0.27914 -0.117881,0.63157 -0.20571,0.78317 -0.153239,0.26451 -1.833027,1.48915 -2.887474,2.1051 -0.467721,0.27321 -0.522768,0.41945 -0.18767,0.49856 0.108767,0.0257 0.272042,0.14618 0.362833,0.26778 0.146915,0.19678 0.152412,0.2475 0.04997,0.461 -0.173151,0.36085 -0.580183,0.4429 -2.234105,0.45036 -1.805586,0.008 -1.858817,-0.0153 -1.790511,-0.78787 0.112097,-1.2679 0.198808,-1.40668 1.369505,-2.19193 1.094462,-0.73411 2.191207,-1.52102 2.263537,-1.62407 0.03421,-0.0487 0.06279,-0.12064 0.0635,-0.15978 6.78e-4,-0.0391 -0.523782,-0.61082 -1.165545,-1.27042 -1.147888,-1.17979 -1.169898,-1.20958 -1.354936,-1.83385 -0.10345,-0.34901 -0.187971,-0.80053 -0.187824,-1.00337 1.69e-4,-0.21531 0.195241,-0.97294 0.468723,-1.82034 0.281299,-0.87162 0.555405,-1.942 0.686094,-2.67919 0.25415,-1.43362 0.495926,-2.29335 0.727869,-2.58821 0.09107,-0.11579 0.309688,-0.28403 0.48581,-0.37388 0.377395,-0.19253 0.453038,-0.3424 0.332189,-0.65815 -0.04886,-0.12765 -0.08906,-0.39335 -0.08935,-0.59045 -0.0012,-0.84926 0.411285,-1.36654 1.264219,-1.58534 0.867588,-0.22256 1.286172,-0.0319 1.665299,0.75836 0.08936,0.18627 0.266033,0.51012 0.392613,0.71967 0.209112,0.34618 0.228697,0.44967 0.214304,1.13248 l -0.01584,0.75149 0.372893,0.15984 c 0.205092,0.0879 0.473292,0.23029 0.596,0.3164 0.122709,0.0861 0.427473,0.2082 0.677251,0.27132 0.452277,0.11428 0.454974,0.11379 0.656167,-0.12011 0.264019,-0.30694 0.256875,-0.37998 -0.09409,-0.96202 -0.400269,-0.6638 -0.409442,-1.16891 -0.03203,-1.76402 0.322894,-0.50914 0.405646,-0.57296 1.047818,-0.80805 0.2794,-0.10228 0.742592,-0.35299 1.029317,-0.55715 0.361317,-0.25726 0.712126,-0.42016 1.143006,-0.53077 l 0.62168,-0.15959 -0.0267,-0.41008 c -0.0147,-0.22554 -0.0755,-0.48628 -0.13519,-0.57941 -0.0597,-0.0931 -0.13454,-0.3679 -0.16633,-0.6106 -0.0703,-0.53712 0.0651,-0.91082 0.44631,-1.2316 0.33979,-0.28591 0.67181,-0.37508 1.36355,-0.36619 0.64869,0.008 0.95817,0.19328 1.35231,0.8081 0.4742,0.73971 0.47552,1.45546 0.004,2.11779 -0.26252,0.36868 -0.32223,0.88881 -0.12682,1.10473 0.0833,0.0921 0.21314,0.16744 0.28844,0.16744 0.26129,0 0.74749,0.49401 0.88585,0.90008 0.0737,0.21625 0.23169,0.5213 0.35112,0.67789 0.17689,0.23191 0.27522,0.28497 0.53035,0.28616 0.17225,8.5e-4 0.57987,0.058 0.90582,0.127 0.90514,0.19173 1.11016,0.1678 1.64484,-0.19197 0.54182,-0.36457 0.59579,-0.42394 0.59756,-0.65742 0.002,-0.27085 0.32389,-0.8122 0.7335,-1.23382 0.33871,-0.34865 0.38559,-0.44663 0.45788,-0.95708 0.0601,-0.42472 0.0537,-0.61959 -0.0256,-0.76984 -0.19691,-0.37322 -1.52289,-1.91386 -1.61926,-1.88141 -0.0625,0.0211 -0.0856,0.23563 -0.0666,0.62134 0.028,0.57089 0.0193,0.60087 -0.28038,0.96629 -0.1701,0.20741 -0.36553,0.4459 -0.43427,0.52997 -0.08,0.0978 -0.18444,0.13399 -0.29011,0.10045 -0.0932,-0.0296 -0.27377,0.0118 -0.41459,0.0949 -0.20691,0.12222 -0.27207,0.1286 -0.38201,0.0374 -0.21476,-0.17823 -0.16857,-0.81999 0.0968,-1.34439 l 0.22931,-0.45321 -0.19838,-0.14964 c -0.15924,-0.12012 -0.1901,-0.20599 -0.15643,-0.43537 0.0231,-0.15716 -0.0151,-0.453 -0.0847,-0.65744 -0.0885,-0.2598 -0.11273,-0.55578 -0.0804,-0.9832 l 0.0462,-0.61151 -0.53425,-0.66943 c -0.48452,-0.60711 -0.60399,-0.70336 -1.28363,-1.03413 -1.24457,-0.60571 -1.63684,-0.91216 -1.95403,-1.52652 -0.30672,-0.59409 -0.37482,-1.27579 -0.15832,-1.58489 0.0653,-0.0932 0.16185,-0.32973 0.2146,-0.52561 0.25805,-0.95835 1.38773,-1.33771 2.18122,-0.73249 0.68208,0.52025 0.72674,1.55349 0.0954,2.20807 -0.14208,0.14732 -0.23274,0.30925 -0.20147,0.35984 0.0313,0.0506 0.26604,0.092 0.52172,0.092 0.43035,0 0.96326,0.17647 0.96537,0.31967 0.002,0.1057 0.73783,0.86566 0.83868,0.86566 0.0528,0 0.12913,-0.0873 0.16969,-0.19398 0.10687,-0.28108 0.24402,-0.36201 0.79457,-0.46885 0.5977,-0.11598 1.18406,-0.012 1.62675,0.28839 0.16624,0.11281 0.36361,0.20511 0.43861,0.20511 0.18314,0 0.71915,0.57404 0.9084,0.97285 0.14486,0.30527 0.14526,0.33732 0.008,0.62539 -0.1734,0.36361 -0.21846,0.32052 1.07542,1.02856 1.07537,0.58847 1.35057,0.90053 1.39738,1.58453 0.0332,0.48462 0.0374,0.49151 0.68436,1.10225 0.44807,0.42301 0.84894,0.70912 1.286,0.91784 0.34925,0.16679 0.84455,0.42956 1.10067,0.58393 0.5679,0.34231 1.07807,0.49551 1.69333,0.50849 0.51222,0.0108 0.85281,0.14968 1.4605,0.59545 0.4559,0.33443 0.52841,0.61869 0.214,0.83891 -0.24224,0.16966 -0.49469,0.1668 -0.86505,-0.01 -0.24116,-0.11501 -0.3379,-0.12296 -0.51486,-0.0423 -0.29854,0.13603 -0.67761,0.12447 -0.97584,-0.0297 -0.13722,-0.071 -0.58301,-0.19912 -0.99062,-0.28478 -0.40762,-0.0857 -1.15435,-0.28399 -1.65939,-0.44074 -0.88999,-0.27621 -0.92186,-0.28007 -1.035,-0.12533 -0.14626,0.20001 -0.3708,0.96097 -0.46403,1.57254 -0.16829,1.10397 -0.36556,1.74716 -0.87391,2.84939 -0.29737,0.64475 -0.58929,1.31035 -0.64872,1.47911 -0.10885,0.30912 -0.0717,0.58216 0.0791,0.58216 0.0939,0 0.66427,-0.59718 1.20379,-1.26031 0.50238,-0.61748 1.24691,-1.3575 1.55632,-1.5469 0.1397,-0.0855 0.41344,-0.15563 0.60832,-0.1558 0.46577,-4.3e-4 0.78821,-0.12918 0.79061,-0.31572 0.001,-0.0827 0.12489,-0.39715 0.27516,-0.69889 0.33273,-0.66807 0.6812,-0.93304 1.22705,-0.93304 0.32507,0 0.42366,0.0452 0.69901,0.32057 0.39738,0.39737 0.54292,0.88691 0.47683,1.60384 -0.0485,0.52552 -0.0476,0.52823 0.24936,0.75469 0.32001,0.24408 0.53862,0.59648 0.62279,1.0039 0.0744,0.36019 0.3154,0.36317 0.99676,0.0123 0.31539,-0.1624 0.78299,-0.39276 1.0391,-0.5119 0.25612,-0.11914 0.57868,-0.308 0.7168,-0.4197 0.21971,-0.17768 0.2396,-0.22837 0.159,-0.40526 -0.0646,-0.14176 -0.0679,-0.48007 -0.011,-1.13215 0.1065,-1.22071 0.1873,-1.31752 1.34918,-1.61661 0.43011,-0.11072 0.51347,-0.10908 0.82689,0.0163 0.44149,0.17665 1.00072,0.80352 1.07633,1.20651 0.0315,0.16792 0.0186,0.49393 -0.0286,0.72447 -0.0807,0.39395 -0.0679,0.4552 0.21277,1.01857 0.37731,0.75732 0.43482,1.28845 0.20242,1.86942 -0.178,0.44497 -0.52955,1.30182 -1.10865,2.70217 -0.20256,0.48983 -0.34716,0.97634 -0.34716,1.16803 0,0.33468 -0.3148,1.40857 -0.60564,2.06606 -0.22817,0.51582 -0.51648,0.82874 -1.07762,1.16962 -0.47602,0.28916 -1.53408,1.39498 -1.53408,1.60333 0,0.11168 1.41969,1.07061 1.87917,1.26927 0.38684,0.16726 1.27054,0.9028 1.39025,1.15717 0.59714,1.26885 0.6102,1.71146 0.057,1.93124 -0.9963,0.39582 -2.12283,0.52975 -2.87112,0.34132 -0.69521,-0.17505 -0.80497,-0.7347 -0.20495,-1.04498 0.14172,-0.0733 0.25767,-0.18485 0.25767,-0.24791 0,-0.16141 -2.23767,-1.36515 -2.76277,-1.48622 -0.2812,-0.0648 -0.51823,-0.18763 -0.67201,-0.34813 -0.18134,-0.18929 -0.31396,-0.24797 -0.56039,-0.24797 -0.17756,0 -0.32283,0.0408 -0.32283,0.0907 0,0.0499 0.24067,0.3261 0.53482,0.61384 0.29415,0.28773 0.67078,0.6946 0.83696,0.90415 0.2715,0.34239 0.80241,1.58084 0.96183,2.24367 0.10015,0.41642 0.3416,0.82819 0.67023,1.143 0.59892,0.57374 0.86484,1.28741 0.5745,1.54184 -0.23476,0.20573 -0.67331,0.22894 -1.00154,0.053 z m 0.34439,-0.2405 c 0.0289,-0.0467 0.14544,-0.0617 0.259,-0.0332 0.18646,0.0468 0.20648,0.0257 0.20648,-0.21764 0,-0.20977 -0.10076,-0.37592 -0.45487,-0.75001 -0.54427,-0.575 -0.63357,-0.74107 -0.98767,-1.83682 -0.42893,-1.32728 -0.59446,-1.58906 -1.76573,-2.7924 -3.40266,-3.49582 -3.21847,-3.22546 -2.83969,-4.16835 0.22864,-0.56916 0.22939,-0.57778 0.11223,-1.29265 l -0.11794,-0.71966 -0.381,-0.18701 c -0.30331,-0.14888 -0.53371,-0.18772 -1.12993,-0.1905 -0.96347,-0.004 -1.27085,0.14289 -1.21984,0.58486 0.0185,0.16061 -0.0223,0.50351 -0.0908,0.762 -0.0685,0.25849 -0.11851,0.62238 -0.11122,0.80865 0.007,0.18626 0.0132,0.52058 0.0131,0.74291 -1.7e-4,0.34882 0.0288,0.41744 0.21092,0.50043 0.11609,0.0529 0.21108,0.12292 0.21108,0.15561 0,0.11267 -1.18667,0.94158 -1.46033,1.02007 -0.52436,0.15038 -1.00977,0.0921 -1.46067,-0.17536 -0.23284,-0.13811 -0.54237,-0.25176 -0.68786,-0.25255 -0.14549,-8e-4 -0.4265,-0.0586 -0.62448,-0.12845 -0.19797,-0.0699 -0.49804,-0.12729 -0.66681,-0.12764 -0.16877,-3.4e-4 -0.5545,-0.0762 -0.85719,-0.16851 -0.30268,-0.0923 -0.87418,-0.20866 -1.27,-0.25853 -0.75083,-0.0946 -1.19424,-0.24413 -2.11666,-0.71378 -0.67204,-0.34216 -0.98137,-0.42764 -2.48699,-0.68725 -1.47241,-0.25388 -1.755764,-0.25747 -1.966058,-0.0249 -0.239832,0.26519 -0.74977,0.49899 -1.088341,0.49899 -0.483898,0 -1.16025,-0.30005 -1.4536,-0.64486 -0.303887,-0.35719 -0.455681,-0.32362 -0.455681,0.10077 0,0.36559 0.258725,0.54244 1.232035,0.84216 0.823082,0.25346 1.183666,0.26309 1.519631,0.0406 0.1397,-0.0925 0.320226,-0.16846 0.401168,-0.16877 0.08094,-3.4e-4 0.665086,0.25325 1.298096,0.56345 0.77814,0.38133 1.40677,0.62434 1.94077,0.75027 0.65107,0.15353 0.94299,0.28129 1.66151,0.72715 0.47942,0.2975 1.01827,0.69234 1.19744,0.87742 0.17918,0.18508 0.54281,0.45226 0.80807,0.59372 0.43954,0.23441 0.47984,0.27962 0.45474,0.51015 -0.0151,0.13912 -0.11039,0.46137 -0.21166,0.7161 -0.17053,0.42894 -0.22962,0.48836 -0.79987,0.80434 -0.33866,0.18764 -0.83396,0.50297 -1.10067,0.70073 -0.34348,0.25467 -0.56772,0.35963 -0.76877,0.35983 -0.33383,3.4e-4 -1.61083,0.41439 -2.20217,0.71404 -0.54186,0.27458 -0.68487,0.63448 -0.36658,0.92253 0.12601,0.11404 0.31488,0.13401 1.06807,0.11297 l 0.91498,-0.0256 0.10801,-0.25689 c 0.12796,-0.30432 0.30333,-0.36279 1.1002,-0.36685 0.42287,-0.002 0.70182,-0.0545 0.97367,-0.18262 0.27799,-0.13104 0.52972,-0.17673 0.9311,-0.16897 0.30256,0.006 0.75976,-0.0425 1.016,-0.10751 0.25624,-0.065 0.95629,-0.22367 1.55567,-0.35263 0.78641,-0.1692 1.18708,-0.30045 1.43933,-0.47148 0.19226,-0.13035 0.38116,-0.23769 0.41979,-0.23854 0.14611,-0.003 2.00971,-0.77853 3.71092,-1.54388 l 0.56382,-0.25365 0.54226,0.13599 c 0.29824,0.0748 0.71568,0.136 0.92764,0.136 0.27005,0 0.55999,0.0873 0.96884,0.29189 0.65382,0.32709 0.8311,0.55968 1.47241,1.9318 0.35897,0.76805 0.50555,1.39262 0.50639,2.15781 3.4e-4,0.3359 0.0311,0.4445 0.12588,0.4445 0.069,0 0.14929,-0.0952 0.17851,-0.21167 0.0693,-0.27616 0.19586,-0.267 0.5851,0.0423 0.34423,0.27356 0.42665,0.30097 0.50819,0.16903 z m -29.18902,-3.35078 c 0.228343,-0.14881 0.244378,-0.27805 0.04233,-0.34121 -0.432936,-0.13534 -0.9525,-0.41449 -0.9525,-0.51175 0,-0.0611 0.196176,-0.21051 0.435946,-0.33201 0.830904,-0.42105 3.175259,-2.06293 3.282912,-2.29921 0.05676,-0.12457 0.125139,-0.41176 0.151957,-0.63819 0.03914,-0.33047 0.0112,-0.47852 -0.141572,-0.75036 -0.104684,-0.18625 -0.169878,-0.3591 -0.144877,-0.3841 0.09318,-0.0932 0.966994,0.38247 1.133881,0.61722 0.09529,0.13403 0.412009,0.68185 0.703824,1.21736 0.291816,0.53552 0.781905,1.37191 1.089085,1.85864 0.307181,0.48673 0.599964,1.00108 0.650627,1.143 l 0.09212,0.25803 1.26255,0.0243 c 0.694407,0.0134 1.350747,0.002 1.458547,-0.0242 0.3624,-0.0895 0.19572,-0.38456 -0.46279,-0.81911 -0.716416,-0.47275 -1.316072,-1.17178 -1.657928,-1.93267 -0.135992,-0.30268 -0.513916,-1.08907 -0.839832,-1.74753 -0.540826,-1.09264 -0.615428,-1.20176 -0.854274,-1.24953 -0.409622,-0.0819 -0.796955,-0.42856 -0.930429,-0.83266 -0.122131,-0.36977 -0.173973,-0.41499 -1.077193,-0.93969 -0.253981,-0.14754 -0.53336,-0.39147 -0.620843,-0.54208 -0.254316,-0.4378 -0.0894,-0.77322 0.822843,-1.67351 0.967358,-0.95468 2.292638,-2.04277 2.868337,-2.35498 0.376023,-0.20392 0.50921,-0.23262 0.922835,-0.19884 0.548987,0.0448 0.588252,0.0163 0.738089,-0.53651 0.209631,-0.7734 0.210279,-0.75005 -0.02242,-0.80845 -0.137537,-0.0345 -0.286323,-0.005 -0.408963,0.0808 -0.224212,0.15705 -0.599088,0.17524 -0.849489,0.0412 -0.139972,-0.0749 -0.238452,-0.0583 -0.489089,0.0826 -0.252712,0.14203 -0.367489,0.16099 -0.589378,0.0974 -0.39705,-0.11388 -0.51314,-0.23954 -0.51314,-0.55545 0,-0.24637 -0.03239,-0.28625 -0.275166,-0.33883 -0.151342,-0.0328 -0.374889,-0.13005 -0.496772,-0.21616 -0.121882,-0.0861 -0.502882,-0.25665 -0.846666,-0.37896 -0.343784,-0.12232 -0.679817,-0.27468 -0.746739,-0.3386 -0.104664,-0.1 -0.07803,-0.13445 0.1905,-0.24665 0.344961,-0.14413 0.351414,-0.15967 0.221319,-0.53286 -0.06608,-0.18956 -0.06444,-0.30999 0.006,-0.44165 0.07818,-0.14607 0.06712,-0.22476 -0.05731,-0.40771 -0.0848,-0.12469 -0.288378,-0.49242 -0.452393,-0.81719 -0.24854,-0.49214 -0.344681,-0.60382 -0.577203,-0.67051 -0.388096,-0.1113 -1.252955,0.0588 -1.505565,0.29611 -0.361906,0.33999 -0.449088,0.9875 -0.241339,1.79245 0.07324,0.28376 -0.09833,0.5059 -0.580982,0.75223 -0.452818,0.23111 -0.603336,0.62406 -0.950693,2.48192 -0.198697,1.06274 -0.442831,2.01398 -0.765398,2.98226 -0.40888,1.22739 -0.468056,1.48546 -0.432807,1.88745 0.0843,0.96136 0.182822,1.13079 1.400568,2.40856 1.24713,1.30861 1.40963,1.51288 1.34257,1.68763 -0.05551,0.14467 -1.009721,0.86692 -2.089942,1.5819 -1.197605,0.79267 -1.439333,0.9974 -1.439333,1.21902 0,0.10682 -0.05923,0.33596 -0.131614,0.50921 -0.07239,0.17325 -0.120014,0.45413 -0.105834,0.62418 l 0.02578,0.30917 0.550333,0.0545 c 0.885532,0.0876 2.636344,-0.002 2.8575,-0.14588 z m 2.251944,-9.47897 c -0.05872,-0.15302 0.261284,-2.1728 0.444414,-2.80502 0.175508,-0.6059 0.247873,-0.64763 1.027373,-0.59238 1.299402,0.0921 2.147844,0.2 2.231646,0.2838 0.05729,0.0573 -0.155902,0.26055 -0.649254,0.61899 -0.404005,0.29353 -1.220147,1.00416 -1.813648,1.57918 -0.5935,0.57502 -1.104186,1.04549 -1.134857,1.04549 -0.03067,0 -0.07823,-0.0585 -0.105674,-0.13006 z m 2.553522,-2.47335 c 0.308639,-0.25115 0.325429,-0.28489 0.193089,-0.38798 -0.186165,-0.14501 -1.205847,-0.33591 -1.590133,-0.29769 -0.221222,0.022 -0.32279,0.0861 -0.403077,0.2545 -0.171102,0.35883 -0.434904,2.04394 -0.33898,2.16532 0.06112,0.0773 0.305289,-0.0983 0.941788,-0.67733 0.472603,-0.42996 1.011394,-0.90553 1.197313,-1.05682 z m 27.812364,11.94195 c 0.65821,-0.15704 0.93134,-0.31178 0.93134,-0.52763 0,-0.0879 -0.0823,-0.38231 -0.18294,-0.65421 -0.22901,-0.61888 -0.76832,-1.19602 -1.4603,-1.56271 -0.5137,-0.27222 -1.67938,-1.02039 -2.0821,-1.33635 -0.24671,-0.19357 -0.26409,-0.15745 0.49861,-1.03612 0.29751,-0.34275 0.69208,-0.71844 0.87681,-0.83486 0.52103,-0.32835 1.07139,-0.84529 1.20783,-1.13449 0.26905,-0.57031 0.63409,-1.79473 0.63409,-2.12687 0,-0.22557 0.13832,-0.68117 0.38719,-1.27529 0.21296,-0.50839 0.43801,-1.0577 0.50012,-1.22068 0.0621,-0.16298 0.23307,-0.55773 0.37991,-0.87722 0.40232,-0.87538 0.42181,-1.27114 0.0968,-1.96565 -0.14667,-0.31344 -0.3311,-0.61699 -0.40984,-0.67456 -0.12118,-0.0886 -0.12743,-0.13922 -0.0407,-0.32961 0.0564,-0.12371 0.10249,-0.45538 0.10249,-0.73704 0,-0.58281 -0.15857,-0.8788 -0.62535,-1.16728 -0.33716,-0.20838 -0.63287,-0.21996 -1.21354,-0.0475 -0.73939,0.21957 -0.78322,0.28946 -0.83194,1.32649 -0.0268,0.57116 -0.0106,0.92366 0.0442,0.9575 0.0477,0.0294 0.0867,0.14513 0.0867,0.25707 0,0.2647 -0.62844,0.69329 -1.9685,1.3425 -0.54716,0.26508 -0.99484,0.51281 -0.99484,0.55052 0,0.28793 1.31451,0.77184 2.09873,0.77261 0.70947,6.7e-4 1.06128,0.12722 1.40182,0.50415 0.51596,0.57111 0.51703,1.29712 0.003,1.86637 -0.6034,0.66789 -1.32548,0.66155 -2.00464,-0.0176 -0.46304,-0.46304 -0.51783,-0.45033 -0.61453,0.14255 -0.11802,0.72367 -0.5075,1.15119 -1.16023,1.27356 -0.17514,0.0328 -0.34042,0.0953 -0.36729,0.13875 -0.0533,0.0863 -0.19362,1.61322 -0.25935,2.82275 l -0.0414,0.762 0.32391,0.31137 c 0.17815,0.17125 0.44493,0.42269 0.59285,0.55876 0.32264,0.29679 0.43702,0.76337 0.28811,1.17519 -0.0561,0.15512 -0.0788,0.3195 -0.0505,0.36529 0.0283,0.0458 0.58314,0.37435 1.23297,0.73011 0.64983,0.35576 1.18151,0.67456 1.18151,0.70844 0,0.0931 -0.26281,0.30444 -0.57586,0.46306 -0.55477,0.28111 -0.44293,0.56064 0.26044,0.65094 0.52329,0.0672 1.00357,0.025 1.75475,-0.15428 z m -4.01599,-2.85832 c 0.1804,-0.27532 0.0404,-0.72717 -0.30887,-0.99668 -0.77089,-0.59489 -0.90143,-0.7716 -0.9632,-1.30379 -0.0411,-0.35402 -0.0206,-0.65016 0.067,-0.96896 0.0694,-0.25252 0.14911,-0.85459 0.17709,-1.33794 l 0.0509,-0.87882 -0.29748,-0.53194 c -0.16361,-0.29257 -0.29748,-0.57619 -0.29748,-0.63027 0,-0.0541 -0.20447,-0.33934 -0.45438,-0.63393 -0.55864,-0.65848 -1.10042,-1.53549 -1.04224,-1.68711 0.0507,-0.13219 1.03726,-0.89745 1.15695,-0.89745 0.045,0 0.14688,0.10478 0.22647,0.23283 0.15311,0.24636 0.80157,0.89339 1.08754,1.08513 0.0935,0.0627 0.47792,0.13967 0.85425,0.17106 0.6478,0.054 0.69437,0.0463 0.87435,-0.14448 0.10455,-0.11085 0.24565,-0.30758 0.31354,-0.43718 0.12049,-0.23 0.11677,-0.23835 -0.15535,-0.34906 -0.15334,-0.0624 -0.48146,-0.16081 -0.72916,-0.21872 -0.2477,-0.0579 -0.4845,-0.14847 -0.52622,-0.20126 -0.0417,-0.0528 -0.19148,-0.23437 -0.3328,-0.4035 -0.14132,-0.16913 -0.25695,-0.36236 -0.25695,-0.42941 0,-0.0671 -0.061,-0.30098 -0.13558,-0.51983 -0.10281,-0.30173 -0.22669,-0.4606 -0.51243,-0.6572 l -0.37684,-0.25927 0.0577,-0.58572 c 0.11025,-1.11889 -0.23323,-1.72839 -0.97401,-1.72839 -0.23329,0 -0.46772,0.0533 -0.55574,0.12635 -0.21739,0.18041 -0.63578,1.12313 -0.63578,1.43251 0,0.14381 -0.01,0.26176 -0.0212,0.26212 -0.0116,3.4e-4 -0.33369,0.0366 -0.71565,0.0805 -0.5855,0.0673 -0.76323,0.12714 -1.1325,0.38115 -0.2409,0.16572 -0.57608,0.48909 -0.74484,0.71862 -0.16877,0.22952 -0.57856,0.72871 -0.91067,1.1093 -0.51283,0.58772 -0.62669,0.77669 -0.7556,1.25406 -0.0835,0.30913 -0.26533,0.80512 -0.40412,1.10219 -0.15903,0.3404 -0.25454,0.68478 -0.2583,0.93133 -0.008,0.4992 0.0835,1.26278 0.18226,1.5282 0.0928,0.24921 0.0304,1.4473 -0.0827,1.58917 -0.0445,0.0558 -0.22074,0.14611 -0.39164,0.20063 -0.1709,0.0545 -0.47249,0.22292 -0.67021,0.37423 -0.19771,0.1513 -0.54061,0.32045 -0.762,0.37587 -0.22138,0.0554 -0.54477,0.13796 -0.71864,0.18342 -0.39816,0.10411 -0.5818,0.39153 -0.35575,0.55681 0.0846,0.0619 0.29017,0.11254 0.45673,0.11254 0.17842,0 0.42395,0.0821 0.59765,0.19971 0.16215,0.10984 0.37911,0.22626 0.48212,0.25869 0.23966,0.0755 0.5449,-0.0858 0.5139,-0.27155 -0.0143,-0.0857 0.0591,-0.17724 0.18315,-0.22841 0.11385,-0.047 0.3996,-0.18069 0.635,-0.29711 0.41876,-0.2071 0.42855,-0.2206 0.4543,-0.62621 0.0145,-0.228 -0.0164,-0.51766 -0.0686,-0.64369 -0.0772,-0.18644 -0.0609,-0.33008 0.0876,-0.77078 0.13369,-0.39676 0.16855,-0.64695 0.13032,-0.93529 -0.0505,-0.38069 -0.0413,-0.40227 0.27928,-0.65616 0.31504,-0.24952 0.36918,-0.26253 1.09212,-0.26253 0.89002,0 1.28171,0.13197 1.67899,0.5657 0.257,0.28058 0.55282,0.40694 1.19177,0.50906 0.2102,0.0336 0.29342,0.004 0.3802,-0.13487 0.15092,-0.24167 0.2467,-0.22479 0.55195,0.0973 0.21902,0.23109 0.2851,0.40687 0.41249,1.09725 0.14405,0.78068 0.14436,0.84678 0.006,1.31234 -0.22874,0.77081 -0.37542,1.49176 -0.33202,1.6319 0.14483,0.46765 0.51767,0.76335 0.96251,0.76335 0.11227,0 0.30629,0.12383 0.46429,0.29633 0.24212,0.26433 0.31799,0.29633 0.70256,0.29633 0.36467,0 0.45218,-0.0321 0.56771,-0.20844 z m -15.1583,-0.0485 c 0.15162,-0.16755 0.1514,-0.17676 -0.008,-0.33228 -0.0902,-0.088 -0.4841,-0.35516 -0.87535,-0.59375 -0.82936,-0.50577 -0.99928,-0.4751 -0.6519,0.11766 0.51601,0.88051 1.16214,1.2207 1.5353,0.80837 z m 12.2213,-1.75229 c 0.1053,-0.26861 0.24595,-0.61351 0.31256,-0.76643 0.0666,-0.15292 0.1211,-0.48339 0.1211,-0.73438 0,-0.45886 -0.1499,-1.30186 -0.25315,-1.42364 -0.0658,-0.0777 -0.78428,0.22585 -0.91908,0.38827 -0.0695,0.0837 -0.0596,0.24842 0.0377,0.63193 0.11161,0.4398 0.1144,0.55479 0.0183,0.75563 -0.0959,0.20042 -0.1914,0.25088 -0.6204,0.32773 -0.35641,0.0638 -0.4991,0.12548 -0.48025,0.20745 0.0147,0.0641 0.31529,0.39588 0.66787,0.7372 0.74234,0.71864 0.78702,0.71369 1.11532,-0.12376 z m -9.43693,-0.49745 c 0.32935,-0.12638 8.4e-4,-0.74945 -0.707,-1.34081 -0.20135,-0.16822 -0.44078,-0.40081 -0.53206,-0.51686 -0.3447,-0.43821 -1.03923,-0.6035 -1.35085,-0.32148 -0.14443,0.1307 -0.15483,0.1301 -0.15483,-0.009 0,-0.082 0.0953,-0.22403 0.21166,-0.31561 0.13619,-0.10712 0.21167,-0.25145 0.21167,-0.40474 0,-0.20015 0.044,-0.24775 0.27517,-0.29768 0.42914,-0.0927 1.52667,-0.0445 1.7145,0.0753 0.0931,0.0594 0.33284,0.12953 0.53269,0.15586 0.2054,0.0271 0.61026,0.19658 0.93133,0.38995 0.5638,0.33956 0.82229,0.40535 2.27136,0.57813 l 0.34871,0.0416 0.0413,-0.49447 c 0.0554,-0.66265 -0.0474,-0.92206 -0.57053,-1.43945 -0.45778,-0.45279 -0.91324,-0.72986 -1.35704,-0.82554 -0.14162,-0.0305 -0.54167,-0.24463 -0.889,-0.47578 -0.34733,-0.23115 -0.72676,-0.42052 -0.84318,-0.42081 -0.29226,-7.6e-4 -0.69801,-0.26483 -0.98589,-0.64172 -0.13298,-0.17409 -0.39417,-0.47999 -0.58044,-0.67978 -0.6203,-0.66535 -0.92142,-1.06142 -1.14702,-1.50867 -0.12295,-0.24375 -0.29235,-0.55966 -0.37644,-0.70202 -0.19833,-0.33574 -0.12304,-0.58057 0.13591,-0.44198 0.13486,0.0722 0.23484,0.0726 0.3903,0.002 0.12032,-0.0548 0.37624,-0.0735 0.60313,-0.0441 0.29671,0.0385 0.56152,-0.003 1.07145,-0.16641 0.87034,-0.27951 0.9712,-0.27572 1.23603,0.0465 0.23677,0.28805 0.4621,0.26971 0.36701,-0.0299 -0.0366,-0.11523 -0.0236,-0.15351 0.0389,-0.11488 0.0516,0.0319 0.0937,0.0975 0.0937,0.14598 0,0.22452 0.29861,0.67772 0.54817,0.83196 0.79657,0.4923 1.82103,-0.0783 1.82162,-1.01466 4.2e-4,-0.71044 -0.46029,-1.1925 -1.16109,-1.2148 -0.50713,-0.0161 -0.90719,0.24564 -1.13204,0.74075 -0.1083,0.23847 -0.15819,0.29136 -0.15947,0.16907 -0.003,-0.27199 0.34793,-0.73384 0.70076,-0.92269 0.33249,-0.17796 0.39382,-0.43257 0.0991,-0.41131 -0.50309,0.0363 -1.00766,0.20306 -1.21485,0.40157 -0.27667,0.26506 -0.73704,0.29163 -1.6612,0.0959 -0.32595,-0.0691 -0.73213,-0.1262 -0.90261,-0.127 -0.42301,-0.002 -0.74599,-0.39784 -1.09291,-1.33944 -0.10132,-0.275 -0.58298,-0.60937 -0.87779,-0.60937 -0.46246,0 -0.49247,-1.15733 -0.0433,-1.66893 0.44147,-0.5028 0.41703,-1.14024 -0.0706,-1.84083 -0.37748,-0.54235 -0.65288,-0.65753 -1.40847,-0.58906 -0.5517,0.05 -0.68273,0.0947 -0.94368,0.32161 -0.37671,0.32763 -0.4582,0.75994 -0.24917,1.32188 0.078,0.20955 0.17563,0.57018 0.21707,0.80141 0.10746,0.59953 -0.0199,0.76198 -0.68973,0.87997 -0.35805,0.0631 -0.68864,0.19835 -1.041664,0.42625 -0.284431,0.18362 -0.688596,0.41525 -0.898146,0.51475 -0.20955,0.0995 -0.51435,0.2455 -0.677334,0.32447 -0.361469,0.17514 -0.846666,0.87175 -0.846666,1.21559 0,0.2726 0.170278,0.64738 0.478215,1.05255 0.317865,0.41823 0.264333,0.64083 -0.282506,1.17473 -0.525891,0.51345 -0.525146,0.60854 0.0054,0.69464 0.251775,0.0409 0.353151,0.0137 0.514656,-0.13807 0.140976,-0.13244 0.255394,-0.17172 0.382596,-0.13135 0.137366,0.0436 0.247151,-0.009 0.451703,-0.21806 0.166562,-0.16992 0.416105,-0.31075 0.650478,-0.36711 0.473099,-0.11377 0.573498,-0.36212 0.178355,-0.44115 -0.142159,-0.0284 -0.293758,-0.0947 -0.336887,-0.14733 -0.17566,-0.21422 -0.518046,-0.93626 -0.518046,-1.09249 0,-0.14222 0.03966,-0.15937 0.264583,-0.11439 0.145521,0.0291 0.317531,0.0529 0.382245,0.0529 0.161644,0 0.453136,0.50015 0.453522,0.77817 1.69e-4,0.12531 0.033,0.24804 0.07294,0.27272 0.03994,0.0247 0.137806,0.31308 0.217476,0.64086 l 0.14485,0.59598 -0.22251,0.48597 c -0.350692,0.76592 -0.665156,2.84189 -0.47576,3.14079 0.09012,0.14223 0.91532,0.20124 1.29429,0.0925 0.36311,-0.10414 0.44753,-0.006 0.46403,0.53808 0.0217,0.71609 0.12651,1.53461 0.20754,1.62098 0.0415,0.0442 0.0755,0.14334 0.0755,0.22022 0,0.18107 0.39819,0.94114 0.55775,1.06464 0.0677,0.0524 0.26911,0.11864 0.44754,0.14717 0.17843,0.0285 0.75866,0.26043 1.28939,0.51533 0.53074,0.2549 1.04118,0.46355 1.13432,0.46366 0.25848,3.4e-4 1.81374,0.31773 2.24366,0.45791 0.46967,0.15314 0.4644,0.15239 0.62808,0.0896 z m -2.71851,-1.26094 c 5.1e-4,-0.2794 0.0163,-0.3835 0.0351,-0.23132 0.0188,0.15218 0.0185,0.38078 -8.7e-4,0.508 -0.0193,0.12722 -0.0347,0.003 -0.0343,-0.27668 z m 3.43372,0.86038 c 0.085,-0.10237 0.73016,-0.31849 1.28421,-0.43017 0.28754,-0.058 1.18009,-0.65641 1.18144,-0.79214 0.001,-0.14735 -0.3044,-0.25167 -0.94354,-0.32184 -0.49576,-0.0544 -0.7936,-0.17202 -1.59408,-0.62935 -0.16225,-0.0927 -0.42895,-0.16976 -0.59266,-0.17124 -0.16371,-0.001 -0.37161,-0.0586 -0.46201,-0.127 -0.19357,-0.14641 -1.23915,-0.1721 -1.49221,-0.0367 -0.24267,0.12987 -0.20188,0.22813 0.1744,0.4201 0.44127,0.22512 1.64723,1.38201 1.91986,1.84175 0.22137,0.37329 0.36384,0.44024 0.52459,0.24655 z m 6.86938,-0.31005 c 0,-0.0466 -0.0381,-0.0847 -0.0847,-0.0847 -0.0466,0 -0.0847,0.0381 -0.0847,0.0847 0,0.0466 0.0381,0.0847 0.0847,0.0847 0.0466,0 0.0847,-0.0381 0.0847,-0.0847 z m 0.96121,-0.18015 c 0.15589,-0.43365 -0.41489,-1.65151 -0.69337,-1.4794 -0.0459,0.0283 -0.11034,0.3754 -0.14331,0.77125 -0.0709,0.85086 -0.01,0.97709 0.45349,0.93635 0.23722,-0.0209 0.32811,-0.075 0.38319,-0.2282 z m -18.117925,-0.49242 c 0.607539,-0.14096 1.148956,-0.87342 1.152855,-1.55964 0.0024,-0.42083 -0.368223,-1.10803 -0.711254,-1.31881 -0.79967,-0.49136 -1.76251,-0.17489 -2.17437,0.71469 -0.292371,0.63149 -0.15309,1.26636 0.393265,1.79257 0.448824,0.43228 0.734755,0.51151 1.339504,0.37119 z m 3.424785,-0.57529 c -0.0353,-0.1835 -0.31978,-0.24758 -0.41713,-0.094 -0.12224,0.1929 -0.0852,0.24116 0.18527,0.24116 0.20159,0 0.25382,-0.0332 0.23186,-0.14719 z m -0.77905,-0.0869 c 0.0517,-0.0342 0.15333,-0.17802 0.22581,-0.31959 0.12823,-0.25041 0.11882,-0.39119 -0.0747,-1.11844 -0.0155,-0.0582 -0.10849,-0.10584 -0.20666,-0.10584 -0.0982,0 -0.28988,-0.11136 -0.42599,-0.24748 -0.1926,-0.1926 -0.24749,-0.32404 -0.24749,-0.59267 0,-0.35567 -0.0236,-0.37494 -0.427242,-0.34958 -0.126748,0.008 -0.283736,-0.0618 -0.381,-0.16941 -0.161061,-0.17813 -0.184319,-0.60496 -0.09664,-1.77352 0.01422,-0.18952 -0.02741,-0.22002 -0.397907,-0.29153 -0.364419,-0.0703 -0.455335,-0.0562 -0.762,0.11818 -0.612722,0.34849 -1.759814,1.28916 -2.740862,2.24763 -0.824831,0.80585 -0.953207,0.96803 -0.952499,1.20325 5.08e-4,0.15838 0.06876,0.3351 0.163575,0.42334 0.257639,0.23975 1.350664,0.80299 1.445074,0.74464 0.04703,-0.0291 0.08717,-0.25062 0.08922,-0.49234 0.01196,-1.41451 1.201743,-2.3445 2.409381,-1.8833 0.751486,0.28699 1.187224,1.0766 1.129906,2.04751 l -0.02934,0.49695 0.508004,0.0493 c 0.2794,0.0271 0.5461,0.0551 0.59266,0.0622 0.0466,0.007 0.12698,-0.0151 0.17869,-0.0493 z m 19.39322,-1.75686 c 0.10683,-0.07 0.24687,-0.23168 0.31121,-0.3593 0.15667,-0.31077 0.42267,-1.43038 0.36284,-1.52719 -0.0262,-0.0424 -0.31316,-0.10172 -0.63772,-0.13188 -0.32455,-0.0302 -0.69018,-0.0929 -0.81251,-0.13941 -0.47314,-0.17988 -1.36547,0.008 -1.45904,0.308 -0.0165,0.0529 0.12715,0.27788 0.3193,0.49989 0.19215,0.22201 0.44237,0.61396 0.55604,0.87099 0.30166,0.68212 0.34529,0.71861 0.78686,0.65809 0.20833,-0.0285 0.46619,-0.10919 0.57302,-0.17919 z m -19.27557,-0.58634 c 0,-0.25337 -0.0347,-0.48209 -0.077,-0.50828 -0.14414,-0.0891 -0.33424,0.0505 -0.42556,0.31249 -0.10935,0.31367 0.0657,0.65646 0.3352,0.65646 0.14623,0 0.16739,-0.0582 0.16739,-0.46067 z m 10.33091,-0.43673 c 0.058,-0.30731 0.19757,-0.73202 0.31018,-0.94382 0.11261,-0.21179 0.19331,-0.46518 0.17933,-0.5631 -0.0388,-0.27168 -0.33949,-0.22557 -0.49547,0.076 -0.0723,0.1397 -0.29134,0.49804 -0.48684,0.7963 -0.19549,0.29826 -0.35545,0.58192 -0.35545,0.63036 0,0.14539 0.44426,0.56301 0.59892,0.56301 0.11025,0 0.16857,-0.1307 0.24933,-0.55873 z m 11.81028,0.18283 c 1.05034,-0.43886 0.68997,-2.24715 -0.44808,-2.24845 -0.35251,-4.2e-4 -0.77548,0.17724 -0.98694,0.41451 -0.24994,0.28043 -0.27777,1.06928 -0.0505,1.43146 0.29849,0.47569 0.9123,0.64199 1.48553,0.40248 z m -12.54142,-0.93236 c 0.3685,-0.56533 1.23756,-2.47216 1.23756,-2.71537 0,-0.0561 0.88977,-2.02899 1.02244,-2.26707 0.0935,-0.16784 0.18714,-0.58337 0.37437,-1.66177 0.0681,-0.39241 0.18744,-0.92581 0.26514,-1.18533 0.0777,-0.25953 0.1346,-0.58163 0.12647,-0.71578 -0.008,-0.13415 0.008,-0.31451 0.035,-0.4008 0.0481,-0.15156 0.0575,-0.15127 0.27735,0.009 0.26748,0.19454 1.53559,0.61893 2.5559,0.85535 0.39581,0.0917 0.93207,0.23948 1.19168,0.32835 0.39165,0.13407 0.53317,0.14607 0.83111,0.0704 0.26129,-0.0663 0.4467,-0.0649 0.6808,0.005 0.79965,0.23958 0.90249,0.0217 0.21367,-0.45276 -0.40596,-0.27959 -0.5576,-0.33173 -1.12184,-0.38571 -0.80417,-0.0769 -1.05339,-0.16801 -2.39859,-0.87651 -0.77015,-0.40562 -1.27293,-0.74281 -1.79917,-1.20662 -0.70953,-0.62535 -0.73033,-0.65432 -0.73033,-1.0169 0,-0.44815 -0.1599,-0.85333 -0.43359,-1.09865 -0.11077,-0.0993 -0.50621,-0.34318 -0.87874,-0.54197 -1.17773,-0.62845 -1.31234,-0.73197 -1.31234,-1.00922 0,-0.13637 0.0381,-0.27149 0.0847,-0.30027 0.16913,-0.10453 0.0782,-0.45735 -0.20524,-0.79664 -0.34169,-0.40897 -1.22558,-0.90289 -1.75132,-0.97863 -0.53983,-0.0778 -1.0771,0.21057 -1.29643,0.69577 -0.0895,0.19791 -0.192,0.35984 -0.22785,0.35984 -0.0359,0 -0.26745,-0.23581 -0.51467,-0.52402 -0.90652,-1.05681 -0.81617,-0.99998 -1.59002,-0.99998 -0.61301,0 -0.70819,-0.0217 -0.87435,-0.19922 -0.10255,-0.10957 -0.3316,-0.22602 -0.509,-0.25879 -0.18761,-0.0346 -0.45757,-0.18154 -0.64527,-0.35111 -0.17749,-0.16035 -0.34666,-0.29155 -0.37595,-0.29155 -0.11586,0 -0.0439,0.53302 0.11364,0.84185 0.22815,0.44721 0.64021,0.76579 1.60068,1.23757 0.96788,0.47541 0.97161,0.47839 1.72235,1.37418 0.56298,0.67176 0.58432,0.71325 0.49651,0.96514 -0.15008,0.43052 -0.10654,0.87287 0.16225,1.64863 0.30726,0.88678 0.3106,0.99366 0.0446,1.42563 -0.1337,0.21707 -0.20954,0.46786 -0.21124,0.6985 -0.002,0.32107 0.0186,0.35983 0.19451,0.35983 0.28568,0 0.93534,-0.45939 1.11104,-0.78565 0.1682,-0.31233 0.15359,-0.59579 -0.0868,-1.68471 -0.0789,-0.35752 -0.11669,-0.71947 -0.0839,-0.80434 0.0524,-0.13551 0.0924,-0.11669 0.32891,0.15458 0.14812,0.16988 0.41269,0.51278 0.58793,0.762 0.17525,0.24921 0.58841,0.77697 0.91814,1.17279 0.32973,0.39581 0.63618,0.81355 0.681,0.92829 0.11867,0.30381 -0.003,1.26742 -0.20129,1.59487 -0.0931,0.15371 -0.25842,0.33788 -0.36734,0.40925 -0.21287,0.13947 -0.62947,0.89833 -0.62947,1.1466 0,0.0945 0.0872,0.17257 0.23284,0.20841 0.73307,0.18046 1.60724,0.83812 1.80483,1.35783 0.1285,0.33797 0.0907,0.8578 -0.0877,1.20759 -0.34632,0.67885 -1.24749,0.92115 -1.9079,0.51299 l -0.30615,-0.18921 -0.18661,0.17532 c -0.2284,0.21456 -0.74412,0.43739 -1.01231,0.43739 -0.31571,0 -1.53131,0.3384 -1.65676,0.46122 -0.15931,0.15595 -0.0217,0.39456 0.57363,0.99501 l 0.47849,0.48255 0.58932,0.0255 0.58932,0.0254 -0.0233,0.29633 c -0.0255,0.32406 0.11222,0.44994 1.03782,0.94851 0.66855,0.36011 0.73002,0.33678 1.26162,-0.47877 z m 7.77211,-0.61791 c 0.31645,-0.12805 0.57583,-0.25347 0.57641,-0.2787 5.9e-4,-0.0252 -0.16606,-0.20987 -0.3703,-0.41032 -0.33823,-0.33194 -0.38919,-0.35524 -0.5715,-0.26128 -0.21571,0.11117 -0.66603,0.50712 -0.66551,0.58514 5.9e-4,0.0909 0.33616,0.598 0.39569,0.598 0.0329,0 0.31875,-0.10478 0.63521,-0.23284 z m -6.38462,-0.76729 c 0.0187,-0.0562 -0.0443,-0.10054 -0.14288,-0.10054 -0.17588,0 -0.22859,0.0889 -0.11818,0.19932 0.0785,0.0784 0.21982,0.0249 0.26106,-0.0988 z m -5.10293,-1.47812 c 0.46567,-0.11703 0.99533,-0.24547 1.17704,-0.28543 0.48657,-0.107 0.55325,-0.27851 0.2543,-0.65404 -0.1353,-0.16997 -0.31351,-0.33059 -0.39602,-0.35694 -0.0825,-0.0264 -0.40635,0.038 -0.71966,0.143 -0.33554,0.11246 -0.79584,0.19453 -1.11999,0.1997 -0.49345,0.008 -0.93134,0.13518 -0.93134,0.2708 0,0.0276 0.11911,0.2584 0.26469,0.51284 0.21471,0.37528 0.29865,0.4551 0.4445,0.42274 0.0989,-0.0219 0.56081,-0.13565 1.02648,-0.25267 z m -7.408334,-2.04105 c 0,-0.25802 -0.22132,-0.45792 -0.356892,-0.32234 -0.07117,0.0712 -0.07072,0.15057 0.0018,0.30967 0.125139,0.27465 0.355118,0.28286 0.355118,0.0127 z m 5.454404,-12.93727 c 0.30372,-0.35484 0.34636,-0.48748 0.30763,-0.95707 -0.0502,-0.60881 -0.53815,-1.05906 -1.1477,-1.05906 -1.11101,0 -1.56399,1.48813 -0.66761,2.19322 0.16914,0.13304 0.34608,0.17681 0.71476,0.17681 0.47041,0 0.50209,-0.0141 0.79292,-0.3539 z m 14.86027,-3.04235 c -27.345481,23.55654 -13.67274,11.77827 0,0 z"
         style="fill:#0f0e10;stroke-width:0.0846667" />
    </g>
  </g>
</svg>
